<?xml version="1.0" encoding="UTF-8"?>
<svg width="489px" height="379px" viewBox="0 0 489 379" version="1.1" xmlns="http://www.w3.org/2000/svg" xmlns:xlink="http://www.w3.org/1999/xlink">
    <title>UI/Logo</title>
    <g id="UI/Logo" stroke="none" stroke-width="1" fill="none" fill-rule="evenodd">
        <g id="JBT-Logo" fill-rule="nonzero">
            <path d="M311.714948,203.140035 L303.794948,231.670035 C310.484948,231.540035 315.304948,230.990035 317.474948,229.840035 C319.644948,228.690035 321.474948,225.750035 322.774948,221.180035 L324.574948,213.740035 C325.964948,208.900035 325.574948,205.910035 324.254948,204.900035 C322.934948,203.890035 318.694948,203.270035 311.714948,203.120035 M322.324948,164.890035 L315.794948,188.540035 C317.884948,188.490035 319.284948,188.470035 320.434948,188.470035 C325.224948,188.470035 328.434948,187.810035 330.184948,186.350035 C331.934948,184.890035 333.184948,182.740035 335.184948,175.880035 C336.234948,172.260035 336.184948,169.830035 335.514948,168.390035 C334.847321,166.913578 333.518996,165.84127 331.934948,165.500035 C328.753317,165.006287 325.533462,164.802117 322.314948,164.890035 M285.704948,146.700035 L328.144948,146.700035 C341.558281,146.700035 351.531614,147.366701 358.064948,148.700035 C364.594948,150.030035 369.424948,152.700035 372.544948,156.780035 C375.664948,160.860035 375.974948,167.370035 373.464948,176.380035 C371.771614,182.480035 369.104948,186.733368 365.464948,189.140035 C361.824948,191.546701 355.381614,193.390035 346.134948,194.670035 C355.594948,196.090035 361.621614,198.423368 364.214948,201.670035 C366.824948,204.960035 367.214948,209.960035 365.304948,216.730035 L362.624948,226.370035 C360.671614,233.396701 357.968281,238.600035 354.514948,241.980035 C351.061614,245.360035 346.394948,247.670035 340.514948,248.910035 C334.634948,250.150035 323.144948,250.770035 306.044948,250.770035 L256.834948,250.770035 L285.704948,146.700035 Z M267.804948,146.780035 L226.394948,146.780035 L206.894948,217.070035 C205.804948,221.010035 204.894948,223.590035 204.424948,225.070035 C203.590735,226.982232 202.154513,228.56945 200.334948,229.590035 C198.934948,230.450035 194.754948,231.250035 183.764948,231.590035 C182.624948,231.590035 179.924948,231.520035 177.434948,231.380035 L172.094948,250.930035 L202.924948,250.930035 C212.274948,250.930035 219.374948,250.350035 224.314948,249.360035 C228.724441,248.510383 232.892985,246.700941 236.524948,244.060035 C239.391429,242.078972 241.555284,239.23935 242.704948,235.950035 C243.754948,232.950035 267.814948,146.860035 267.814948,146.860035 M386.974948,146.860035 L381.904948,165.300035 C384.484948,165.180035 385.974948,165.180035 387.114948,165.180035 C390.114948,165.180035 401.114948,165.770035 402.624948,166.640035 C404.454948,167.700035 405.504948,169.330035 405.404948,170.800035 C405.054864,173.507334 404.489744,176.182456 403.714948,178.800035 L383.824948,250.950035 L425.394948,250.950035 L445.964948,176.290035 C446.481373,174.195507 447.271506,172.178148 448.314948,170.290035 C448.964948,168.920035 450.644948,167.640035 452.654948,166.690035 C454.664948,165.740035 465.484948,165.230035 468.504948,165.230035 C469.644948,165.230035 472.024948,165.230035 474.504948,165.370035 L479.564948,146.910035 L386.974948,146.860035 Z M135.184948,84.5300346 C136.184948,83.9300346 138.624948,82.5800346 138.624948,82.5800346 C119.834948,68.7500346 97.1549477,58.5800346 77.4649477,58.8700346 C56.8849477,59.1700346 38.8449477,71.3800346 25.6749477,89.4900346 C13.7849477,105.840035 6.52494771,127.430035 2.57494771,148.490035 C-7.03505229,199.840035 9.47494771,250.550035 65.2849477,250.550035 C113.914948,250.550035 182.954948,220.480035 189.404948,170.960035 C191.514948,154.750035 183.254948,131.800035 168.154948,111.590035 C166.454948,115.240035 166.434948,115.190035 164.874948,118.810035 C163.594948,121.810035 162.264948,125.400035 162.264948,125.400035 C166.874948,135.710035 169.264948,146.650035 168.624948,157.530035 C166.304948,193.920035 117.624948,223.210035 77.6249477,224.280035 C30.2449477,225.540035 12.6249477,188.280035 14.0949477,154.280035 C16.0949477,107.780035 38.0949477,69.4600346 72.9949477,64.5000346 C90.8149477,61.9700346 113.194948,71.1300346 131.824948,86.5000346 C131.824948,86.5000346 134.254948,85.0000346 135.194948,84.5000346" id="Shape" fill="#1D1D1B"></path>
            <path d="M250.024948,256.800035 C230.168608,272.650327 205.120295,280.536303 179.764948,278.920035 C182.424948,282.860035 182.524948,282.970035 183.424948,284.290035 C184.604948,286.010035 187.424948,289.680035 187.424948,289.680035 C218.354948,288.510035 244.594948,276.580035 264.694948,256.800035 L250.024948,256.800035 Z M283.724948,140.590035 C271.964948,107.970035 240.814948,81.9100346 187.534948,92.3600346 C150.844948,99.5600346 105.704948,131.150035 92.9649477,178.210035 C89.0579232,192.727822 90.0276206,208.127038 95.7249477,222.040035 C91.6903732,222.95753 87.5973309,223.59571 83.4749477,223.950035 C79.1931506,224.398843 74.8809274,224.482478 70.5849477,224.200035 C60.5849477,200.610035 61.4549477,174.430035 71.4249477,153.530035 C104.194948,84.8700346 170.594948,66.9200346 192.254948,63.4100346 C231.254948,57.0800346 271.354948,72.2800346 287.464948,99.5900346 C294.917159,112.222958 299.975118,126.122176 302.384948,140.590035 L283.724948,140.590035 Z M94.9049477,247.360035 C88.2449477,248.700035 86.3349477,248.910035 86.3349477,248.910035 C103.334948,268.020035 128.704948,281.730035 154.944948,287.070035 C154.944948,287.070035 152.424948,282.830035 150.324948,278.840035 C148.224948,274.850035 146.394948,271.170035 146.394948,271.170035 C131.836027,265.22977 118.934229,255.848515 108.794948,243.830035 C108.794948,243.830035 102.034948,245.910035 94.8649477,247.360035" id="Shape" fill="#0055B8"></path>
            <path d="M315.074948,1.72658307e-05 C259.018807,-0.0241075016 205.941411,25.234223 170.604948,68.7500346 C177.678859,66.4462818 184.91138,64.6615472 192.244948,63.4100346 C196.361206,62.75218 200.511007,62.3248472 204.674948,62.1300346 C236.23576,32.8322433 277.751993,16.6246833 320.814948,16.7900346 C397.074948,16.7900346 461.694948,66.0200346 482.704948,135.570035 L488.064948,116.250035 C459.824948,47.9600346 393.064948,1.72658307e-05 315.064948,1.72658307e-05 M144.884948,110.250035 C154.982706,103.642219 165.951351,98.4725851 177.474948,94.8900346 C174.049541,100.300295 170.937749,105.902856 168.154948,111.670035 L168.154948,111.670035 C166.494948,115.230035 166.434948,115.300035 164.984948,118.670035 C164.984948,118.670035 164.984948,118.670035 164.984948,118.720035 L164.904948,118.900035 C163.604948,121.900035 162.284948,125.490035 162.284948,125.490035 C162.284948,125.490035 162.284948,125.490035 162.284948,125.490035 C155.228295,144.42152 151.627848,164.466155 151.654948,184.670035 C151.654948,187.100035 151.734948,189.500035 151.844948,191.890035 C145.09891,198.756408 137.400034,204.616445 128.984948,209.290035 C128.259717,202.534187 127.892537,195.744692 127.884868,188.950035 C127.860062,161.793367 133.656963,134.946894 144.884948,110.220035 M315.234948,378.500093 C354.966815,378.531544 393.650201,365.752806 425.544948,342.060035 L433.884948,311.950035 C403.05703,340.106477 362.805931,355.703198 321.054948,355.670035 C240.244948,355.670035 172.304948,298.120035 155.614948,221.340035 C148.627891,226.385103 141.189605,230.773759 133.394948,234.450035 C153.574948,317.010035 227.314948,378.500093 315.264948,378.500093" id="Shape" fill="#9EA1A2"></path>
        </g>
    </g>
</svg>