<svg width="865" height="242" viewBox="0 0 865 242" fill="none" xmlns="http://www.w3.org/2000/svg">
<g opacity="0.25" clip-path="url(#clip0_1176_201067)">
<path opacity="0.35" d="M730.521 241.234C727.486 238.72 724.451 236.26 721.452 233.783C649.65 175.734 563.245 145.803 477.555 149.179C396.327 152.429 318.135 186.346 250.725 241.198H730.521V241.234Z" fill="#29A429"/>
<path opacity="0.35" d="M1037.09 193.397C957.708 125.594 864.418 53.3214 757.774 70.5971C682.52 82.7791 633 149.958 566.788 182.675C480.777 225.134 413.359 170.903 336.39 134.428C232.528 85.2724 104.23 98.6477 11.6355 168.267C-17.0194 189.835 -44.4223 216.995 -72.938 240.094H1037.09V193.397Z" fill="#29A429"/>
<path opacity="0.35" d="M1325.06 162.845C1316.72 161.573 1308.46 161.376 1301.01 162.093C1272.84 164.689 1246.13 177.885 1220.15 191.565C1194.17 205.244 1168.08 219.658 1140.17 225.101C1047.07 243.221 970.066 161.896 884.068 135.682C806.137 111.94 723.574 132.459 647.92 165.298C570.916 198.691 491.402 245.585 411.348 225.621C354.994 211.565 307.826 166.068 255.756 136.166C163.466 83.0946 65.4638 84.2763 -30.0684 109.952V251.798H1325.06V162.845Z" fill="#29A429"/>
</g>
<defs>
<clipPath id="clip0_1176_201067">
<rect width="865" height="240.468" fill="white" transform="translate(0 0.766113)"/>
</clipPath>
</defs>
</svg>
