<svg width="16" height="16" viewBox="0 0 16 16" fill="none" xmlns="http://www.w3.org/2000/svg">
<g clip-path="url(#clip0_422_3979)">
<path d="M6.66667 5.33325V10.6666H8C8.35362 10.6666 8.69276 10.5261 8.94281 10.2761C9.19286 10.026 9.33333 9.68687 9.33333 9.33325V6.66659C9.33333 6.31296 9.19286 5.97383 8.94281 5.72378C8.69276 5.47373 8.35362 5.33325 8 5.33325H6.66667Z" stroke="#2C3E50" stroke-linecap="round" stroke-linejoin="round"/>
<path d="M2 7.99992H3.33333C3.68696 7.99992 4.02609 7.85944 4.27614 7.60939C4.52619 7.35935 4.66667 7.02021 4.66667 6.66659C4.66667 6.31296 4.52619 5.97383 4.27614 5.72378C4.02609 5.47373 3.68696 5.33325 3.33333 5.33325H2V10.6666" stroke="#2C3E50" stroke-linecap="round" stroke-linejoin="round"/>
<path d="M11.3333 8H13.3333" stroke="#2C3E50" stroke-linecap="round" stroke-linejoin="round"/>
<path d="M14 5.33325H11.3333V10.6666" stroke="#2C3E50" stroke-linecap="round" stroke-linejoin="round"/>
</g>
<defs>
<clipPath id="clip0_422_3979">
<rect width="16" height="16" fill="white"/>
</clipPath>
</defs>
</svg>
