<svg width="16" height="16" viewBox="0 0 16 16" fill="none" xmlns="http://www.w3.org/2000/svg">
<path d="M2 2H3.33333L3.6 3.33333M4.66667 8.66667H11.3333L14 3.33333H3.6M4.66667 8.66667L3.6 3.33333M4.66667 8.66667L3.13807 10.1953C2.71809 10.6152 3.01554 11.3333 3.60948 11.3333H11.3333M11.3333 11.3333C10.597 11.3333 10 11.9303 10 12.6667C10 13.403 10.597 14 11.3333 14C12.0697 14 12.6667 13.403 12.6667 12.6667C12.6667 11.9303 12.0697 11.3333 11.3333 11.3333ZM6 12.6667C6 13.403 5.40305 14 4.66667 14C3.93029 14 3.33333 13.403 3.33333 12.6667C3.33333 11.9303 3.93029 11.3333 4.66667 11.3333C5.40305 11.3333 6 11.9303 6 12.6667Z" stroke="#303E47" stroke-linecap="round" stroke-linejoin="round"/>
</svg>
