<svg width="12" height="12" viewBox="0 0 12 12" fill="none" xmlns="http://www.w3.org/2000/svg">
<path d="M10.1339 1.86612L10.4874 1.51256V1.51256L10.1339 1.86612ZM3.25 10.5177V11.0177C3.38261 11.0177 3.50979 10.9651 3.60355 10.8713L3.25 10.5177ZM1.5 10.5177H1C1 10.7939 1.22386 11.0177 1.5 11.0177V10.5177ZM1.5 8.73221L1.14645 8.37865C1.05268 8.47242 1 8.5996 1 8.73221H1.5ZM8.71964 2.21967C9.01254 1.92678 9.48741 1.92678 9.7803 2.21967L10.4874 1.51256C9.80399 0.829146 8.69595 0.829146 8.01254 1.51256L8.71964 2.21967ZM9.7803 2.21967C10.0732 2.51256 10.0732 2.98744 9.7803 3.28033L10.4874 3.98744C11.1708 3.30402 11.1708 2.19598 10.4874 1.51256L9.7803 2.21967ZM9.7803 3.28033L2.89645 10.1642L3.60355 10.8713L10.4874 3.98744L9.7803 3.28033ZM3.25 10.0177H1.5V11.0177H3.25V10.0177ZM8.01254 1.51256L1.14645 8.37865L1.85355 9.08576L8.71964 2.21967L8.01254 1.51256ZM1 8.73221V10.5177H2V8.73221H1ZM7.26254 2.96967L9.0303 4.73744L9.73741 4.03033L7.96964 2.26256L7.26254 2.96967Z" fill="#303E47"/>
</svg>
