<svg width="17" height="23" viewBox="0 0 17 23" fill="none" xmlns="http://www.w3.org/2000/svg">
    <path d="M0 0H17V16.2353L8.5 23L0 16.2353V0Z" fill="FF1A1A" />
    <path d="M10.4998 14.3333H13.8332L12.8965 13.3967C12.6425 13.1427 12.4998 12.7982 12.4998 12.439V10.3333C12.4998 8.59171 11.3868 7.11006 9.83317 6.56094V6.33333C9.83317 5.59695 9.23622 5 8.49984 5C7.76346 5 7.1665 5.59695 7.1665 6.33333V6.56094C5.61291 7.11006 4.49984 8.59171 4.49984 10.3333V12.439C4.49984 12.7982 4.35714 13.1427 4.10313 13.3967L3.1665 14.3333H6.49984M10.4998 14.3333V15C10.4998 16.1046 9.60441 17 8.49984 17C7.39527 17 6.49984 16.1046 6.49984 15V14.3333M10.4998 14.3333H6.49984" stroke="white" strokeWidth="0.8" strokeLinecap="round" strokeLinejoin="round" />
</svg>