<svg width="165" height="169" viewBox="0 0 165 169" fill="none" xmlns="http://www.w3.org/2000/svg">
<path opacity="0.4" d="M108.689 92.3997L12.2217 148.099V142.015C12.2217 140.216 13.4846 138.029 15.0464 137.126L20.8927 133.752C22.4544 132.848 23.7174 130.662 23.7174 128.863V118.189C23.7174 116.389 24.9803 114.203 26.5421 113.3L33.0402 109.552C34.6019 108.648 35.8649 109.382 35.8649 111.181V116.437C35.8649 118.236 37.1279 118.969 38.6896 118.066L43.8908 115.065C45.4525 114.162 46.7155 111.976 46.7155 110.176V86.7911C46.7155 84.9917 47.9785 82.8053 49.5402 81.9022L54.5785 78.996C56.1402 78.0929 57.4032 75.9065 57.4032 74.1071V68.0096C57.4032 66.2102 58.6661 64.0238 60.2279 63.1207L66.2371 59.6509C67.7988 58.7478 69.0618 59.4812 69.0618 61.2806V63.433C69.0618 65.2324 70.3248 65.9658 71.8865 65.0627L76.7618 62.2448C78.3235 61.3417 79.5865 62.075 79.5865 63.8744C79.5865 65.6738 80.8495 66.4071 82.4112 65.504L86.8044 62.9713C88.3661 62.0682 89.6291 59.8818 89.6291 58.0824V31.9269C89.6291 30.1275 90.892 27.9411 92.4538 27.038L96.684 24.5935C98.2458 23.6904 99.5087 21.504 99.5087 19.7046V7.34661C99.5087 5.54722 100.772 3.3608 102.333 2.45772L105.912 0.386729C107.474 -0.516357 108.736 0.216976 108.736 2.01636V92.3997H108.689Z" fill="#0076CC"/>
<path d="M115.933 34.1252C112.439 36.1484 109.128 38.989 106.175 42.3507C102.088 29.2206 89.6219 25.1436 74.8672 33.6654C62.6669 40.7158 52.03 54.5714 46.3999 69.2547C44.53 69.316 42.4557 69.9291 40.2589 71.1961C32.2991 75.7942 25.8413 86.9829 25.8413 96.1791C25.8413 96.3732 25.8617 96.5571 25.8719 96.7513C23.6036 96.9046 21.0899 97.7118 18.4435 99.2343C8.25613 105.12 0 119.415 0 131.186C0 142.947 8.25613 147.719 18.4435 141.833L115.943 85.5422C128.236 78.4407 138.208 61.1723 138.208 46.9795C138.198 32.7765 128.225 27.0237 115.933 34.1252Z" fill="url(#paint0_linear_134_118951)" fill-opacity="0.54"/>
<path opacity="0.28" d="M159.36 48.6892C169.547 54.9016 132.303 32.9637 132.303 32.9637V32.9739C128.267 30.5727 122.647 30.869 116.434 34.4555C113.42 35.3241 108.127 40.8112 106.267 42.4767C106.267 42.4767 104.224 36.346 99.6767 32.4528C95.1298 28.5596 85.0139 28.4269 75.3681 33.9957C63.1679 41.0461 52.5207 54.9017 46.9008 69.5849C45.031 69.6463 42.9567 70.2593 40.7598 71.5264C32.7898 76.1245 26.3423 87.3132 26.3423 96.5094C26.3423 96.7035 26.3627 96.8874 26.3729 97.0816C24.1045 97.2348 21.5909 98.042 18.9444 99.5645C8.75711 105.45 0.500977 119.745 0.500977 131.516C0.500977 137.351 2.53436 141.448 5.82455 143.4H5.81433L5.89607 143.451C5.90629 143.451 5.90629 143.461 5.91651 143.461C5.91651 143.461 42.2516 165.092 32.6161 158.962C22.9805 152.831 28.0895 136.482 29.1113 135.796C30.1331 135.109 116.444 85.8724 116.444 85.8724C126.417 80.1197 135.092 65.273 137.933 53.2056C137.933 53.2056 149.173 42.4767 159.36 48.6892Z" fill="#D1D6DB"/>
<path d="M132.728 57.9778L132.861 58.4032L133.155 58.0684C136.093 54.7232 139.384 51.9016 142.85 49.8945C148.951 46.37 154.417 46.0669 158.344 48.3325C162.27 50.598 164.745 55.4835 164.75 62.5322C164.75 69.5744 162.275 77.3968 158.261 84.3478C154.247 91.2988 148.71 97.3548 142.61 100.878L45.1104 157.169L45.1104 157.169C40.0623 160.086 35.5513 160.33 32.3185 158.463C29.0857 156.596 27.042 152.566 27.042 146.739C27.042 140.907 29.0887 134.434 32.41 128.681C35.7313 122.928 40.3137 117.919 45.3605 115.003C47.9816 113.496 50.4585 112.704 52.6808 112.553L52.9265 112.537L52.9136 112.291C52.9095 112.214 52.9045 112.144 52.8997 112.078C52.8911 111.959 52.8833 111.852 52.8833 111.732C52.8833 107.188 54.4778 102.134 57.0698 97.6409C59.6619 93.1475 63.2378 89.2373 67.1757 86.9654C69.3444 85.7147 71.3789 85.117 73.2001 85.0573L73.3659 85.0519L73.4253 84.8969C79.0399 70.2542 89.6444 56.4501 101.784 49.4347C109.124 45.1957 115.857 44.1111 121.243 45.6814C126.621 47.2492 130.705 51.4782 132.728 57.9778Z" fill="url(#paint1_radial_134_118951)" stroke="#0076CC" stroke-width="0.5"/>
<mask id="mask0_134_118951" style="mask-type:alpha" maskUnits="userSpaceOnUse" x="26" y="33" width="100" height="136">
<path d="M39.2515 93.9331L125.617 33.9502L121.585 110.48L26.4814 168.395L39.2515 93.9331Z" fill="#C4C4C4"/>
</mask>
<g mask="url(#mask0_134_118951)">
<g filter="url(#filter0_f_134_118951)">
<path d="M137.019 110.08V24.0135C137.019 23.2538 136.886 21.9715 136.601 21.0373C136.585 20.9843 136.568 20.9339 136.552 20.8862L133.95 22.8769C133.81 23.0271 133.547 23.3646 133.197 23.8965C132.828 24.4582 132.418 25.1492 132.037 25.8666C131.654 26.5865 131.313 27.308 131.072 27.9329C130.812 28.6085 130.735 29.0046 130.735 29.1413V41.0299C130.735 41.8879 130.341 42.7022 129.971 43.3131C129.574 43.9701 129.054 44.6298 128.536 45.2267C127.707 46.1829 126.775 47.0954 126.186 47.6722C126.044 47.8112 125.922 47.9307 125.826 48.0267L125.62 48.2323L125.353 48.3461L122.804 49.4311C122.315 49.7192 121.806 50.2358 121.411 50.8886C120.999 51.5708 120.796 52.2632 120.796 52.7879V77.95C120.796 79.1564 120.364 80.3811 119.748 81.4007C119.13 82.4232 118.244 83.3775 117.18 83.9659L117.178 83.9668L112.76 86.4024C112.76 86.4026 112.759 86.4027 112.759 86.4029C111.705 86.9856 110.42 87.2139 109.298 86.5936C108.153 85.9607 107.692 84.7326 107.692 83.522C107.692 83.2734 107.647 83.138 107.622 83.0832C107.549 83.0809 107.377 83.1006 107.076 83.267L107.076 83.2671L102.172 85.9778C102.172 85.9779 102.171 85.9779 102.171 85.978C101.117 86.5609 99.8323 86.7894 98.71 86.169C97.565 85.5361 97.104 84.308 97.104 83.0974V81.0267C97.104 80.7781 97.0589 80.6427 97.0331 80.5879C96.9607 80.5856 96.7888 80.6053 96.488 80.7716L96.4872 80.7721L90.4424 84.1096C90.4422 84.1097 90.4419 84.1099 90.4417 84.11C90.4417 84.11 90.4416 84.1101 90.4416 84.1101C89.9348 84.3906 89.4004 84.9221 88.9903 85.6009C88.5782 86.283 88.3748 86.9754 88.3748 87.5001V93.3661C88.3748 94.5724 87.9429 95.7972 87.3269 96.8167C86.7092 97.8392 85.823 98.7935 84.7589 99.382L84.7575 99.3827L79.6901 102.178L137.019 110.08ZM137.019 110.08L42.9199 165.765V158.695C42.9199 158.17 43.1234 157.478 43.5355 156.795C43.9455 156.117 44.4798 155.585 44.9866 155.305L137.019 110.08ZM97.0744 80.5932C97.0743 80.5932 97.073 80.5929 97.0706 80.592C97.0732 80.5927 97.0744 80.5931 97.0744 80.5932ZM107.663 83.0885C107.663 83.0885 107.661 83.0882 107.659 83.0873C107.661 83.0879 107.663 83.0884 107.663 83.0885ZM44.9876 155.304L50.8682 152.058L50.8692 152.058C51.9334 151.469 52.8195 150.515 53.4373 149.492C54.0533 148.473 54.4852 147.248 54.4852 146.042V135.773C54.4852 135.248 54.6886 134.556 55.1007 133.874C55.5107 133.195 56.0448 132.664 56.5514 132.383L44.9876 155.304ZM56.5528 132.383L63.0889 128.778L63.0903 128.777C63.3911 128.611 63.5629 128.591 63.6354 128.593C63.6611 128.648 63.7062 128.783 63.7062 129.032V134.088C63.7062 135.298 64.1672 136.527 65.3122 137.159C66.4342 137.78 67.7184 137.551 68.7726 136.969L56.5528 132.383ZM68.7738 136.968L74.0053 134.082L74.0065 134.081C75.0707 133.493 75.9568 132.538 76.5746 131.516C77.1906 130.496 77.6225 129.271 77.6225 128.065V105.568C77.6225 105.043 77.8259 104.351 78.238 103.669C78.6479 102.99 79.1821 102.459 79.6887 102.179L68.7738 136.968ZM63.6766 128.598C63.6765 128.598 63.6752 128.598 63.6728 128.597C63.6754 128.598 63.6766 128.598 63.6766 128.598Z" stroke="#0076CC" stroke-width="3"/>
</g>
</g>
<defs>
<filter id="filter0_f_134_118951" x="37.9199" y="15.5127" width="104.099" height="156.383" filterUnits="userSpaceOnUse" color-interpolation-filters="sRGB">
<feFlood flood-opacity="0" result="BackgroundImageFix"/>
<feBlend mode="normal" in="SourceGraphic" in2="BackgroundImageFix" result="shape"/>
<feGaussianBlur stdDeviation="1.75" result="effect1_foregroundBlur_134_118951"/>
</filter>
<linearGradient id="paint0_linear_134_118951" x1="88.9506" y1="40.0585" x2="15.2778" y2="147.342" gradientUnits="userSpaceOnUse">
<stop stop-color="#4B9DE8"/>
<stop offset="0.536458" stop-color="#83C2F0" stop-opacity="0.52"/>
<stop offset="1" stop-color="#98D4F5" stop-opacity="0"/>
</linearGradient>
<radialGradient id="paint1_radial_134_118951" cx="0" cy="0" r="1" gradientUnits="userSpaceOnUse" gradientTransform="translate(95.8962 102.327) rotate(134.559) scale(100.281 120.351)">
<stop stop-color="#8BBEEE"/>
<stop offset="1" stop-color="#8BB9EE" stop-opacity="0.06"/>
</radialGradient>
</defs>
</svg>
