<svg width="32" height="32" viewBox="0 0 32 32" fill="none" xmlns="http://www.w3.org/2000/svg">
<g clip-path="url(#clip0_176_144745)">
<path d="M12.0003 6.66699H9.33366C8.62641 6.66699 7.94814 6.94794 7.44804 7.44804C6.94794 7.94814 6.66699 8.62641 6.66699 9.33366V25.3337C6.66699 26.0409 6.94794 26.7192 7.44804 27.2193C7.94814 27.7194 8.62641 28.0003 9.33366 28.0003H22.667C23.3742 28.0003 24.0525 27.7194 24.5526 27.2193C25.0527 26.7192 25.3337 26.0409 25.3337 25.3337V9.33366C25.3337 8.62641 25.0527 7.94814 24.5526 7.44804C24.0525 6.94794 23.3742 6.66699 22.667 6.66699H20.0003" stroke="#0076CC" stroke-width="1.5" stroke-linecap="round" stroke-linejoin="round"/>
<path d="M12 6.66667C12 5.95942 12.281 5.28115 12.781 4.78105C13.2811 4.28095 13.9594 4 14.6667 4H17.3333C18.0406 4 18.7189 4.28095 19.219 4.78105C19.719 5.28115 20 5.95942 20 6.66667C20 7.37391 19.719 8.05219 19.219 8.55229C18.7189 9.05238 18.0406 9.33333 17.3333 9.33333H14.6667C13.9594 9.33333 13.2811 9.05238 12.781 8.55229C12.281 8.05219 12 7.37391 12 6.66667Z" stroke="#0076CC" stroke-width="1.5" stroke-linecap="round" stroke-linejoin="round"/>
</g>
<defs>
<clipPath id="clip0_176_144745">
<rect width="32" height="32" fill="white"/>
</clipPath>
</defs>
</svg>
