<svg width="32" height="32" viewBox="0 0 32 32" fill="none" xmlns="http://www.w3.org/2000/svg">
<path fill-rule="evenodd" clip-rule="evenodd" d="M20.5743 9.78156C20.4828 9.94518 20.2742 10.001 20.1132 9.908C19.9521 9.81503 19.8972 9.60305 19.9887 9.43943C20.0802 9.2758 20.2888 9.22002 20.4498 9.31299C20.6145 9.40968 20.6694 9.61793 20.5743 9.78156C20.5779 9.78156 20.5779 9.78156 20.5743 9.78156ZM23.6593 12.9165C23.5678 13.0801 23.3592 13.1359 23.1982 13.0429C23.0372 12.95 22.9823 12.738 23.0738 12.5744C23.1653 12.4108 23.3739 12.355 23.5349 12.4479C23.6959 12.5409 23.7508 12.7492 23.6593 12.9165C23.6593 12.9128 23.6593 12.9128 23.6593 12.9165ZM12.0328 9.31299C12.1938 9.40596 12.2487 9.61793 12.1572 9.78156C12.0657 9.94518 11.8571 10.001 11.6961 9.908C11.5351 9.81503 11.4802 9.60305 11.5717 9.43943C11.6632 9.2758 11.8718 9.22002 12.0328 9.31299ZM9.07218 12.9165C8.98069 13.0801 8.77209 13.1359 8.61107 13.0429C8.45005 12.95 8.39515 12.738 8.48664 12.5744C8.57813 12.4108 8.78673 12.355 8.94775 12.4479C9.10877 12.5409 9.16367 12.7492 9.07218 12.9165C9.07218 12.9128 9.07218 12.9128 9.07218 12.9165ZM14.4481 9.73693C14.6091 9.8299 14.664 10.0419 14.5725 10.2055C14.4811 10.3691 14.2725 10.4249 14.1114 10.3319C13.9504 10.239 13.8955 10.027 13.987 9.86337C14.0785 9.69974 14.2834 9.64396 14.4481 9.73693C14.4481 9.73693 14.4445 9.73693 14.4481 9.73693ZM15.2386 12.2248C14.9239 12.2806 14.6128 12.3661 14.3164 12.4851C14.2578 12.4219 14.1883 12.3698 14.1151 12.3289L14.3786 10.834C14.4298 10.8265 14.4774 10.8154 14.5286 10.8005L15.352 11.9533C15.2971 12.0352 15.2605 12.1281 15.2386 12.2248ZM16.3657 8.63616C16.2743 8.79979 16.0657 8.85557 15.9046 8.7626C15.7436 8.66963 15.6887 8.45766 15.7802 8.29403C15.8717 8.13041 16.0803 8.07462 16.2413 8.16759C16.4023 8.26428 16.4572 8.47254 16.3657 8.63616ZM16.0144 11.5889C15.9156 11.5889 15.8131 11.6075 15.7217 11.6447L14.9165 10.5142C15.0849 10.2836 15.1178 9.98237 15.008 9.71834L15.6558 9.15308C15.9156 9.31671 16.245 9.31299 16.5011 9.14564L17.2221 9.75552C17.1343 9.97493 17.1452 10.2204 17.2514 10.4323L16.1059 11.5926L16.0144 11.5889ZM16.3072 12.5669C16.2157 12.7306 16.0071 12.7864 15.8461 12.6934C15.6851 12.6004 15.6302 12.3884 15.7217 12.2248C15.8131 12.0612 16.0217 12.0054 16.1828 12.0984C16.3474 12.1951 16.4023 12.4033 16.3072 12.5669ZM20.3401 11.9794L18.9311 12.4963C18.8104 12.3401 18.6383 12.2322 18.4481 12.1951L18.2834 10.7968C18.5359 10.6815 18.7115 10.4398 18.7445 10.1572L19.5862 9.99725C19.7252 10.2576 19.9924 10.4212 20.2852 10.4212H20.3218L20.6438 11.3137C20.4498 11.4662 20.3364 11.7005 20.3364 11.9496L20.3401 11.9794ZM19.4361 13.5561C19.319 13.4371 19.1909 13.3256 19.0629 13.2177C19.0848 13.1434 19.0958 13.0653 19.0958 12.9872V12.9537L20.5047 12.4368C20.5304 12.474 20.5596 12.5074 20.5926 12.5372L19.9778 13.8499C19.8972 13.8499 19.8204 13.8648 19.7435 13.8908C19.6447 13.7756 19.5423 13.664 19.4361 13.5561ZM18.2504 10.2315C18.1589 10.3952 17.9503 10.4509 17.7893 10.3543C17.6283 10.2613 17.5734 10.0493 17.6686 9.88568C17.76 9.72205 17.9686 9.66627 18.1297 9.75924C18.287 9.85593 18.3419 10.0679 18.2504 10.2315ZM17.7125 12.4442C17.4124 12.3327 17.1013 12.2508 16.7866 12.2025C16.75 12.0537 16.6731 11.9199 16.567 11.8157L17.5917 10.7745C17.6612 10.8079 17.7344 10.834 17.8076 10.8489L17.9686 12.2508C17.8735 12.2955 17.7857 12.3624 17.7125 12.4442ZM18.5908 13.1582C18.4993 13.3219 18.2907 13.3776 18.1297 13.2847C17.9686 13.1917 17.9137 12.9797 18.0052 12.8161C18.0967 12.6525 18.3053 12.5967 18.4663 12.6897C18.631 12.7826 18.6859 12.9909 18.5908 13.1582C18.5908 13.1582 18.5908 13.1545 18.5908 13.1582ZM21.4233 12.1207C21.3318 12.2843 21.1232 12.3401 20.9622 12.2471C20.8012 12.1542 20.7463 11.9422 20.8378 11.7786C20.9293 11.6149 21.1378 11.5591 21.2989 11.6521C21.4599 11.7488 21.5148 11.9571 21.4233 12.1207ZM22.2577 14.7982L20.7609 14.4747C20.717 14.2776 20.5999 14.1065 20.4389 13.9912L21.0244 12.7454C21.061 12.7492 21.0976 12.7529 21.1342 12.7529C21.383 12.7529 21.6209 12.6339 21.771 12.4293L22.5797 12.7157V12.738C22.5797 13.0392 22.7444 13.3144 23.0042 13.4557L22.8432 14.3966C22.598 14.4338 22.3821 14.5788 22.2577 14.7982ZM23.2421 15.3709C23.1506 15.5345 22.942 15.5903 22.781 15.4936C22.62 15.4007 22.5651 15.1887 22.6602 15.0251C22.7517 14.8614 22.9603 14.8057 23.1213 14.8986C23.2787 14.9953 23.3336 15.2036 23.2421 15.3709C23.2421 15.3672 23.2421 15.3672 23.2421 15.3709ZM20.2815 14.828C20.19 14.9916 19.9814 15.0474 19.8204 14.9544C19.6594 14.8614 19.6045 14.6495 19.696 14.4858C19.7875 14.3222 19.9961 14.2664 20.1571 14.3594C20.3181 14.4561 20.373 14.6643 20.2815 14.828ZM13.1453 12.5186L11.8718 11.9645L11.8754 11.8864C11.8754 11.6335 11.7583 11.3918 11.557 11.243L11.8388 10.4212H11.8644C12.1609 10.4212 12.4317 10.2538 12.5707 9.98609L13.4966 10.1497C13.5332 10.4063 13.6869 10.6332 13.9138 10.7559L13.6503 12.2508C13.4527 12.2694 13.2734 12.3661 13.1453 12.5186ZM11.2496 11.5889C11.4107 11.6856 11.4655 11.8938 11.3704 12.0575C11.2753 12.2211 11.0703 12.2769 10.9093 12.1802C10.7483 12.0835 10.6934 11.8752 10.7885 11.7116C10.8837 11.548 11.0886 11.4922 11.2496 11.5889ZM12.1023 13.9541H12.0694L11.5607 12.5223C11.6046 12.4888 11.6449 12.4517 11.6815 12.407L12.9587 12.9611L12.955 13.0392C12.955 13.121 12.966 13.2066 12.9916 13.2847C12.8818 13.3776 12.7757 13.478 12.6769 13.5822C12.5524 13.7086 12.439 13.8425 12.3292 13.9801C12.256 13.9652 12.1792 13.9541 12.1023 13.9541ZM11.934 15.0585C11.773 14.9656 11.7181 14.7536 11.8096 14.59C11.901 14.4263 12.1096 14.3706 12.2707 14.4635C12.4317 14.5565 12.4866 14.7685 12.3951 14.9321C12.2999 15.0957 12.095 15.1515 11.934 15.0585ZM9.39056 14.8131C9.55158 14.9061 9.60648 15.118 9.51499 15.2817C9.4235 15.4453 9.2149 15.5011 9.05388 15.4081C8.89286 15.3151 8.83796 15.1032 8.92945 14.9395C9.0246 14.7759 9.22954 14.7201 9.39056 14.8131ZM13.5808 13.3442C13.4198 13.2512 13.3649 13.0392 13.4564 12.8756C13.5479 12.712 13.7565 12.6562 13.9175 12.7492C14.0785 12.8421 14.1334 13.0541 14.0419 13.2177C13.9468 13.3814 13.7418 13.4371 13.5808 13.3442C13.5808 13.3405 13.5771 13.3405 13.5808 13.3442ZM11.3228 14.6123L9.94682 14.7796C9.83337 14.523 9.59184 14.3445 9.31737 14.3111L9.16001 13.4557C9.41618 13.3144 9.5772 13.0429 9.5772 12.7454V12.7083L10.4592 12.381C10.6092 12.5781 10.8398 12.6934 11.085 12.6934H11.1179L11.6266 14.1214C11.4655 14.2404 11.3594 14.4152 11.3228 14.6123ZM23.7435 15.1961C23.7435 14.8949 23.5788 14.6197 23.3153 14.4784L23.4763 13.5413C23.9118 13.4818 24.2156 13.0727 24.157 12.6339C24.0985 12.1913 23.6959 11.8827 23.2641 11.9422C23.0518 11.9719 22.8652 12.0835 22.7371 12.2583L21.9247 11.9719V11.9459C21.9247 11.4996 21.5697 11.1389 21.1305 11.1389H21.0939L20.7682 10.2427C21.1159 9.97122 21.1781 9.46174 20.9073 9.11217C20.6401 8.75888 20.1388 8.69566 19.7948 8.97086C19.6264 9.10473 19.5203 9.29811 19.4947 9.51008L18.653 9.66999C18.4444 9.2758 17.965 9.13076 17.5771 9.34274C17.5588 9.35389 17.5405 9.36133 17.5258 9.37249L16.8049 8.76632C16.9732 8.35353 16.7793 7.88125 16.3731 7.7139C15.9668 7.54284 15.5021 7.73993 15.3374 8.15272C15.2569 8.35353 15.2569 8.57666 15.3411 8.77748L14.6933 9.34646C14.32 9.11217 13.8296 9.23117 13.5991 9.61049C13.5881 9.62908 13.5808 9.64396 13.5698 9.66255L12.6476 9.49893C12.589 9.06011 12.1901 8.75145 11.7547 8.81095C11.3192 8.87045 11.0191 9.27952 11.0776 9.71834C11.1069 9.93403 11.2167 10.1274 11.3887 10.2538L11.1069 11.0757H11.0813C10.6421 11.0757 10.2872 11.4364 10.2872 11.8827V11.9199L9.40886 12.2471C9.14171 11.8938 8.64035 11.8306 8.29634 12.1058C7.94868 12.3773 7.88647 12.8868 8.15728 13.2363C8.28902 13.4074 8.47932 13.5152 8.68792 13.5413L8.84894 14.3966C8.46469 14.6086 8.32196 15.0994 8.53056 15.4899C8.66962 15.7465 8.93311 15.9101 9.22222 15.9101C9.59916 15.9027 9.9212 15.6312 10.0017 15.2556L11.3777 15.0883C11.4875 15.33 11.7473 15.542 12.0108 15.5569C12.4902 15.5829 12.8928 15.2594 12.8928 14.7536C12.8928 14.5714 12.8342 14.3966 12.7244 14.2553C12.8159 14.14 12.9147 14.0284 13.0172 13.9243C13.0977 13.8425 13.1819 13.7607 13.2697 13.6863C13.621 13.9541 14.1188 13.8834 14.3822 13.5264C14.4847 13.3851 14.5433 13.2177 14.5433 13.0429C14.5433 13.002 14.5396 12.9611 14.5359 12.9202C14.7811 12.8273 15.0337 12.7529 15.2898 12.7045C15.4618 13.1136 15.9266 13.307 16.3291 13.1322C16.5268 13.0467 16.6805 12.8868 16.7573 12.6859C17.0171 12.7268 17.2697 12.7938 17.5149 12.883L17.5112 12.9797C17.5112 13.426 17.8662 13.7867 18.3053 13.7867C18.481 13.7867 18.653 13.7272 18.7921 13.6156C18.8982 13.7049 19.0043 13.7979 19.1031 13.8983C19.1909 13.9875 19.2751 14.0768 19.3556 14.1735C19.0958 14.5305 19.169 15.0362 19.5203 15.3003C19.6557 15.4044 19.8241 15.4602 19.9924 15.4602C20.3108 15.4565 20.5999 15.2594 20.7243 14.9619L22.1625 15.2742C22.2028 15.5755 22.3931 15.8321 22.6712 15.9511C23.1982 16.1296 23.7435 15.7688 23.7435 15.1961Z" fill="#008CD1"/>
<path fill-rule="evenodd" clip-rule="evenodd" d="M24.4937 17.4126V16.4866H20.3876C20.3437 18.9075 18.3748 20.8339 15.9924 20.7892C13.6722 20.7446 11.7985 18.8443 11.7583 16.4866H7.65222V17.4126C8.47929 17.5613 8.96601 17.4386 9.20389 18.346C9.44908 19.2757 8.99163 19.3947 8.32559 19.9599L8.78304 20.7632L9.23682 21.5665C10.0785 21.2541 10.3969 20.9268 11.0447 21.5851C11.7107 22.2619 11.3667 22.6152 11.0739 23.4296L11.8644 23.8944L12.6549 24.3593C13.1965 23.7011 13.3319 23.2176 14.2285 23.463C15.1397 23.7122 15.0153 24.1733 15.1654 25.0435H16.9915C17.1379 24.1845 17.0135 23.7122 17.921 23.463C18.8286 23.2139 18.9494 23.6899 19.4983 24.3593L20.2888 23.8944L21.0793 23.4296C20.7865 22.6114 20.4425 22.2619 21.1085 21.5851C21.7636 20.9194 22.1296 21.2727 22.9164 21.5665L23.3738 20.7632L23.8313 19.9599C23.1652 19.391 22.7078 19.272 22.953 18.346C23.1799 17.4386 23.6666 17.5613 24.4937 17.4126Z" fill="black"/>
<path d="M15.9925 18.6026C17.1425 18.6026 18.0748 17.6552 18.0748 16.4866C18.0748 15.318 17.1425 14.3706 15.9925 14.3706C14.8424 14.3706 13.9102 15.318 13.9102 16.4866C13.9102 17.6552 14.8424 18.6026 15.9925 18.6026Z" fill="#B1B3B5"/>
</svg>
