<svg width="32" height="32" viewBox="0 0 32 32" fill="none" xmlns="http://www.w3.org/2000/svg">
<g clip-path="url(#clip0_176_144749)">
<path d="M12.0003 6.66699H9.33366C8.62641 6.66699 7.94814 6.94794 7.44804 7.44804C6.94794 7.94814 6.66699 8.62641 6.66699 9.33366V25.3337C6.66699 26.0409 6.94794 26.7192 7.44804 27.2193C7.94814 27.7194 8.62641 28.0003 9.33366 28.0003H13.3337M25.3337 16.0003V9.33366C25.3337 8.62641 25.0527 7.94814 24.5526 7.44804C24.0525 6.94794 23.3742 6.66699 22.667 6.66699H20.0003" stroke="#0076CC" stroke-width="1.5" stroke-linecap="round" stroke-linejoin="round"/>
<path d="M17.333 22.6667V21.3333C17.333 20.9797 17.4735 20.6406 17.7235 20.3905C17.9736 20.1405 18.3127 20 18.6663 20H19.9997M23.9997 20H25.333C25.6866 20 26.0258 20.1405 26.2758 20.3905C26.5259 20.6406 26.6663 20.9797 26.6663 21.3333V22.6667M26.6663 26.6667V28C26.6663 28.3536 26.5259 28.6928 26.2758 28.9428C26.0258 29.1929 25.6866 29.3333 25.333 29.3333H23.9997M19.9997 29.3333H18.6663C18.3127 29.3333 17.9736 29.1929 17.7235 28.9428C17.4735 28.6928 17.333 28.3536 17.333 28V26.6667" stroke="#0076CC" stroke-width="1.5" stroke-linecap="round" stroke-linejoin="round"/>
<path d="M12 6.66667C12 5.95942 12.281 5.28115 12.781 4.78105C13.2811 4.28095 13.9594 4 14.6667 4H17.3333C18.0406 4 18.7189 4.28095 19.219 4.78105C19.719 5.28115 20 5.95942 20 6.66667C20 7.37391 19.719 8.05219 19.219 8.55229C18.7189 9.05238 18.0406 9.33333 17.3333 9.33333H14.6667C13.9594 9.33333 13.2811 9.05238 12.781 8.55229C12.281 8.05219 12 7.37391 12 6.66667Z" stroke="#0076CC" stroke-width="1.5" stroke-linecap="round" stroke-linejoin="round"/>
</g>
<defs>
<clipPath id="clip0_176_144749">
<rect width="32" height="32" fill="white"/>
</clipPath>
</defs>
</svg>
