<svg width="16" height="16" viewBox="0 0 16 16" fill="none" xmlns="http://www.w3.org/2000/svg">
<g clip-path="url(#clip0_134_118911)">
<path d="M5.99967 3.33301H4.66634C4.31272 3.33301 3.97358 3.47348 3.72353 3.72353C3.47348 3.97358 3.33301 4.31272 3.33301 4.66634V12.6663C3.33301 13.02 3.47348 13.3591 3.72353 13.6092C3.97358 13.8592 4.31272 13.9997 4.66634 13.9997H6.66634M12.6663 7.99967V4.66634C12.6663 4.31272 12.5259 3.97358 12.2758 3.72353C12.0258 3.47348 11.6866 3.33301 11.333 3.33301H9.99967" stroke="#0076CC" stroke-linecap="round" stroke-linejoin="round"/>
<path d="M8.66699 11.3333V10.6667C8.66699 10.4899 8.73723 10.3203 8.86225 10.1953C8.98728 10.0702 9.15685 10 9.33366 10H10.0003M12.0003 10H12.667C12.8438 10 13.0134 10.0702 13.1384 10.1953C13.2634 10.3203 13.3337 10.4899 13.3337 10.6667V11.3333M13.3337 13.3333V14C13.3337 14.1768 13.2634 14.3464 13.1384 14.4714C13.0134 14.5964 12.8438 14.6667 12.667 14.6667H12.0003M10.0003 14.6667H9.33366C9.15685 14.6667 8.98728 14.5964 8.86225 14.4714C8.73723 14.3464 8.66699 14.1768 8.66699 14V13.3333" stroke="#0076CC" stroke-linecap="round" stroke-linejoin="round"/>
<path d="M6 3.33333C6 2.97971 6.14048 2.64057 6.39052 2.39052C6.64057 2.14048 6.97971 2 7.33333 2H8.66667C9.02029 2 9.35943 2.14048 9.60948 2.39052C9.85952 2.64057 10 2.97971 10 3.33333C10 3.68696 9.85952 4.02609 9.60948 4.27614C9.35943 4.52619 9.02029 4.66667 8.66667 4.66667H7.33333C6.97971 4.66667 6.64057 4.52619 6.39052 4.27614C6.14048 4.02609 6 3.68696 6 3.33333Z" stroke="#0076CC" stroke-linecap="round" stroke-linejoin="round"/>
</g>
<defs>
<clipPath id="clip0_134_118911">
<rect width="16" height="16" fill="white"/>
</clipPath>
</defs>
</svg>
