<svg width="64" height="64" viewBox="0 0 64 64" fill="none" xmlns="http://www.w3.org/2000/svg">
<g clip-path="url(#clip0_289_150948)">
<path fill-rule="evenodd" clip-rule="evenodd" d="M44.5137 23.374V25.6972H49.6248V46.6063H44.5137C44.5137 46.967 44.4271 47.3232 44.261 47.6454L39.4693 56.9383C39.0622 57.7256 38.234 58.2224 37.3262 58.2224H13.3678C12.7315 58.2224 12.1231 57.9774 11.674 57.5417L2.09065 48.2488C1.64135 47.8133 1.38867 47.2233 1.38867 46.6063V23.374C1.38867 22.7569 1.64135 22.167 2.09065 21.7314L6.88232 17.085C7.33146 16.6493 7.93984 16.4043 8.57617 16.4043H10.972V11.7578H8.57617C7.25191 11.7578 6.18034 10.7187 6.18034 9.43456C6.18034 8.15043 7.25191 7.11133 8.57617 7.11133H32.5345C33.8588 7.11133 34.9303 8.15043 34.9303 9.43456C34.9303 10.7187 33.8588 11.7578 32.5345 11.7578H30.1387V16.4043H32.5345C33.1708 16.4043 33.7792 16.6493 34.2285 17.085L38.3182 21.0507H42.1178C43.4421 21.0507 44.5137 22.0898 44.5137 23.374ZM25.0943 47.6454L29.886 38.3525C30.6846 36.8086 29.5167 34.9901 27.7428 34.9901H22.0363L25.0943 29.0595C25.6862 27.9115 25.2066 26.5162 24.0227 25.9422C22.8389 25.3705 21.3999 25.8357 20.808 26.9813L16.0163 36.2742C15.2177 37.8181 16.3856 39.6366 18.1595 39.6366H23.8661L20.808 45.5672C20.2161 46.7152 20.6957 48.1105 21.8796 48.6845C23.0754 49.2603 24.5056 48.7839 25.0943 47.6454Z" fill="#0076CC"/>
<path d="M59.2082 21.0508H56.8123C55.4892 21.0508 54.4165 22.091 54.4165 23.374V51.2528C54.4165 52.5358 55.4892 53.576 56.8123 53.576H59.2082C61.8546 53.576 63.9998 51.4958 63.9998 48.9296V25.6972C63.9998 23.131 61.8546 21.0508 59.2082 21.0508Z" fill="#0076CC"/>
</g>
<defs>
<clipPath id="clip0_289_150948">
<rect width="64" height="64" fill="white"/>
</clipPath>
</defs>
</svg>
