<svg width="151" height="133" viewBox="0 0 151 133" fill="none" xmlns="http://www.w3.org/2000/svg">
<path d="M109.263 3.65811L115.794 0L122.348 3.6271L115.812 7.28521L109.263 3.65811Z" fill="#3288FF"/>
<path d="M115.814 7.2853L115.832 14.5705L109.283 10.9434L109.264 3.6582L115.814 7.2853Z" fill="#0551BC"/>
<path d="M122.35 3.62793L122.368 10.9131L115.832 14.5712L115.814 7.28603L122.35 3.62793Z" fill="#0A70FF"/>
<path d="M65.5505 5.67346L74.0566 0.908203L82.5947 5.6336L74.0841 10.3989L65.5505 5.67346Z" fill="#3288FF"/>
<path d="M74.0869 10.3973L74.1099 19.8835L65.5763 15.1626L65.5533 5.67188L74.0869 10.3973Z" fill="#0551BC"/>
<path d="M82.5976 5.63281L82.6206 15.1191L74.11 19.8843L74.087 10.3981L82.5976 5.63281Z" fill="#0A70FF"/>
<path d="M60.2568 32.2951L84.7231 18.5928L109.258 32.1755L84.792 45.8735L60.2568 32.2951Z" fill="#3288FF"/>
<path d="M84.7919 45.8723L84.8608 73.153L60.3256 59.5702L60.2567 32.2939L84.7919 45.8723Z" fill="#0551BC"/>
<path d="M109.26 32.1758L109.324 59.4565L84.8625 73.1545L84.7936 45.8737L109.26 32.1758Z" fill="#0A70FF"/>
<path d="M14.2434 83.5599L43.2704 67.3066L72.3755 83.4227L43.3485 99.6715L14.2434 83.5599Z" fill="#3288FF"/>
<path d="M43.3519 99.6702L43.4346 132.035L14.3295 115.923L14.2468 83.5586L43.3519 99.6702Z" fill="#0551BC"/>
<path d="M72.3802 83.4219L72.4629 115.782L43.4359 132.036L43.3532 99.6707L72.3802 83.4219Z" fill="#0A70FF"/>
<path d="M83.8289 61.4298L112.245 45.5176L140.739 61.2926L112.323 77.2048L83.8289 61.4298Z" fill="#3288FF"/>
<path d="M112.324 77.2047L112.402 108.892L83.9081 93.117L83.83 61.4297L112.324 77.2047Z" fill="#004CB7"/>
<path d="M140.739 61.2939L140.817 92.9812L112.401 108.893L112.323 77.2062L140.739 61.2939Z" fill="#0A70FF"/>
<path d="M0.216436 69.1969L4.31787 66.8984L8.43311 69.1792L4.33165 71.4733L0.216436 69.1969Z" fill="#3288FF"/>
<path d="M4.33114 71.4736L4.34033 76.0484L0.22972 73.7721L0.215942 69.1973L4.33114 71.4736Z" fill="#0551BC"/>
<path d="M8.43202 69.1787L8.4458 73.7535L4.33975 76.0476L4.33056 71.4728L8.43202 69.1787Z" fill="#0A70FF"/>
<path d="M46.1029 55.3587L49.4465 53.4854L52.7993 55.341L49.4557 57.2143L46.1029 55.3587Z" fill="#3288FF"/>
<path d="M49.4596 57.213L49.4688 60.942L46.116 59.0864L46.1068 55.3574L49.4596 57.213Z" fill="#0551BC"/>
<path d="M52.8028 55.3418L52.812 59.0708L49.4684 60.9441L49.4592 57.2152L52.8028 55.3418Z" fill="#0A70FF"/>
<path d="M90.2156 110.738L93.4076 108.949L96.6089 110.721L93.4168 112.51L90.2156 110.738Z" fill="#3288FF"/>
<path d="M93.4205 112.51L93.4297 116.066L90.2284 114.295L90.2193 110.738L93.4205 112.51Z" fill="#0551BC"/>
<path d="M96.6129 110.721L96.6221 114.281L93.43 116.066L93.4208 112.51L96.6129 110.721Z" fill="#0A70FF"/>
<path d="M13.2162 54.7356L20.5097 50.6523L27.8262 54.7001L20.5327 58.7834L13.2162 54.7356Z" fill="#3288FF"/>
<path d="M20.5344 58.7832L20.5527 66.9187L13.2409 62.8664L13.2179 54.7354L20.5344 58.7832Z" fill="#0551BC"/>
<path d="M27.8273 54.7002L27.8457 62.8357L20.5522 66.919L20.5339 58.7835L27.8273 54.7002Z" fill="#0A70FF"/>
<path d="M110.771 16.9792L130.828 5.74805L150.94 16.8818L130.883 28.1129L110.771 16.9792Z" fill="#3288FF"/>
<path d="M130.882 28.1122L130.938 50.4816L110.825 39.3434L110.77 16.9785L130.882 28.1122Z" fill="#0551BC"/>
<path d="M150.94 16.8809L151 39.2502L130.938 50.4813L130.883 28.112L150.94 16.8809Z" fill="#0A70FF"/>
</svg>
