<svg width="94" height="94" viewBox="0 0 94 94" fill="none" xmlns="http://www.w3.org/2000/svg">
<path fill-rule="evenodd" clip-rule="evenodd" d="M25.8387 27.8203C26.0378 27.7055 26.4972 27.4464 26.4972 27.4464C22.9048 24.8048 18.5698 22.8637 14.8051 22.9161C10.872 22.9722 7.42385 25.3063 4.90728 28.7685C2.63446 31.8925 1.24601 36.0209 0.493076 40.0548C-1.34586 49.8697 1.81006 59.5633 12.4774 59.5633C21.7729 59.5633 34.9708 53.8155 36.2023 44.3478C36.6069 41.2493 35.027 36.8644 32.1416 33.0002C31.8175 33.6983 31.8137 33.6881 31.515 34.3823C31.27 34.9578 31.0161 35.6393 31.0161 35.6393C31.8966 37.6122 32.3637 39.7026 32.2322 41.7814C31.7881 48.7377 22.4761 54.3362 14.8357 54.5404C5.77889 54.7816 2.40858 47.6517 2.69188 41.1676C3.08366 32.2805 7.27327 24.9554 13.9501 24.0072C17.3574 23.5235 21.6351 25.2744 25.1943 28.2095C25.1943 28.2095 25.6601 27.9237 25.8387 27.8203ZM73.9688 39.7216L72.9976 43.2476C73.4915 43.2234 73.776 43.2247 73.9943 43.2247C74.5711 43.2247 76.6665 43.3357 76.96 43.5042C77.3097 43.7058 77.5088 44.0159 77.4909 44.2979C77.4718 44.5608 77.371 45.0662 77.1681 45.8216L73.3651 59.613H81.3104L85.2423 45.3418C85.4503 44.5876 85.569 44.4536 85.6902 44.192C85.814 43.9291 86.1356 43.6854 86.521 43.5042C86.9025 43.3242 88.9737 43.2247 89.5506 43.2247C89.7688 43.2247 90.2218 43.2272 90.7016 43.2515L91.669 39.7216H73.9688ZM51.1909 39.7216H43.28L39.546 53.1544C39.338 53.9073 39.1644 54.4012 39.0751 54.6769C38.973 54.9921 38.6514 55.32 38.2928 55.5421C38.0261 55.7067 37.2259 55.8586 35.1241 55.916C34.9072 55.9211 34.3916 55.9032 33.9143 55.8764L32.8934 59.613L38.7879 59.6156C40.5758 59.6156 41.9311 59.5058 42.8767 59.3157C43.807 59.1268 44.5715 58.7695 45.2108 58.3011C45.8093 57.8634 46.1769 57.367 46.39 56.7506C46.5916 56.1751 51.1909 39.7216 51.1909 39.7216ZM54.6122 39.7063H62.7247C65.2872 39.7063 67.1925 39.8339 68.4431 40.0879C69.6912 40.3431 70.6152 40.8574 71.2111 41.6333C71.8071 42.4079 71.8658 43.6573 71.3872 45.3801C71.0644 46.5465 70.5526 47.3594 69.8495 47.8201C69.1488 48.277 67.9199 48.6305 66.1627 48.8755C67.9697 49.146 69.1208 49.5952 69.6185 50.2205C70.1149 50.8484 70.1838 51.8055 69.8252 53.0995L69.3135 54.941C68.9408 56.2848 68.424 57.2789 67.763 57.9247C67.1006 58.5704 66.2086 59.0119 65.0881 59.2506C63.9639 59.4879 61.7676 59.6054 58.4981 59.6054H49.0929L54.6122 39.7063ZM61.6093 43.1853L60.3625 47.7054C60.762 47.6965 61.0299 47.6914 61.2494 47.6914C62.1644 47.6914 62.7821 47.5663 63.1126 47.2868C63.4431 47.0086 63.692 46.5964 64.0697 45.2858C64.2701 44.5929 64.2573 44.1296 64.1335 43.8527C64.0072 43.5732 63.7609 43.3742 63.4495 43.3027C63.1394 43.2287 62.5652 43.1942 61.6093 43.1853ZM59.5814 50.4925L58.0679 55.9493C59.3466 55.9238 60.268 55.8191 60.684 55.5997C61.0975 55.375 61.4459 54.8174 61.696 53.9445L62.0406 52.5216C62.306 51.5964 62.2371 51.0259 61.9793 50.832C61.7215 50.6341 60.9163 50.5206 59.5814 50.4925Z" fill="#303E47"/>
<path fill-rule="evenodd" clip-rule="evenodd" d="M60.2547 84.0112C68.1426 84.0112 75.4307 81.4219 81.3393 77.0447L82.9332 71.2892C77.2186 76.4883 69.6574 79.6518 61.3675 79.6518C45.921 79.6518 32.9349 68.6527 29.7445 53.977C28.439 54.9239 27.0033 55.7585 25.4924 56.4769C29.3476 72.2566 43.444 84.0112 60.2547 84.0112ZM27.6937 32.7369C29.7241 31.4186 31.8603 30.427 33.9226 29.8004C33.2718 30.829 32.6745 31.8946 32.1424 33.001V32.9997C31.8246 33.6799 31.8119 33.6927 31.5349 34.3359C31.5337 34.3397 31.5324 34.3435 31.5311 34.3461C31.526 34.3588 31.5209 34.3678 31.5158 34.3818C31.2682 34.9586 31.0155 35.6388 31.0155 35.6388C31.0155 35.6414 31.0168 35.6427 31.0168 35.6439C29.7075 39.1482 28.9877 42.9601 28.9877 46.9685C28.9877 47.4305 29.003 47.8899 29.0222 48.3467C27.7996 49.6178 26.3002 50.7421 24.6539 51.6737C24.5174 50.395 24.4434 49.0997 24.4434 47.7852C24.4434 42.4126 25.6123 37.3182 27.6937 32.7369ZM60.2241 11.6611C49.0973 11.6611 39.1689 16.7772 32.6094 24.8042C34.3297 24.2529 35.7743 23.9403 36.7454 23.7833C37.5379 23.657 38.3317 23.5766 39.1216 23.5383C44.9179 18.1389 52.7318 14.8719 61.3216 14.8719C75.8978 14.8719 88.2496 24.281 92.2657 37.5772L93.2904 33.8815C87.8923 20.8303 75.1206 11.6611 60.2241 11.6611Z" fill="#B2B4B6"/>
<path fill-rule="evenodd" clip-rule="evenodd" d="M18.1392 58.9445C16.8669 59.201 16.5019 59.2406 16.5019 59.2406C19.7471 62.8929 24.6003 65.5141 29.6156 66.5338C29.6156 66.5338 29.1345 65.7234 28.7338 64.9615C28.3305 64.201 27.9898 63.4952 27.9898 63.4952C25.1083 62.302 22.6376 60.4771 20.8025 58.2694C20.8012 58.2669 19.5098 58.6676 18.1392 58.9445ZM54.2317 38.5363C51.9844 32.2998 46.0298 27.319 35.8462 29.3174C28.8324 30.6931 20.2044 36.7306 17.7695 45.7262C16.9923 48.5988 17.2475 51.4791 18.2978 54.1041C18.2978 54.1041 17.296 54.3504 15.9561 54.4704C14.4451 54.6107 13.4918 54.5176 13.4918 54.5176C11.5725 50.0089 11.746 45.0039 13.6526 41.0082C19.916 27.8869 32.6073 24.454 36.7471 23.784C44.21 22.5742 51.8682 25.4788 54.9476 30.6995C56.5045 33.3386 57.3723 36.007 57.7985 38.5363H54.2317ZM47.7894 60.7491C43.8257 63.9522 38.8743 65.2679 34.3605 64.9769C34.8684 65.7286 34.8888 65.7516 35.0611 66.003C35.2857 66.3322 35.8243 67.0328 35.8243 67.0328C41.7367 66.8108 46.7532 64.5303 50.5944 60.7491H47.7894Z" fill="#198BCB"/>
</svg>
