<svg width="32" height="33" viewBox="0 0 32 33" fill="none" xmlns="http://www.w3.org/2000/svg">
<path fill-rule="evenodd" clip-rule="evenodd" d="M8.86307 10.5215C8.93136 10.4821 9.08895 10.3933 9.08895 10.3933C7.85671 9.48717 6.36971 8.82137 5.07838 8.83931C3.72927 8.85857 2.54649 9.6592 1.68327 10.8468C0.903659 11.9184 0.427399 13.3345 0.169133 14.7182C-0.46165 18.0848 0.620879 21.4099 4.27994 21.4099C7.46843 21.4099 11.9955 19.4383 12.418 16.1907C12.5567 15.1279 12.0148 13.6238 11.0251 12.2983C10.9139 12.5378 10.9126 12.5343 10.8101 12.7724C10.7261 12.9698 10.639 13.2036 10.639 13.2036C10.941 13.8803 11.1012 14.5973 11.0561 15.3104C10.9038 17.6965 7.70963 19.6169 5.08888 19.6869C1.98225 19.7697 0.826179 17.324 0.923357 15.0999C1.05774 12.0514 2.49484 9.53882 4.78509 9.21358C5.95386 9.04768 7.42116 9.64826 8.64201 10.6551C8.64201 10.6551 8.80179 10.557 8.86307 10.5215ZM25.3724 14.6039L25.0393 15.8134C25.2087 15.8051 25.3063 15.8055 25.3812 15.8055C25.579 15.8055 26.2978 15.8436 26.3985 15.9014C26.5184 15.9705 26.5867 16.0769 26.5806 16.1736C26.574 16.2638 26.5394 16.4372 26.4698 16.6963L25.1654 21.4269H27.8907L29.2394 16.5317C29.3107 16.273 29.3515 16.227 29.393 16.1373C29.4355 16.0471 29.5458 15.9635 29.678 15.9014C29.8089 15.8396 30.5193 15.8055 30.7172 15.8055C30.7921 15.8055 30.9475 15.8064 31.112 15.8147L31.4439 14.6039H25.3724ZM17.5592 14.6039H14.8457L13.5648 19.2115C13.4935 19.4698 13.4339 19.6392 13.4033 19.7338C13.3683 19.8419 13.258 19.9544 13.135 20.0306C13.0435 20.087 12.769 20.1391 12.0481 20.1588C11.9736 20.1606 11.7968 20.1544 11.6331 20.1452L11.2829 21.4269L13.3048 21.4278C13.9181 21.4278 14.383 21.3902 14.7073 21.325C15.0264 21.2602 15.2886 21.1376 15.508 20.9769C15.7133 20.8268 15.8393 20.6565 15.9124 20.4451C15.9816 20.2477 17.5592 14.6039 17.5592 14.6039ZM18.7328 14.5986H21.5155C22.3945 14.5986 23.048 14.6424 23.477 14.7295C23.9051 14.8171 24.222 14.9935 24.4265 15.2596C24.6309 15.5253 24.651 15.9539 24.4869 16.5448C24.3761 16.9449 24.2006 17.2238 23.9594 17.3818C23.7191 17.5385 23.2975 17.6598 22.6948 17.7438C23.3146 17.8366 23.7094 17.9907 23.8802 18.2052C24.0504 18.4206 24.0741 18.7489 23.9511 19.1927L23.7755 19.8244C23.6477 20.2853 23.4704 20.6263 23.2437 20.8478C23.0165 21.0693 22.7105 21.2208 22.3262 21.3026C21.9405 21.384 21.1872 21.4243 20.0657 21.4243H16.8396L18.7328 14.5986ZM21.1329 15.7919L20.7052 17.3424C20.8422 17.3393 20.9342 17.3376 21.0095 17.3376C21.3233 17.3376 21.5352 17.2947 21.6486 17.1988C21.7619 17.1034 21.8473 16.962 21.9769 16.5124C22.0456 16.2748 22.0412 16.1159 21.9988 16.0209C21.9554 15.925 21.8709 15.8567 21.7641 15.8322C21.6578 15.8068 21.4608 15.795 21.1329 15.7919ZM20.4373 18.2984L19.9182 20.1702C20.3568 20.1614 20.6728 20.1255 20.8155 20.0503C20.9574 19.9732 21.0769 19.7819 21.1627 19.4825L21.2809 18.9944C21.3719 18.6771 21.3483 18.4814 21.2598 18.4149C21.1714 18.347 20.8952 18.3081 20.4373 18.2984Z" fill="white"/>
<path fill-rule="evenodd" clip-rule="evenodd" d="M20.6684 29.7959C23.374 29.7959 25.874 28.9078 27.9007 27.4063L28.4474 25.4321C26.4872 27.2155 23.8936 28.3006 21.0501 28.3006C15.7517 28.3006 11.2972 24.5278 10.2029 19.4938C9.75508 19.8186 9.26263 20.1048 8.74434 20.3513C10.0668 25.7639 14.902 29.7959 20.6684 29.7959ZM9.49944 12.208C10.1959 11.7558 10.9287 11.4157 11.636 11.2008C11.4128 11.5536 11.2079 11.9191 11.0254 12.2986V12.2982C10.9164 12.5315 10.912 12.5359 10.817 12.7565C10.8166 12.7578 10.8162 12.7591 10.8157 12.76C10.814 12.7644 10.8122 12.7675 10.8105 12.7723C10.7256 12.9701 10.6389 13.2034 10.6389 13.2034C10.6389 13.2043 10.6393 13.2048 10.6393 13.2052C10.1902 14.4072 9.94331 15.7148 9.94331 17.0897C9.94331 17.2482 9.94856 17.4057 9.95513 17.5625C9.53578 17.9984 9.02143 18.3841 8.45675 18.7036C8.40991 18.265 8.38452 17.8207 8.38452 17.3698C8.38452 15.527 8.78549 13.7795 9.49944 12.208ZM20.6579 4.97876C16.8412 4.97876 13.4356 6.73366 11.1856 9.48704C11.7757 9.29793 12.2712 9.19069 12.6043 9.13685C12.8762 9.09351 13.1484 9.06593 13.4194 9.0528C15.4076 7.20072 18.0879 6.08011 21.0343 6.08011C26.0342 6.08011 30.271 9.30756 31.6486 13.8684L32.0001 12.6007C30.1485 8.12392 25.7676 4.97876 20.6579 4.97876Z" fill="white"/>
<path fill-rule="evenodd" clip-rule="evenodd" d="M6.22209 21.1976C5.78566 21.2856 5.66047 21.2992 5.66047 21.2992C6.77364 22.552 8.43836 23.4511 10.1587 23.8009C10.1587 23.8009 9.99365 23.5229 9.8562 23.2616C9.71787 23.0007 9.601 22.7586 9.601 22.7586C8.61258 22.3493 7.76512 21.7234 7.13565 20.9661C7.13521 20.9652 6.69222 21.1026 6.22209 21.1976ZM18.6022 14.1973C17.8314 12.0581 15.7889 10.3496 12.2957 11.0351C9.88991 11.507 6.93035 13.5779 6.09514 16.6635C5.82856 17.6489 5.91611 18.6369 6.27637 19.5373C6.27637 19.5373 5.93274 19.6218 5.47312 19.6629C4.95483 19.7111 4.62784 19.6791 4.62784 19.6791C3.96948 18.1326 4.02902 16.4158 4.683 15.0452C6.83142 10.5444 11.1847 9.36685 12.6048 9.13703C15.1647 8.72206 17.7915 9.71835 18.8478 11.5091C19.3818 12.4144 19.6795 13.3297 19.8257 14.1973H18.6022ZM16.3925 21.8166C15.0329 22.9153 13.3345 23.3666 11.7862 23.2668C11.9604 23.5246 11.9674 23.5325 12.0265 23.6188C12.1036 23.7317 12.2883 23.972 12.2883 23.972C14.3163 23.8959 16.0371 23.1136 17.3547 21.8166H16.3925Z" fill="white"/>
</svg>
