<svg width="65" height="64" viewBox="0 0 65 64" fill="none" xmlns="http://www.w3.org/2000/svg">
<path fill-rule="evenodd" clip-rule="evenodd" d="M48.5036 34.8216L63.1403 49.4577C64.9527 51.27 64.9527 54.2197 63.1403 56.0445L56.5531 62.6314C54.7407 64.4562 51.7909 64.4562 49.966 62.6314L35.3293 47.9953C32.442 45.1081 31.892 40.796 33.5919 37.3214L20.2676 23.9977H12.5056L0.506247 7.99922L8.5058 0L24.5049 11.9988V19.7606L37.8292 33.0843C41.304 31.3719 45.6162 31.9344 48.5036 34.8216ZM51.3284 31.9969C48.8286 29.4971 45.5037 28.1223 41.9664 28.1223C40.9415 28.1223 39.8916 28.2472 38.8791 28.4847L28.6172 18.2232C28.5297 13.5362 30.2046 8.83663 33.7669 5.27448C38.3916 0.649933 44.9163 -0.924913 50.8409 0.537445C51.9784 0.824916 52.3784 2.23728 51.5534 3.0622L42.2539 12.3613L43.6663 20.848L52.1534 22.2603L61.4529 12.9612C62.2778 12.1363 63.6902 12.5238 63.9652 13.6487C65.4401 19.5731 63.8652 26.0974 59.228 30.7345C57.6031 32.3593 55.7282 33.5592 53.7533 34.4216L51.3284 31.9969ZM28.9797 38.3713L21.8926 31.2844L2.84362 50.3451C-0.281206 53.4698 -0.281206 58.5318 2.84362 61.6565C5.96845 64.7812 11.0307 64.7812 14.1555 61.6565L29.6046 46.208C28.6547 43.7207 28.3672 41.0085 28.9797 38.3713ZM5.50597 55.9945C5.50597 57.6444 6.8559 58.9942 8.50581 58.9942C10.1682 58.9942 11.5056 57.6444 11.5056 55.9945C11.5056 54.3322 10.1682 52.9948 8.50581 52.9948C6.8434 52.9948 5.50597 54.3322 5.50597 55.9945Z" fill="#0076CC"/>
<mask id="mask0_289_150890" style="mask-type:luminance" maskUnits="userSpaceOnUse" x="0" y="0" width="65" height="64">
<path fill-rule="evenodd" clip-rule="evenodd" d="M48.5036 34.8216L63.1403 49.4577C64.9527 51.27 64.9527 54.2197 63.1403 56.0445L56.5531 62.6314C54.7407 64.4562 51.7909 64.4562 49.966 62.6314L35.3293 47.9953C32.442 45.1081 31.892 40.796 33.5919 37.3214L20.2676 23.9977H12.5056L0.506247 7.99922L8.5058 0L24.5049 11.9988V19.7606L37.8292 33.0843C41.304 31.3719 45.6162 31.9344 48.5036 34.8216ZM51.3284 31.9969C48.8286 29.4971 45.5037 28.1223 41.9664 28.1223C40.9415 28.1223 39.8916 28.2472 38.8791 28.4847L28.6172 18.2232C28.5297 13.5362 30.2046 8.83663 33.7669 5.27448C38.3916 0.649933 44.9163 -0.924913 50.8409 0.537445C51.9784 0.824916 52.3784 2.23728 51.5534 3.0622L42.2539 12.3613L43.6663 20.848L52.1534 22.2603L61.4529 12.9612C62.2778 12.1363 63.6902 12.5238 63.9652 13.6487C65.4401 19.5731 63.8652 26.0974 59.228 30.7345C57.6031 32.3593 55.7282 33.5592 53.7533 34.4216L51.3284 31.9969ZM28.9797 38.3713L21.8926 31.2844L2.84362 50.3451C-0.281206 53.4698 -0.281206 58.5318 2.84362 61.6565C5.96845 64.7812 11.0307 64.7812 14.1555 61.6565L29.6046 46.208C28.6547 43.7207 28.3672 41.0085 28.9797 38.3713ZM5.50597 55.9945C5.50597 57.6444 6.8559 58.9942 8.50581 58.9942C10.1682 58.9942 11.5056 57.6444 11.5056 55.9945C11.5056 54.3322 10.1682 52.9948 8.50581 52.9948C6.8434 52.9948 5.50597 54.3322 5.50597 55.9945Z" fill="white"/>
</mask>
<g mask="url(#mask0_289_150890)">
<rect x="0.5" width="64" height="64" fill="#0076CC"/>
</g>
</svg>
