<svg width="25" height="24" viewBox="0 0 25 24" fill="none" xmlns="http://www.w3.org/2000/svg">
<path fill-rule="evenodd" clip-rule="evenodd" d="M18.576 3.06092C18.4445 3.29613 18.1447 3.37632 17.9132 3.24267C17.6817 3.10903 17.6028 2.80432 17.7343 2.5691C17.8658 2.33389 18.1657 2.2537 18.3972 2.38735C18.6339 2.52634 18.7128 2.8257 18.576 3.06092C18.5813 3.06092 18.5813 3.06092 18.576 3.06092ZM23.0108 7.56741C22.8792 7.80262 22.5794 7.88281 22.3479 7.74917C22.1165 7.61552 22.0375 7.31081 22.1691 7.0756C22.3006 6.84038 22.6004 6.7602 22.8319 6.89384C23.0634 7.02749 23.1423 7.32685 23.0108 7.56741C23.0108 7.56206 23.0108 7.56206 23.0108 7.56741ZM6.29765 2.38735C6.52912 2.52099 6.60803 2.8257 6.47651 3.06092C6.34499 3.29613 6.04514 3.37632 5.81367 3.24267C5.5822 3.10903 5.50329 2.80432 5.6348 2.5691C5.76632 2.33389 6.06618 2.2537 6.29765 2.38735ZM2.04177 7.56741C1.91026 7.80262 1.6104 7.88281 1.37893 7.74917C1.14746 7.61552 1.06855 7.31081 1.20007 7.0756C1.33158 6.84038 1.63144 6.7602 1.86291 6.89384C2.09438 7.02749 2.17329 7.32685 2.04177 7.56741C2.04177 7.56206 2.04177 7.56206 2.04177 7.56741ZM9.76968 2.99677C10.0012 3.13041 10.0801 3.43512 9.94855 3.67034C9.81703 3.90555 9.51717 3.98574 9.2857 3.85209C9.05423 3.71845 8.97532 3.41374 9.10684 3.17852C9.23836 2.94331 9.53295 2.86312 9.76968 2.99677ZM10.906 6.57309C10.4536 6.65328 10.0064 6.77623 9.5803 6.9473C9.49613 6.85642 9.39618 6.78158 9.29096 6.72278L9.66973 4.57377C9.74338 4.56308 9.81177 4.54704 9.88542 4.52566L11.0691 6.18285C10.9902 6.30046 10.9375 6.4341 10.906 6.57309ZM12.5263 1.41442C12.3948 1.64963 12.0949 1.72982 11.8634 1.59617C11.632 1.46253 11.553 1.15782 11.6846 0.922604C11.8161 0.68739 12.1159 0.607203 12.3474 0.740848C12.5789 0.879838 12.6578 1.1792 12.5263 1.41442ZM12.0212 5.65897C11.8792 5.65897 11.7319 5.68569 11.6004 5.73915L10.443 4.11404C10.685 3.7826 10.7324 3.34959 10.5746 2.97004L11.5057 2.15748C11.8792 2.39269 12.3527 2.38735 12.7209 2.14679L13.7573 3.0235C13.631 3.3389 13.6468 3.69172 13.7993 3.99643L12.1528 5.66431L12.0212 5.65897ZM12.4421 7.06491C12.3106 7.30012 12.0107 7.38031 11.7793 7.24666C11.5478 7.11302 11.4689 6.80831 11.6004 6.57309C11.7319 6.33788 12.0318 6.25769 12.2632 6.39134C12.5 6.53033 12.5789 6.82969 12.4421 7.06491ZM18.2393 6.22027L16.214 6.96334C16.0404 6.73881 15.7931 6.58379 15.5196 6.53033L15.2829 4.52031C15.6458 4.3546 15.8984 4.00712 15.9457 3.60084L17.1557 3.37097C17.3556 3.74518 17.7396 3.98039 18.1604 3.98039H18.213L18.676 5.26338C18.3972 5.48256 18.2341 5.81934 18.2341 6.17751L18.2393 6.22027ZM16.94 8.48688C16.7716 8.31582 16.5875 8.15545 16.4034 8.00042C16.4349 7.8935 16.4507 7.78124 16.4507 7.66898V7.62087L18.4761 6.8778C18.5129 6.93126 18.555 6.97937 18.6023 7.02214L17.7185 8.9092C17.6028 8.9092 17.4923 8.93058 17.3819 8.968C17.2398 8.80229 17.0925 8.64191 16.94 8.48688ZM15.2355 3.70776C15.104 3.94297 14.8041 4.02316 14.5727 3.88417C14.3412 3.75052 14.2623 3.44581 14.3991 3.2106C14.5306 2.97538 14.8304 2.8952 15.0619 3.02884C15.2881 3.16783 15.367 3.47254 15.2355 3.70776ZM14.4622 6.8885C14.0308 6.72812 13.5837 6.61052 13.1312 6.54102C13.0786 6.32719 12.9682 6.13474 12.8156 5.98506L14.2886 4.48824C14.3885 4.53635 14.4938 4.57377 14.599 4.59516L14.8304 6.61052C14.6937 6.67466 14.5674 6.77089 14.4622 6.8885ZM15.7248 7.91489C15.5932 8.1501 15.2934 8.23029 15.0619 8.09664C14.8304 7.963 14.7515 7.65829 14.883 7.42307C15.0146 7.18786 15.3144 7.10767 15.5459 7.24132C15.7826 7.37496 15.8615 7.67432 15.7248 7.91489ZM19.7965 6.42341C19.665 6.65863 19.3651 6.73881 19.1337 6.60517C18.9022 6.47152 18.8233 6.16682 18.9548 5.9316C19.0863 5.69639 19.3862 5.6162 19.6176 5.74984C19.8491 5.88883 19.928 6.1882 19.7965 6.42341ZM20.9959 10.2724L18.8443 9.80729C18.7812 9.52397 18.6129 9.27806 18.3814 9.11234L19.2231 7.3215C19.2757 7.32685 19.3283 7.3322 19.3809 7.3322C19.7386 7.3322 20.0806 7.16113 20.2963 6.86711L21.4589 7.27874V7.31081C21.4589 7.74382 21.6956 8.13941 22.0691 8.34255L21.8376 9.69503C21.4852 9.74849 21.1748 9.95697 20.9959 10.2724ZM22.4111 11.0956C22.2795 11.3308 21.9797 11.411 21.7482 11.272C21.5167 11.1384 21.4378 10.8337 21.5746 10.5985C21.7061 10.3633 22.006 10.2831 22.2374 10.4167C22.4637 10.5557 22.5426 10.8551 22.4111 11.0956C22.4111 11.0903 22.4111 11.0903 22.4111 11.0956ZM18.1552 10.3151C18.0237 10.5504 17.7238 10.6305 17.4923 10.4969C17.2609 10.3633 17.182 10.0585 17.3135 9.82333C17.445 9.58811 17.7448 9.50793 17.9763 9.64157C18.2078 9.78056 18.2867 10.0799 18.1552 10.3151ZM7.89689 6.99541L6.06618 6.19889L6.07144 6.08663C6.07144 5.72312 5.9031 5.37564 5.61376 5.16181L6.01883 3.98039H6.05566C6.48177 3.98039 6.87106 3.73983 7.07096 3.35493L8.40191 3.59015C8.45452 3.95901 8.67547 4.2851 9.00163 4.46151L8.62286 6.61052C8.33878 6.63724 8.08101 6.77623 7.89689 6.99541ZM5.17187 5.65897C5.40334 5.79796 5.48224 6.09732 5.34547 6.33253C5.20869 6.56775 4.91409 6.64794 4.68262 6.50894C4.45116 6.36996 4.37225 6.07059 4.50902 5.83538C4.6458 5.60016 4.9404 5.51998 5.17187 5.65897ZM6.3976 9.05888H6.35025L5.61902 7.00076C5.68215 6.95264 5.74002 6.89919 5.79262 6.83504L7.62859 7.63156L7.62333 7.74382C7.62333 7.86143 7.63912 7.98438 7.67594 8.09664C7.51812 8.23029 7.36556 8.37462 7.22352 8.5243C7.04466 8.70606 6.88158 8.89851 6.72376 9.0963C6.61855 9.07492 6.50807 9.05888 6.3976 9.05888ZM6.15561 10.6466C5.92414 10.5129 5.84523 10.2082 5.97675 9.97301C6.10826 9.7378 6.40812 9.65761 6.63959 9.79125C6.87106 9.9249 6.94997 10.2296 6.81845 10.4648C6.68168 10.7 6.38708 10.7802 6.15561 10.6466ZM2.49945 10.2938C2.73092 10.4274 2.80983 10.7321 2.67831 10.9673C2.5468 11.2025 2.24694 11.2827 2.01547 11.1491C1.784 11.0154 1.70509 10.7107 1.83661 10.4755C1.97338 10.2403 2.26798 10.1601 2.49945 10.2938ZM8.52291 8.18217C8.29144 8.04853 8.21253 7.74382 8.34404 7.50861C8.47556 7.27339 8.77542 7.1932 9.00689 7.32685C9.23836 7.46049 9.31727 7.7652 9.18575 8.00042C9.04897 8.23563 8.75438 8.31582 8.52291 8.18217C8.52291 8.17683 8.51765 8.17683 8.52291 8.18217ZM5.27708 10.0051L3.29907 10.2456C3.13599 9.87679 2.78879 9.62019 2.39424 9.57208L2.16803 8.34255C2.53628 8.13941 2.76774 7.74917 2.76774 7.3215V7.26805L4.03556 6.79762C4.25125 7.08094 4.58267 7.24666 4.93514 7.24666H4.98248L5.71371 9.29944C5.48224 9.47051 5.32969 9.72176 5.27708 10.0051ZM23.1318 10.8444C23.1318 10.4114 22.895 10.0158 22.5163 9.81264L22.7477 8.4655C23.3738 8.37997 23.8104 7.79193 23.7262 7.16113C23.642 6.52498 23.0634 6.08128 22.4426 6.16681C22.1375 6.20958 21.8692 6.36995 21.6851 6.62121L20.5172 6.20958V6.17216C20.5172 5.53067 20.0069 5.01213 19.3757 5.01213H19.323L18.8548 3.72379C19.3546 3.33355 19.444 2.60118 19.0548 2.09868C18.6707 1.59083 17.95 1.49995 17.4555 1.89554C17.2135 2.08798 17.061 2.36597 17.0241 2.67067L15.8142 2.90054C15.5143 2.33389 14.8252 2.12541 14.2676 2.43011C14.2412 2.44615 14.2149 2.45684 14.1939 2.47288L13.1575 1.60152C13.3995 1.00814 13.1207 0.329223 12.5368 0.0886627C11.9529 -0.157243 11.2848 0.126083 11.048 0.719465C10.9323 1.00814 10.9323 1.32888 11.0533 1.61756L10.1221 2.43546C9.58556 2.09868 8.88063 2.26974 8.54921 2.81501C8.53343 2.84174 8.52291 2.86312 8.50712 2.88985L7.18144 2.65464C7.09727 2.02384 6.52386 1.58014 5.89784 1.66567C5.27182 1.7512 4.84044 2.33924 4.92461 2.97004C4.9667 3.28009 5.12452 3.55807 5.37177 3.73983L4.9667 4.92125H4.92988C4.2986 4.92125 3.78831 5.43979 3.78831 6.08128V6.13474L2.52575 6.60517C2.14173 6.09732 1.42102 6.00644 0.926513 6.40203C0.42675 6.79227 0.337319 7.52464 0.726608 8.02715C0.915992 8.27305 1.18955 8.42808 1.4894 8.4655L1.72087 9.69503C1.1685 9.99974 0.963338 10.7054 1.2632 11.2667C1.4631 11.6355 1.84187 11.8708 2.25746 11.8708C2.79931 11.8601 3.26225 11.4698 3.37798 10.9299L5.35599 10.6893C5.51381 11.0368 5.88732 11.3415 6.26608 11.3629C6.95523 11.4003 7.5339 10.9353 7.5339 10.2082C7.5339 9.94628 7.44973 9.69503 7.29191 9.49189C7.42343 9.32617 7.56547 9.1658 7.71277 9.01612C7.8285 8.89851 7.94949 8.7809 8.07575 8.67399C8.58077 9.05888 9.29622 8.95731 9.67499 8.44412C9.82229 8.24098 9.90646 8.00042 9.90646 7.74917C9.90646 7.69036 9.9012 7.63156 9.89594 7.57276C10.2484 7.43911 10.6114 7.3322 10.9796 7.2627C11.2269 7.85074 11.895 8.12872 12.4737 7.87746C12.7577 7.75451 12.9787 7.52464 13.0892 7.23597C13.4627 7.29478 13.8257 7.391 14.1781 7.5193L14.1729 7.65829C14.1729 8.29978 14.6831 8.81832 15.3144 8.81832C15.5669 8.81832 15.8142 8.73279 16.0141 8.57242C16.1666 8.70072 16.3192 8.83436 16.4612 8.9787C16.5875 9.10699 16.7085 9.23529 16.8242 9.37428C16.4507 9.88748 16.5559 10.6145 17.061 10.9941C17.2556 11.1437 17.4976 11.2239 17.7396 11.2239C18.1973 11.2186 18.6129 10.9353 18.7917 10.5076L20.8592 10.9566C20.917 11.3896 21.1906 11.7585 21.5904 11.9296C22.3479 12.1862 23.1318 11.6676 23.1318 10.8444Z" fill="#C2C2C6"/>
<path fill-rule="evenodd" clip-rule="evenodd" d="M24.2096 14.0306V12.6995H18.3071C18.244 16.1796 15.4137 18.9487 11.989 18.8845C8.65378 18.8204 5.96033 16.0887 5.90246 12.6995H0V14.0306C1.18891 14.2444 1.88858 14.068 2.23052 15.3724C2.58298 16.7088 1.9254 16.8799 0.967961 17.6924L1.62554 18.8471L2.27787 20.0018C3.48782 19.5528 3.94549 19.0823 4.87663 20.0285C5.83407 21.0015 5.33957 21.5093 4.91872 22.68L6.05502 23.3483L7.19132 24.0165C7.9699 23.0703 8.16454 22.3753 9.4534 22.7281C10.7633 23.0863 10.5844 23.7492 10.8001 25.0001H13.4252C13.6356 23.7652 13.4568 23.0863 14.7614 22.7281C16.0661 22.37 16.2397 23.0542 17.0288 24.0165L18.1651 23.3483L19.3014 22.68C18.8805 21.504 18.386 21.0015 19.3434 20.0285C20.2851 19.0716 20.8112 19.5795 21.9422 20.0018L22.5998 18.8471L23.2574 17.6924C22.2999 16.8745 21.6424 16.7035 21.9948 15.3724C22.321 14.068 23.0206 14.2444 24.2096 14.0306Z" fill="#0A70FF"/>
<path d="M11.9855 15.7397C13.6387 15.7397 14.9788 14.3779 14.9788 12.698C14.9788 11.0181 13.6387 9.65625 11.9855 9.65625C10.3323 9.65625 8.99219 11.0181 8.99219 12.698C8.99219 14.3779 10.3323 15.7397 11.9855 15.7397Z" fill="#B1B3B5"/>
</svg>
