<svg width="64" height="64" viewBox="0 0 64 64" fill="none" xmlns="http://www.w3.org/2000/svg">
<path fill-rule="evenodd" clip-rule="evenodd" d="M48.0568 12.0128C47.7555 12.5517 47.0685 12.7354 46.5382 12.4292C46.0079 12.123 45.8271 11.4249 46.1284 10.886C46.4297 10.3471 47.1167 10.1634 47.647 10.4696C48.1894 10.788 48.3702 11.4739 48.0568 12.0128C48.0688 12.0128 48.0688 12.0128 48.0568 12.0128ZM58.2171 22.3375C57.9158 22.8764 57.2288 23.0601 56.6985 22.7539C56.1682 22.4477 55.9874 21.7496 56.2887 21.2107C56.59 20.6718 57.277 20.4881 57.8073 20.7943C58.3376 21.1005 58.5184 21.7864 58.2171 22.3375C58.2171 22.3253 58.2171 22.3253 58.2171 22.3375ZM19.9261 10.4696C20.4564 10.7758 20.6372 11.4739 20.3359 12.0128C20.0345 12.5517 19.3476 12.7354 18.8172 12.4292C18.2869 12.123 18.1061 11.4249 18.4075 10.886C18.7088 10.3471 19.3958 10.1634 19.9261 10.4696ZM10.1755 22.3375C9.87423 22.8764 9.18723 23.0601 8.65692 22.7539C8.1266 22.4477 7.94581 21.7496 8.24713 21.2107C8.54844 20.6718 9.23544 20.4881 9.76575 20.7943C10.2961 21.1005 10.4769 21.7864 10.1755 22.3375C10.1755 22.3253 10.1755 22.3253 10.1755 22.3375ZM27.8808 11.8658C28.4111 12.172 28.5919 12.8701 28.2906 13.409C27.9893 13.9479 27.3023 14.1316 26.7719 13.8254C26.2416 13.5192 26.0608 12.8211 26.3622 12.2822C26.6635 11.7433 27.3384 11.5596 27.8808 11.8658C27.8808 11.8658 27.8687 11.8658 27.8808 11.8658ZM30.4841 20.0595C29.4476 20.2432 28.4231 20.5249 27.4469 20.9168C27.254 20.7086 27.025 20.5371 26.784 20.4024L27.6518 15.4789C27.8205 15.4544 27.9772 15.4176 28.1459 15.3686L30.8578 19.1654C30.677 19.4348 30.5564 19.741 30.4841 20.0595ZM34.1963 8.24054C33.895 8.77943 33.208 8.96314 32.6777 8.65695C32.1474 8.35076 31.9666 7.65265 32.2679 7.11376C32.5692 6.57486 33.2562 6.39115 33.7865 6.69734C34.3169 7.01578 34.4976 7.70164 34.1963 8.24054ZM33.0393 17.9651C32.7139 17.9651 32.3764 18.0264 32.0751 18.1488L29.4235 14.4256C29.9779 13.6662 30.0864 12.6742 29.7248 11.8046L31.8581 9.94295C32.7139 10.4818 33.7986 10.4696 34.6423 9.91846L37.0166 11.9271C36.7274 12.6497 36.7635 13.458 37.1131 14.1561L33.3406 17.9774L33.0393 17.9651ZM34.0035 21.1862C33.7022 21.7251 33.0152 21.9088 32.4849 21.6027C31.9545 21.2965 31.7738 20.5984 32.0751 20.0595C32.3764 19.5206 33.0634 19.3369 33.5937 19.643C34.1361 19.9615 34.3169 20.6473 34.0035 21.1862ZM47.2854 19.2511L42.6452 20.9535C42.2475 20.4391 41.681 20.084 41.0542 19.9615L40.5119 15.3564C41.3435 14.9767 41.922 14.1806 42.0305 13.2498L44.8026 12.7232C45.2606 13.5805 46.1404 14.1194 47.1046 14.1194H47.2252L48.2858 17.0588C47.647 17.561 47.2734 18.3326 47.2734 19.1531L47.2854 19.2511ZM44.3084 24.4441C43.9228 24.0522 43.5009 23.6848 43.0791 23.3296C43.1514 23.0846 43.1876 22.8274 43.1876 22.5702V22.46L47.8278 20.7576C47.9122 20.8801 48.0086 20.9903 48.1171 21.0883L46.0922 25.4117C45.8271 25.4117 45.574 25.4607 45.3209 25.5464C44.9954 25.1667 44.658 24.7993 44.3084 24.4441ZM40.4034 13.4948C40.1021 14.0336 39.4151 14.2174 38.8848 13.8989C38.3545 13.5927 38.1737 12.8946 38.487 12.3557C38.7884 11.8168 39.4754 11.6331 40.0057 11.9393C40.5239 12.2577 40.7047 12.9559 40.4034 13.4948ZM38.6317 20.7821C37.6434 20.4146 36.6189 20.1452 35.5824 19.986C35.4618 19.4961 35.2087 19.0552 34.8592 18.7122L38.2339 15.2829C38.4629 15.3931 38.704 15.4789 38.945 15.5279L39.4754 20.1452C39.162 20.2922 38.8727 20.5126 38.6317 20.7821ZM41.5243 23.1336C41.223 23.6725 40.536 23.8562 40.0057 23.55C39.4754 23.2438 39.2946 22.5457 39.5959 22.0068C39.8972 21.4679 40.5842 21.2842 41.1145 21.5904C41.6569 21.8966 41.8377 22.5825 41.5243 23.1336C41.5243 23.1336 41.5243 23.1214 41.5243 23.1336ZM50.853 19.7165C50.5517 20.2554 49.8647 20.4391 49.3344 20.1329C48.8041 19.8268 48.6233 19.1286 48.9246 18.5898C49.2259 18.0509 49.9129 17.8671 50.4432 18.1733C50.9735 18.4918 51.1543 19.1776 50.853 19.7165ZM53.601 28.5348L48.6715 27.4693C48.5268 26.8201 48.1412 26.2567 47.6108 25.8771L49.5393 21.7741C49.6598 21.7864 49.7803 21.7986 49.9008 21.7986C50.7204 21.7986 51.5038 21.4067 51.998 20.7331L54.6616 21.6761V21.7496C54.6616 22.7417 55.204 23.648 56.0597 24.1134L55.5294 27.2121C54.7219 27.3345 54.0108 27.8122 53.601 28.5348ZM56.8431 30.4209C56.5418 30.9598 55.8548 31.1435 55.3245 30.8251C54.7942 30.5189 54.6134 29.8208 54.9268 29.2819C55.2281 28.743 55.9151 28.5593 56.4454 28.8655C56.9636 29.1839 57.1444 29.8698 56.8431 30.4209C56.8431 30.4087 56.8431 30.4087 56.8431 30.4209ZM47.0926 28.6328C46.7913 29.1717 46.1043 29.3554 45.574 29.0492C45.0437 28.743 44.8629 28.0449 45.1642 27.506C45.4655 26.9671 46.1525 26.7834 46.6828 27.0896C47.2131 27.408 47.3939 28.0939 47.0926 28.6328ZM23.5901 21.027L19.3958 19.2021L19.4078 18.9449C19.4078 18.1121 19.0221 17.316 18.3592 16.8261L19.2873 14.1194H19.3717C20.3479 14.1194 21.2398 13.5682 21.6978 12.6864L24.7471 13.2253C24.8676 14.0704 25.3738 14.8175 26.1211 15.2217L25.2533 20.1452C24.6025 20.2064 24.0119 20.5249 23.5901 21.027ZM17.3468 17.9651C17.8771 18.2836 18.0579 18.9694 17.7446 19.5083C17.4312 20.0472 16.7562 20.2309 16.2259 19.9125C15.6956 19.5941 15.5148 18.9082 15.8282 18.3693C16.1416 17.8304 16.8165 17.6467 17.3468 17.9651ZM20.1551 25.7546H20.0466L18.3713 21.0393C18.5159 20.929 18.6485 20.8066 18.769 20.6596L22.9754 22.4845L22.9633 22.7417C22.9633 23.0111 22.9995 23.2928 23.0839 23.55C22.7223 23.8562 22.3727 24.1869 22.0473 24.5298C21.6375 24.9463 21.2639 25.3872 20.9023 25.8403C20.6613 25.7913 20.4082 25.7546 20.1551 25.7546ZM19.6007 29.3921C19.0703 29.0859 18.8896 28.3878 19.1909 27.8489C19.4922 27.31 20.1792 27.1263 20.7095 27.4325C21.2398 27.7387 21.4206 28.4368 21.1193 28.9757C20.8059 29.5146 20.131 29.6983 19.6007 29.3921ZM11.2241 28.5838C11.7544 28.89 11.9352 29.5881 11.6339 30.127C11.3326 30.6659 10.6456 30.8496 10.1153 30.5434C9.58496 30.2372 9.40418 29.5391 9.70549 29.0002C10.0189 28.4613 10.6938 28.2776 11.2241 28.5838ZM25.0243 23.746C24.494 23.4398 24.3132 22.7417 24.6145 22.2028C24.9158 21.6639 25.6028 21.4802 26.1332 21.7864C26.6635 22.0926 26.8443 22.7907 26.5429 23.3296C26.2296 23.8685 25.5546 24.0522 25.0243 23.746C25.0243 23.7337 25.0123 23.7337 25.0243 23.746ZM17.5879 27.9224L13.0561 28.4736C12.6825 27.6285 11.887 27.0406 10.9831 26.9304L10.4648 24.1134C11.3085 23.648 11.8388 22.7539 11.8388 21.7741V21.6517L14.7435 20.5739C15.2376 21.223 15.9969 21.6027 16.8045 21.6027H16.9129L18.5882 26.3057C18.0579 26.6977 17.7084 27.2733 17.5879 27.9224ZM58.4943 29.8453C58.4943 28.8532 57.952 27.9469 57.0842 27.4815L57.6145 24.3951C59.0487 24.1992 60.0491 22.8519 59.8563 21.4067C59.6634 19.9492 58.3376 18.9327 56.9154 19.1286C56.2164 19.2266 55.6017 19.5941 55.1799 20.1697L52.5042 19.2266V19.1409C52.5042 17.6712 51.3351 16.4832 49.8888 16.4832H49.7683L48.6956 13.5315C49.8406 12.6374 50.0455 10.9595 49.1536 9.80823C48.2737 8.64471 46.6225 8.4365 45.4896 9.34282C44.9352 9.78373 44.5857 10.4206 44.5013 11.1187L41.7292 11.6454C41.0422 10.3471 39.4633 9.86947 38.1857 10.5676C38.1255 10.6043 38.0652 10.6288 38.017 10.6656L35.6426 8.6692C36.1971 7.30972 35.5583 5.75427 34.2204 5.20313C32.8826 4.63974 31.3519 5.28887 30.8096 6.64835C30.5444 7.30972 30.5444 8.04457 30.8216 8.70594L28.6883 10.5798C27.4589 9.80823 25.8439 10.2002 25.0846 11.4494C25.0484 11.5106 25.0243 11.5596 24.9882 11.6209L21.9509 11.082C21.7581 9.63676 20.4443 8.62021 19.0101 8.81617C17.5758 9.01213 16.5875 10.3594 16.7804 11.8046C16.8768 12.5149 17.2384 13.1518 17.8048 13.5682L16.8768 16.275H16.7924C15.3461 16.275 14.177 17.463 14.177 18.9327V19.0552L11.2844 20.1329C10.4045 18.9694 8.75334 18.7612 7.62039 19.6675C6.4754 20.5616 6.27051 22.2395 7.1624 23.3908C7.59629 23.9542 8.22302 24.3094 8.91002 24.3951L9.44033 27.2121C8.17481 27.9102 7.70476 29.5269 8.39176 30.8129C8.84976 31.6579 9.71754 32.1968 10.6697 32.1968C11.9111 32.1723 12.9717 31.2783 13.2369 30.0413L17.7687 29.4901C18.1302 30.2862 18.986 30.9843 19.8538 31.0333C21.4326 31.119 22.7584 30.0535 22.7584 28.3878C22.7584 27.7877 22.5656 27.2121 22.204 26.7466C22.5053 26.367 22.8307 25.9995 23.1682 25.6566C23.4334 25.3872 23.7106 25.1177 23.9998 24.8728C25.1569 25.7546 26.796 25.5219 27.6638 24.3461C28.0013 23.8807 28.1941 23.3296 28.1941 22.7539C28.1941 22.6192 28.1821 22.4845 28.17 22.3498C28.9776 22.0436 29.8092 21.7986 30.6529 21.6394C31.2193 22.9866 32.75 23.6235 34.0758 23.0479C34.7266 22.7662 35.2329 22.2395 35.486 21.5782C36.3417 21.7129 37.1733 21.9333 37.9808 22.2273L37.9688 22.5457C37.9688 24.0154 39.1379 25.2035 40.5842 25.2035C41.1627 25.2035 41.7292 25.0075 42.1872 24.6401C42.5367 24.934 42.8862 25.2402 43.2117 25.5709C43.5009 25.8648 43.7781 26.1588 44.0433 26.4772C43.1875 27.653 43.4286 29.3186 44.5857 30.1882C45.0316 30.5312 45.586 30.7149 46.1404 30.7149C47.189 30.7026 48.1412 30.0535 48.551 29.0737L53.2876 30.1025C53.4202 31.0945 54.0469 31.9396 54.9629 32.3316C56.6985 32.9194 58.4943 31.7314 58.4943 29.8453Z" fill="#008CD1"/>
<path fill-rule="evenodd" clip-rule="evenodd" d="M60.9655 37.1454V34.0957H47.4425C47.2978 42.0689 40.8136 48.4131 32.9673 48.2662C25.326 48.1192 19.1551 41.8607 19.0225 34.0957H5.49951V37.1454C8.22339 37.6353 9.82639 37.2311 10.6098 40.2195C11.4173 43.2814 9.91075 43.6733 7.71719 45.535L9.22376 48.1804L10.7183 50.8259C13.4904 49.7971 14.5389 48.7193 16.6722 50.8871C18.8658 53.1162 17.7329 54.2797 16.7687 56.962L19.372 58.4929L21.9754 60.0239C23.7592 57.856 24.2051 56.2638 27.158 57.0722C30.1591 57.8928 29.7493 59.4115 30.2435 62.2774H36.2577C36.7398 59.4482 36.33 57.8928 39.319 57.0722C42.3081 56.2516 42.7058 57.8193 44.5137 60.0239L47.1171 58.4929L49.7204 56.962C48.7562 54.2675 47.6233 53.1162 49.8168 50.8871C51.9742 48.6948 53.1795 49.8584 55.7708 50.8259L57.2774 48.1804L58.7839 45.535C56.5904 43.6611 55.0838 43.2691 55.8913 40.2195C56.6386 37.2311 58.2416 37.6353 60.9655 37.1454Z" fill="black"/>
<path d="M32.9673 41.0637C36.7548 41.0637 39.8252 37.9437 39.8252 34.0949C39.8252 30.2461 36.7548 27.126 32.9673 27.126C29.1798 27.126 26.1094 30.2461 26.1094 34.0949C26.1094 37.9437 29.1798 41.0637 32.9673 41.0637Z" fill="#B1B3B5"/>
</svg>
