<svg width="93" height="26" viewBox="0 0 93 26" fill="none" xmlns="http://www.w3.org/2000/svg">
<path fill-rule="evenodd" clip-rule="evenodd" d="M18.576 4.03968C18.4445 4.27489 18.1447 4.35508 17.9132 4.22143C17.6817 4.08779 17.6028 3.78308 17.7343 3.54786C17.8658 3.31265 18.1657 3.23246 18.3972 3.36611C18.6339 3.5051 18.7128 3.80446 18.576 4.03968C18.5813 4.03968 18.5813 4.03968 18.576 4.03968ZM23.0108 8.54617C22.8792 8.78138 22.5794 8.86157 22.3479 8.72793C22.1165 8.59428 22.0375 8.28957 22.1691 8.05436C22.3006 7.81914 22.6004 7.73896 22.8319 7.8726C23.0634 8.00625 23.1423 8.30561 23.0108 8.54617C23.0108 8.54082 23.0108 8.54082 23.0108 8.54617ZM6.29765 3.36611C6.52912 3.49975 6.60803 3.80446 6.47651 4.03968C6.34499 4.27489 6.04514 4.35508 5.81367 4.22143C5.5822 4.08779 5.50329 3.78308 5.6348 3.54786C5.76632 3.31265 6.06618 3.23246 6.29765 3.36611ZM2.04177 8.54617C1.91026 8.78138 1.6104 8.86157 1.37893 8.72793C1.14746 8.59428 1.06855 8.28957 1.20007 8.05436C1.33158 7.81914 1.63144 7.73896 1.86291 7.8726C2.09438 8.00625 2.17329 8.30561 2.04177 8.54617C2.04177 8.54082 2.04177 8.54082 2.04177 8.54617ZM9.76968 3.97553C10.0012 4.10917 10.0801 4.41388 9.94855 4.6491C9.81703 4.88431 9.51717 4.9645 9.2857 4.83085C9.05423 4.69721 8.97532 4.3925 9.10684 4.15728C9.23836 3.92207 9.53295 3.84188 9.76968 3.97553ZM10.906 7.55185C10.4536 7.63204 10.0064 7.75499 9.5803 7.92606C9.49613 7.83518 9.39618 7.76034 9.29096 7.70154L9.66973 5.55253C9.74338 5.54184 9.81177 5.5258 9.88542 5.50442L11.0691 7.16161C10.9902 7.27922 10.9375 7.41286 10.906 7.55185ZM12.5263 2.39318C12.3948 2.62839 12.0949 2.70858 11.8634 2.57493C11.632 2.44129 11.553 2.13658 11.6846 1.90136C11.8161 1.66615 12.1159 1.58596 12.3474 1.71961C12.5789 1.8586 12.6578 2.15796 12.5263 2.39318ZM12.0212 6.63773C11.8792 6.63773 11.7319 6.66445 11.6004 6.71791L10.443 5.0928C10.685 4.76136 10.7324 4.32835 10.5746 3.9488L11.5057 3.13624C11.8792 3.37145 12.3527 3.36611 12.7209 3.12555L13.7573 4.00226C13.631 4.31766 13.6468 4.67048 13.7993 4.97519L12.1528 6.64307L12.0212 6.63773ZM12.4421 8.04367C12.3106 8.27888 12.0107 8.35907 11.7793 8.22542C11.5478 8.09178 11.4689 7.78707 11.6004 7.55185C11.7319 7.31664 12.0318 7.23645 12.2632 7.3701C12.5 7.50909 12.5789 7.80845 12.4421 8.04367ZM18.2393 7.19903L16.214 7.9421C16.0404 7.71757 15.7931 7.56255 15.5196 7.50909L15.2829 5.49907C15.6458 5.33336 15.8984 4.98588 15.9457 4.5796L17.1557 4.34973C17.3556 4.72394 17.7396 4.95915 18.1604 4.95915H18.213L18.676 6.24214C18.3972 6.46132 18.2341 6.7981 18.2341 7.15627L18.2393 7.19903ZM16.94 9.46564C16.7716 9.29458 16.5875 9.13421 16.4034 8.97918C16.4349 8.87226 16.4507 8.76 16.4507 8.64774V8.59963L18.4761 7.85656C18.5129 7.91002 18.555 7.95813 18.6023 8.0009L17.7185 9.88796C17.6028 9.88796 17.4923 9.90934 17.3819 9.94676C17.2398 9.78104 17.0925 9.62067 16.94 9.46564ZM15.2355 4.68652C15.104 4.92173 14.8041 5.00192 14.5727 4.86293C14.3412 4.72928 14.2623 4.42457 14.3991 4.18936C14.5306 3.95414 14.8304 3.87396 15.0619 4.0076C15.2881 4.14659 15.367 4.4513 15.2355 4.68652ZM14.4622 7.86726C14.0308 7.70688 13.5837 7.58927 13.1312 7.51978C13.0786 7.30595 12.9682 7.1135 12.8156 6.96382L14.2886 5.467C14.3885 5.51511 14.4938 5.55253 14.599 5.57392L14.8304 7.58927C14.6937 7.65342 14.5674 7.74965 14.4622 7.86726ZM15.7248 8.89364C15.5932 9.12886 15.2934 9.20905 15.0619 9.0754C14.8304 8.94176 14.7515 8.63705 14.883 8.40183C15.0146 8.16662 15.3144 8.08643 15.5459 8.22008C15.7826 8.35372 15.8615 8.65308 15.7248 8.89364ZM19.7965 7.40217C19.665 7.63739 19.3651 7.71757 19.1337 7.58393C18.9022 7.45028 18.8233 7.14558 18.9548 6.91036C19.0863 6.67515 19.3862 6.59496 19.6176 6.7286C19.8491 6.86759 19.928 7.16696 19.7965 7.40217ZM20.9959 11.2511L18.8443 10.7861C18.7812 10.5027 18.6129 10.2568 18.3814 10.0911L19.2231 8.30026C19.2757 8.30561 19.3283 8.31096 19.3809 8.31096C19.7386 8.31096 20.0806 8.13989 20.2963 7.84587L21.4589 8.2575V8.28957C21.4589 8.72258 21.6956 9.11817 22.0691 9.32131L21.8376 10.6738C21.4852 10.7272 21.1748 10.9357 20.9959 11.2511ZM22.4111 12.0744C22.2795 12.3096 21.9797 12.3898 21.7482 12.2508C21.5167 12.1172 21.4378 11.8124 21.5746 11.5772C21.7061 11.342 22.006 11.2618 22.2374 11.3955C22.4637 11.5345 22.5426 11.8338 22.4111 12.0744C22.4111 12.069 22.4111 12.069 22.4111 12.0744ZM18.1552 11.2939C18.0237 11.5291 17.7238 11.6093 17.4923 11.4757C17.2609 11.342 17.182 11.0373 17.3135 10.8021C17.445 10.5669 17.7448 10.4867 17.9763 10.6203C18.2078 10.7593 18.2867 11.0587 18.1552 11.2939ZM7.89689 7.97417L6.06618 7.17765L6.07144 7.06539C6.07144 6.70188 5.9031 6.3544 5.61376 6.14057L6.01883 4.95915H6.05566C6.48177 4.95915 6.87106 4.71859 7.07096 4.33369L8.40191 4.56891C8.45452 4.93777 8.67547 5.26386 9.00163 5.44027L8.62286 7.58927C8.33878 7.616 8.08101 7.75499 7.89689 7.97417ZM5.17187 6.63773C5.40334 6.77672 5.48224 7.07608 5.34547 7.31129C5.20869 7.54651 4.91409 7.6267 4.68262 7.4877C4.45116 7.34871 4.37225 7.04935 4.50902 6.81414C4.6458 6.57892 4.9404 6.49874 5.17187 6.63773ZM6.3976 10.0376H6.35025L5.61902 7.97952C5.68215 7.9314 5.74002 7.87795 5.79262 7.8138L7.62859 8.61032L7.62333 8.72258C7.62333 8.84019 7.63912 8.96314 7.67594 9.0754C7.51812 9.20905 7.36556 9.35338 7.22352 9.50306C7.04466 9.68482 6.88158 9.87727 6.72376 10.0751C6.61855 10.0537 6.50807 10.0376 6.3976 10.0376ZM6.15561 11.6253C5.92414 11.4917 5.84523 11.187 5.97675 10.9518C6.10826 10.7166 6.40812 10.6364 6.63959 10.77C6.87106 10.9037 6.94997 11.2084 6.81845 11.4436C6.68168 11.6788 6.38708 11.759 6.15561 11.6253ZM2.49945 11.2725C2.73092 11.4062 2.80983 11.7109 2.67831 11.9461C2.5468 12.1813 2.24694 12.2615 2.01547 12.1278C1.784 11.9942 1.70509 11.6895 1.83661 11.4543C1.97338 11.2191 2.26798 11.1389 2.49945 11.2725ZM8.52291 9.16093C8.29144 9.02729 8.21253 8.72258 8.34404 8.48737C8.47556 8.25215 8.77542 8.17196 9.00689 8.30561C9.23836 8.43925 9.31727 8.74396 9.18575 8.97918C9.04897 9.21439 8.75438 9.29458 8.52291 9.16093C8.52291 9.15559 8.51765 9.15559 8.52291 9.16093ZM5.27708 10.9838L3.29907 11.2244C3.13599 10.8555 2.78879 10.5989 2.39424 10.5508L2.16803 9.32131C2.53628 9.11817 2.76774 8.72793 2.76774 8.30026V8.24681L4.03556 7.77638C4.25125 8.0597 4.58267 8.22542 4.93514 8.22542H4.98248L5.71371 10.2782C5.48224 10.4493 5.32969 10.7005 5.27708 10.9838ZM23.1318 11.8231C23.1318 11.3901 22.895 10.9945 22.5163 10.7914L22.7477 9.44426C23.3738 9.35873 23.8104 8.77069 23.7262 8.13989C23.642 7.50374 23.0634 7.06004 22.4426 7.14557C22.1375 7.18834 21.8692 7.34871 21.6851 7.59997L20.5172 7.18834V7.15092C20.5172 6.50943 20.0069 5.99089 19.3757 5.99089H19.323L18.8548 4.70255C19.3546 4.31231 19.444 3.57994 19.0548 3.07744C18.6707 2.56959 17.95 2.47871 17.4555 2.8743C17.2135 3.06674 17.061 3.34472 17.0241 3.64943L15.8142 3.8793C15.5143 3.31265 14.8252 3.10416 14.2676 3.40887C14.2412 3.42491 14.2149 3.4356 14.1939 3.45164L13.1575 2.58028C13.3995 1.9869 13.1207 1.30798 12.5368 1.06742C11.9529 0.821517 11.2848 1.10484 11.048 1.69822C10.9323 1.9869 10.9323 2.30764 11.0533 2.59632L10.1221 3.41422C9.58556 3.07744 8.88063 3.2485 8.54921 3.79377C8.53343 3.8205 8.52291 3.84188 8.50712 3.86861L7.18144 3.6334C7.09727 3.0026 6.52386 2.5589 5.89784 2.64443C5.27182 2.72996 4.84044 3.318 4.92461 3.9488C4.9667 4.25885 5.12452 4.53683 5.37177 4.71859L4.9667 5.90001H4.92988C4.2986 5.90001 3.78831 6.41855 3.78831 7.06004V7.1135L2.52575 7.58393C2.14173 7.07608 1.42102 6.9852 0.926513 7.38079C0.42675 7.77103 0.337319 8.5034 0.726608 9.00591C0.915992 9.25181 1.18955 9.40684 1.4894 9.44426L1.72087 10.6738C1.1685 10.9785 0.963338 11.6841 1.2632 12.2455C1.4631 12.6143 1.84187 12.8495 2.25746 12.8495C2.79931 12.8388 3.26225 12.4486 3.37798 11.9087L5.35599 11.6681C5.51381 12.0156 5.88732 12.3203 6.26608 12.3417C6.95523 12.3791 7.5339 11.914 7.5339 11.187C7.5339 10.925 7.44973 10.6738 7.29191 10.4706C7.42343 10.3049 7.56547 10.1446 7.71277 9.99488C7.8285 9.87727 7.94949 9.75966 8.07575 9.65275C8.58077 10.0376 9.29622 9.93607 9.67499 9.42288C9.82229 9.21974 9.90646 8.97918 9.90646 8.72793C9.90646 8.66912 9.9012 8.61032 9.89594 8.55152C10.2484 8.41787 10.6114 8.31096 10.9796 8.24146C11.2269 8.8295 11.895 9.10748 12.4737 8.85622C12.7577 8.73327 12.9787 8.5034 13.0892 8.21473C13.4627 8.27353 13.8257 8.36976 14.1781 8.49806L14.1729 8.63705C14.1729 9.27854 14.6831 9.79708 15.3144 9.79708C15.5669 9.79708 15.8142 9.71155 16.0141 9.55118C16.1666 9.67947 16.3192 9.81312 16.4612 9.95746C16.5875 10.0858 16.7085 10.2141 16.8242 10.353C16.4507 10.8662 16.5559 11.5933 17.061 11.9728C17.2556 12.1225 17.4976 12.2027 17.7396 12.2027C18.1973 12.1973 18.6129 11.914 18.7917 11.4863L20.8592 11.9354C20.917 12.3684 21.1906 12.7373 21.5904 12.9083C22.3479 13.1649 23.1318 12.6464 23.1318 11.8231Z" fill="white"/>
<path fill-rule="evenodd" clip-rule="evenodd" d="M24.2096 15.0092V13.6781H18.3071C18.244 17.1582 15.4137 19.9273 11.989 19.8632C8.65378 19.799 5.96033 17.0673 5.90246 13.6781H0V15.0092C1.18891 15.223 1.88858 15.0466 2.23052 16.351C2.58298 17.6874 1.9254 17.8585 0.967961 18.6711L1.62554 19.8257L2.27787 20.9804C3.48782 20.5314 3.94549 20.061 4.87663 21.0072C5.83407 21.9801 5.33957 22.4879 4.91872 23.6587L6.05502 24.3269L7.19132 24.9951C7.9699 24.0489 8.16454 23.354 9.4534 23.7068C10.7633 24.065 10.5844 24.7278 10.8001 25.9787H13.4252C13.6356 24.7439 13.4568 24.065 14.7614 23.7068C16.0661 23.3486 16.2397 24.0329 17.0288 24.9951L18.1651 24.3269L19.3014 23.6587C18.8805 22.4826 18.386 21.9801 19.3434 21.0072C20.2851 20.0503 20.8112 20.5581 21.9422 20.9804L22.5998 19.8257L23.2574 18.6711C22.2999 17.8532 21.6424 17.6821 21.9948 16.351C22.321 15.0466 23.0206 15.223 24.2096 15.0092Z" fill="white"/>
<path d="M11.9855 16.7185C13.6387 16.7185 14.9788 15.3567 14.9788 13.6768C14.9788 11.9968 13.6387 10.635 11.9855 10.635C10.3323 10.635 8.99219 11.9968 8.99219 13.6768C8.99219 15.3567 10.3323 16.7185 11.9855 16.7185Z" fill="white"/>
<path d="M32.4588 8.63892C36.3517 8.63892 37.8826 11.9052 37.8826 14.4872C37.8826 17.3953 35.9256 20.1698 32.4904 20.1698C28.9605 20.1698 27.1719 17.3525 27.1719 14.3642C27.1719 11.8838 28.5923 8.63892 32.4588 8.63892ZM32.5062 17.8604C34.4895 17.8604 35.2049 15.984 35.2049 14.4605C35.2049 12.4879 34.3579 10.9216 32.4641 10.9216C30.4335 10.9216 29.8127 12.8781 29.8127 14.3375C29.8075 16.0749 30.5808 17.8604 32.5062 17.8604Z" fill="white"/>
<path d="M41.8643 11.8059V12.6398C42.0589 12.3939 42.727 11.592 44.0895 11.592C45.1522 11.592 45.815 11.9449 46.299 12.5329C46.7356 12.164 47.4669 11.592 48.6453 11.592C50.0972 11.592 51.0704 12.3618 51.0704 13.9495V19.8459H48.7557V15.2058C48.7557 14.1259 48.498 13.5112 47.6668 13.5112C46.8356 13.5112 46.4674 14.0511 46.4674 15.0187V19.8352H44.1474V15.0347C44.1474 13.9121 43.7371 13.5272 43.0111 13.5272C41.9642 13.5272 41.8432 14.5108 41.8432 15.1898V19.8406H39.5391V11.8059H41.8643Z" fill="white"/>
<path d="M57.8802 19.8416V14.8861C57.8802 14.1323 57.6697 13.5015 56.7281 13.5015C55.6549 13.5015 55.5023 14.2713 55.5023 15.3512V19.847H53.1719V11.8069H55.5339V12.5125C55.9127 12.0528 56.6544 11.6038 57.7592 11.6038C59.3637 11.6038 60.2159 12.4377 60.2159 14.0682V19.8416H57.8802Z" fill="white"/>
<path d="M62.3047 10.8085V8.97485H64.6194V10.8085H62.3047ZM62.3047 19.8428V11.8081H64.6194V19.8428H62.3047Z" fill="white"/>
<path d="M72.6618 8.97485C74.2663 8.97485 76.1181 9.57358 76.1181 11.7333C76.1181 12.8078 75.5552 13.7647 74.4504 14.2298C75.7814 14.5238 76.4179 15.5395 76.4179 16.7369C76.4179 18.2124 75.7235 19.8482 72.9617 19.8482H66.3438V8.97485H72.6618ZM69.7053 17.5014H71.8569C72.5092 17.5014 72.9774 17.1004 72.9774 16.4536C72.9774 15.6998 72.404 15.3898 71.778 15.3898H69.7001V17.5014H69.7053ZM69.7211 13.1178H71.5834C72.1305 13.1178 72.6881 12.9788 72.6881 12.193C72.6881 11.5462 72.2199 11.2682 71.7044 11.2682H69.7211V13.1178Z" fill="white"/>
<path d="M77.3438 19.8428V8.97485H80.4791V19.8428H77.3438Z" fill="white"/>
<path d="M87.2974 19.8428V18.6721C87.0239 19.335 86.2085 20.0406 84.7092 20.0406C83.1941 20.0406 81.7422 19.3457 81.7422 16.8385V11.8669H84.8775V16.2665C84.8775 16.6674 84.9091 17.496 86.0138 17.496C87.087 17.496 87.1344 16.6033 87.1344 16.1863V11.8616H90.2697V19.8375H87.2974V19.8428Z" fill="white"/>
<path d="M91.4213 18.8532V19.8261H91.2793V18.8532H90.9531V18.7249H91.7475V18.8532H91.4213Z" fill="white"/>
<path d="M92.7615 19.8261C92.7615 19.7994 92.7825 18.9066 92.7825 18.9066L92.4406 19.8261H92.3301L91.9934 18.9173C91.9934 18.9173 92.0092 19.794 92.0092 19.8261H91.8672V18.7249H92.0566L92.388 19.6283L92.7194 18.7249H92.9088V19.8261H92.7615Z" fill="white"/>
</svg>
