<svg width="64" height="64" viewBox="0 0 64 64" fill="none" xmlns="http://www.w3.org/2000/svg">
<path fill-rule="evenodd" clip-rule="evenodd" d="M33.9711 0V10.718C21.5218 9.74814 10.755 19.0244 10.718 31.6614V33.9711H0C1.03638 50.7041 14.9806 64 31.9692 64C49.6308 64 64 49.6308 64 31.9692C64 14.9806 50.7041 1.03638 33.9711 0ZM28 56V52H32V56H28ZM48 48V44H44V48H48ZM44 16H40V12H44V16ZM52 28V32H56V28H52ZM32 20C38.6167 20 44 25.3833 44 32C44 38.6167 38.6167 44 32 44C25.3833 44 20 38.6167 20 32C20 25.3833 25.3833 20 32 20ZM16 44H12V48H16V44Z" fill="#0076CC"/>
<mask id="mask0_1756_95" style="mask-type:luminance" maskUnits="userSpaceOnUse" x="0" y="0" width="64" height="64">
<path fill-rule="evenodd" clip-rule="evenodd" d="M33.9711 0V10.718C21.5218 9.74814 10.755 19.0244 10.718 31.6614V33.9711H0C1.03638 50.7041 14.9806 64 31.9692 64C49.6308 64 64 49.6308 64 31.9692C64 14.9806 50.7041 1.03638 33.9711 0ZM28 56V52H32V56H28ZM48 48V44H44V48H48ZM44 16H40V12H44V16ZM52 28V32H56V28H52ZM32 20C38.6167 20 44 25.3833 44 32C44 38.6167 38.6167 44 32 44C25.3833 44 20 38.6167 20 32C20 25.3833 25.3833 20 32 20ZM16 44H12V48H16V44Z" fill="white"/>
</mask>
<g mask="url(#mask0_1756_95)">
<rect width="64" height="64" fill="#0076CC"/>
</g>
</svg>
