<svg width="16" height="16" viewBox="0 0 16 16" fill="none" xmlns="http://www.w3.org/2000/svg">
<g clip-path="url(#clip0_1432_23495)">
<g clip-path="url(#clip1_1432_23495)">
<path d="M8 6.5L12 8.75V13.25L8 15.5L4 13.25V8.75L8 6.5Z" stroke="#0076CC" stroke-linecap="round" stroke-linejoin="round"/>
<path d="M8 11L12 8.75" stroke="#0076CC" stroke-linecap="round" stroke-linejoin="round"/>
<path d="M8 11V15.5" stroke="#0076CC" stroke-linecap="round" stroke-linejoin="round"/>
<path d="M8 11L4 8.75" stroke="#0076CC" stroke-linecap="round" stroke-linejoin="round"/>
<path d="M10 7.625L6 9.875" stroke="#0076CC" stroke-linecap="round" stroke-linejoin="round"/>
</g>
<g clip-path="url(#clip2_1432_23495)">
<path d="M6.99984 3.66667L5.6665 2.33333L6.99984 1" stroke="#0076CC" stroke-linecap="round" stroke-linejoin="round"/>
<path d="M5.6665 2.33325H9.33317C9.68679 2.33325 10.0259 2.47373 10.276 2.72378C10.526 2.97382 10.6665 3.31296 10.6665 3.66659C10.6665 4.02021 10.526 4.35935 10.276 4.60939C10.0259 4.85944 9.68679 4.99992 9.33317 4.99992H8.99984" stroke="#0076CC" stroke-linecap="round" stroke-linejoin="round"/>
</g>
</g>
<defs>
<clipPath id="clip0_1432_23495">
<rect width="16" height="16" fill="white"/>
</clipPath>
<clipPath id="clip1_1432_23495">
<rect width="12" height="12" fill="white" transform="translate(2 5)"/>
</clipPath>
<clipPath id="clip2_1432_23495">
<rect width="8" height="8" fill="white" transform="translate(4 -1)"/>
</clipPath>
</defs>
</svg>