<svg width="72" height="14" viewBox="0 0 72 14" fill="none" xmlns="http://www.w3.org/2000/svg">
<path fill-rule="evenodd" clip-rule="evenodd" d="M0 7C0 3.68749 2.68652 1 6 1C9.31348 1 12 3.68749 12 7C12 10.3144 9.31348 13 6 13C2.68652 13 0 10.3144 0 7ZM1.16129 7C1.16129 9.67506 3.32584 11.8387 6 11.8387C8.67506 11.8387 10.8387 9.67411 10.8387 7C10.8387 4.32591 8.67317 2.16129 6 2.16129C3.32594 2.16129 1.16129 4.32673 1.16129 7ZM8.59474 5.66452C8.59474 6.67342 7.91703 7.06452 7.40458 7.36025C7.09306 7.54002 6.84262 7.68455 6.84262 7.9112V8.06452C6.84262 8.22485 6.71262 8.35484 6.55229 8.35484H5.44793C5.2876 8.35484 5.15761 8.22485 5.15761 8.06452V7.85502C5.15761 7.01093 5.78223 6.66137 6.27286 6.38681L6.30871 6.36673C6.73358 6.12855 6.99397 5.96655 6.99397 5.65111C6.99397 5.23387 6.46174 4.95693 6.03145 4.95693C5.47043 4.95693 5.21144 5.2225 4.84737 5.68198C4.74922 5.80585 4.57012 5.82886 4.44416 5.73337L3.771 5.22294C3.64745 5.12926 3.61977 4.95521 3.70703 4.82706C4.27866 3.98769 5.00674 3.51613 6.1403 3.51613C7.3275 3.51613 8.59474 4.44284 8.59474 5.66452ZM6 10.7258C6.5603 10.7258 7.01613 10.27 7.01613 9.70968C7.01613 9.14938 6.5603 8.69355 6 8.69355C5.4397 8.69355 4.98387 9.14938 4.98387 9.70968C4.98387 10.27 5.4397 10.7258 6 10.7258Z" fill="#323130"/>
<mask id="mask0_1298_206477" style="mask-type:luminance" maskUnits="userSpaceOnUse" x="0" y="1" width="12" height="12">
<path fill-rule="evenodd" clip-rule="evenodd" d="M0 7C0 3.68749 2.68652 1 6 1C9.31348 1 12 3.68749 12 7C12 10.3144 9.31348 13 6 13C2.68652 13 0 10.3144 0 7ZM1.16129 7C1.16129 9.67506 3.32584 11.8387 6 11.8387C8.67506 11.8387 10.8387 9.67411 10.8387 7C10.8387 4.32591 8.67317 2.16129 6 2.16129C3.32594 2.16129 1.16129 4.32673 1.16129 7ZM8.59474 5.66452C8.59474 6.67342 7.91703 7.06452 7.40458 7.36025C7.09306 7.54002 6.84262 7.68455 6.84262 7.9112V8.06452C6.84262 8.22485 6.71262 8.35484 6.55229 8.35484H5.44793C5.2876 8.35484 5.15761 8.22485 5.15761 8.06452V7.85502C5.15761 7.01093 5.78223 6.66137 6.27286 6.38681L6.30871 6.36673C6.73358 6.12855 6.99397 5.96655 6.99397 5.65111C6.99397 5.23387 6.46174 4.95693 6.03145 4.95693C5.47043 4.95693 5.21144 5.2225 4.84737 5.68198C4.74922 5.80585 4.57012 5.82886 4.44416 5.73337L3.771 5.22294C3.64745 5.12926 3.61977 4.95521 3.70703 4.82706C4.27866 3.98769 5.00674 3.51613 6.1403 3.51613C7.3275 3.51613 8.59474 4.44284 8.59474 5.66452ZM6 10.7258C6.5603 10.7258 7.01613 10.27 7.01613 9.70968C7.01613 9.14938 6.5603 8.69355 6 8.69355C5.4397 8.69355 4.98387 9.14938 4.98387 9.70968C4.98387 10.27 5.4397 10.7258 6 10.7258Z" fill="white"/>
</mask>
<g mask="url(#mask0_1298_206477)">
</g>
<path d="M21.3157 4.98323C21.2827 4.65057 21.1411 4.39214 20.8909 4.20794C20.6408 4.02374 20.3012 3.93163 19.8723 3.93163C19.5809 3.93163 19.3349 3.97287 19.1342 4.05535C18.9335 4.13508 18.7795 4.24643 18.6723 4.38939C18.5678 4.53235 18.5156 4.69456 18.5156 4.87601C18.5101 5.02722 18.5417 5.15918 18.6104 5.2719C18.6819 5.38462 18.7795 5.48222 18.9032 5.5647C19.0269 5.64443 19.1699 5.71453 19.3321 5.77502C19.4943 5.83275 19.6675 5.88224 19.8517 5.92348L20.6105 6.10493C20.9789 6.18741 21.3171 6.29738 21.625 6.43484C21.9329 6.57231 22.1996 6.74139 22.425 6.94208C22.6505 7.14278 22.8251 7.37922 22.9488 7.65139C23.0752 7.92357 23.1398 8.23561 23.1426 8.58752C23.1398 9.10438 23.0079 9.55251 22.7467 9.93191C22.4883 10.3086 22.1144 10.6014 21.625 10.8103C21.1384 11.0165 20.5514 11.1196 19.8641 11.1196C19.1823 11.1196 18.5884 11.0151 18.0826 10.8062C17.5795 10.5972 17.1863 10.2879 16.9031 9.8783C16.6227 9.46591 16.4756 8.95592 16.4619 8.34833H18.1898C18.209 8.63151 18.2901 8.86794 18.4331 9.05764C18.5788 9.24459 18.7726 9.38618 19.0146 9.4824C19.2593 9.57588 19.5356 9.62262 19.8435 9.62262C20.1459 9.62262 20.4084 9.57863 20.6311 9.49065C20.8566 9.40268 21.0312 9.28033 21.1549 9.12363C21.2786 8.96692 21.3405 8.78684 21.3405 8.58339C21.3405 8.3937 21.2841 8.23424 21.1714 8.10502C21.0614 7.97581 20.8992 7.86584 20.6848 7.77511C20.4731 7.68438 20.2133 7.60191 19.9053 7.52768L18.9857 7.29674C18.2736 7.12353 17.7114 6.85273 17.299 6.48433C16.8866 6.11593 16.6818 5.61968 16.6846 4.9956C16.6818 4.48424 16.8179 4.03748 17.0928 3.65533C17.3705 3.27319 17.7513 2.97489 18.2352 2.76045C18.719 2.546 19.2689 2.43878 19.8847 2.43878C20.5115 2.43878 21.0587 2.546 21.526 2.76045C21.9962 2.97489 22.3618 3.27319 22.623 3.65533C22.8842 4.03748 23.0189 4.48011 23.0271 4.98323H21.3157ZM29.5604 2.55425H31.3461V8.03904C31.3461 8.65488 31.199 9.19373 30.9048 9.65561C30.6134 10.1175 30.2051 10.4776 29.68 10.7361C29.1549 10.9918 28.5432 11.1196 27.8449 11.1196C27.1438 11.1196 26.5307 10.9918 26.0056 10.7361C25.4805 10.4776 25.0722 10.1175 24.7808 9.65561C24.4894 9.19373 24.3437 8.65488 24.3437 8.03904V2.55425H26.1293V7.88646C26.1293 8.20812 26.1994 8.49404 26.3396 8.74423C26.4826 8.99441 26.6833 9.19098 26.9417 9.33394C27.2002 9.47691 27.5012 9.54839 27.8449 9.54839C28.1913 9.54839 28.4923 9.47691 28.748 9.33394C29.0064 9.19098 29.2058 8.99441 29.346 8.74423C29.4889 8.49404 29.5604 8.20812 29.5604 7.88646V2.55425ZM32.8152 11V2.55425H36.1473C36.7879 2.55425 37.3336 2.67659 37.7845 2.92128C38.2354 3.16322 38.579 3.5 38.8155 3.93163C39.0547 4.36052 39.1743 4.85539 39.1743 5.41624C39.1743 5.97709 39.0533 6.47196 38.8114 6.90084C38.5694 7.32973 38.2189 7.66376 37.7598 7.90295C37.3034 8.14214 36.7508 8.26173 36.102 8.26173H33.9781V6.83074H35.8133C36.1569 6.83074 36.4401 6.77163 36.6628 6.65341C36.8882 6.53244 37.0559 6.36611 37.1659 6.15442C37.2786 5.93997 37.335 5.69392 37.335 5.41624C37.335 5.13581 37.2786 4.89113 37.1659 4.68218C37.0559 4.47049 36.8882 4.30691 36.6628 4.19144C36.4374 4.07322 36.1514 4.01411 35.805 4.01411H34.6009V11H32.8152ZM40.3341 11V2.55425H43.6662C44.3068 2.55425 44.8525 2.67659 45.3034 2.92128C45.7543 3.16322 46.0979 3.5 46.3344 3.93163C46.5736 4.36052 46.6932 4.85539 46.6932 5.41624C46.6932 5.97709 46.5722 6.47196 46.3303 6.90084C46.0883 7.32973 45.7378 7.66376 45.2787 7.90295C44.8223 8.14214 44.2697 8.26173 43.6209 8.26173H41.497V6.83074H43.3322C43.6758 6.83074 43.959 6.77163 44.1817 6.65341C44.4071 6.53244 44.5748 6.36611 44.6848 6.15442C44.7975 5.93997 44.8539 5.69392 44.8539 5.41624C44.8539 5.13581 44.7975 4.89113 44.6848 4.68218C44.5748 4.47049 44.4071 4.30691 44.1817 4.19144C43.9563 4.07322 43.6703 4.01411 43.3239 4.01411H42.1198V11H40.3341ZM55.6142 6.77713C55.6142 7.69813 55.4396 8.48167 55.0904 9.12775C54.744 9.77383 54.2712 10.2673 53.6718 10.6082C53.0752 10.9464 52.4044 11.1155 51.6594 11.1155C50.9088 11.1155 50.2352 10.945 49.6387 10.6041C49.0421 10.2632 48.5706 9.7697 48.2242 9.12363C47.8777 8.47755 47.7045 7.69538 47.7045 6.77713C47.7045 5.85612 47.8777 5.07258 48.2242 4.4265C48.5706 3.78043 49.0421 3.28831 49.6387 2.95015C50.2352 2.60924 50.9088 2.43878 51.6594 2.43878C52.4044 2.43878 53.0752 2.60924 53.6718 2.95015C54.2712 3.28831 54.744 3.78043 55.0904 4.4265C55.4396 5.07258 55.6142 5.85612 55.6142 6.77713ZM53.8038 6.77713C53.8038 6.18054 53.7144 5.67742 53.5357 5.26778C53.3598 4.85814 53.111 4.54747 52.7893 4.33578C52.4676 4.12408 52.091 4.01824 51.6594 4.01824C51.2277 4.01824 50.8511 4.12408 50.5294 4.33578C50.2078 4.54747 49.9576 4.85814 49.7789 5.26778C49.6029 5.67742 49.5149 6.18054 49.5149 6.77713C49.5149 7.37372 49.6029 7.87683 49.7789 8.28647C49.9576 8.69611 50.2078 9.00678 50.5294 9.21848C50.8511 9.43017 51.2277 9.53602 51.6594 9.53602C52.091 9.53602 52.4676 9.43017 52.7893 9.21848C53.111 9.00678 53.3598 8.69611 53.5357 8.28647C53.7144 7.87683 53.8038 7.37372 53.8038 6.77713ZM56.9369 11V2.55425H60.269C60.9069 2.55425 61.4512 2.66835 61.9021 2.89654C62.3557 3.12198 62.7008 3.44227 62.9372 3.85741C63.1764 4.26979 63.296 4.75504 63.296 5.31314C63.296 5.87399 63.175 6.35649 62.9331 6.76063C62.6911 7.16202 62.3406 7.46994 61.8815 7.68438C61.4251 7.89883 60.8725 8.00605 60.2237 8.00605H57.9926V6.57093H59.935C60.2759 6.57093 60.5591 6.52419 60.7845 6.43072C61.01 6.33724 61.1777 6.19703 61.2876 6.01008C61.4004 5.82313 61.4567 5.59082 61.4567 5.31314C61.4567 5.03272 61.4004 4.79628 61.2876 4.60383C61.1777 4.41138 61.0086 4.26567 60.7804 4.1667C60.555 4.06497 60.2704 4.01411 59.9268 4.01411H58.7226V11H56.9369ZM61.498 7.15653L63.597 11H61.6258L59.5721 7.15653H61.498ZM64.2362 4.02648V2.55425H71.1726V4.02648H68.5869V11H66.8219V4.02648H64.2362Z" fill="#323130"/>
</svg>
