<svg width="16" height="17" viewBox="0 0 16 17" fill="none" xmlns="http://www.w3.org/2000/svg">
<g clip-path="url(#clip0_1432_24937)">
<path d="M3.33325 11.6744C3.33325 12.028 3.47373 12.3672 3.72378 12.6172C3.97382 12.8673 4.31296 13.0077 4.66659 13.0077C5.02021 13.0077 5.35935 12.8673 5.60939 12.6172C5.85944 12.3672 5.99992 12.028 5.99992 11.6744C5.99992 11.3208 5.85944 10.9816 5.60939 10.7316C5.35935 10.4815 5.02021 10.3411 4.66659 10.3411C4.31296 10.3411 3.97382 10.4815 3.72378 10.7316C3.47373 10.9816 3.33325 11.3208 3.33325 11.6744Z" stroke="#0076CC" stroke-linecap="round" stroke-linejoin="round"/>
<path d="M10 11.6744C10 12.028 10.1405 12.3672 10.3905 12.6172C10.6406 12.8673 10.9797 13.0077 11.3333 13.0077C11.687 13.0077 12.0261 12.8673 12.2761 12.6172C12.5262 12.3672 12.6667 12.028 12.6667 11.6744C12.6667 11.3208 12.5262 10.9816 12.2761 10.7316C12.0261 10.4815 11.687 10.3411 11.3333 10.3411C10.9797 10.3411 10.6406 10.4815 10.3905 10.7316C10.1405 10.9816 10 11.3208 10 11.6744Z" stroke="#0076CC" stroke-linecap="round" stroke-linejoin="round"/>
<path d="M3.33325 11.6743H1.99992V9.00765M1.33325 3.67432H8.66659V11.6743M5.99992 11.6743H9.99992M12.6666 11.6743H13.9999V7.67432M13.9999 7.67432H8.66659M13.9999 7.67432L11.9999 4.34098H8.66659" stroke="#0076CC" stroke-linecap="round" stroke-linejoin="round"/>
<path d="M2 6.34106H4.66667" stroke="#0076CC" stroke-linecap="round" stroke-linejoin="round"/>
</g>
<defs>
<clipPath id="clip0_1432_24937">
<rect width="16" height="16" fill="white" transform="translate(0 0.341064)"/>
</clipPath>
</defs>
</svg>
