<svg width="108" height="116" viewBox="0 0 108 116" fill="none" xmlns="http://www.w3.org/2000/svg">
<path d="M14.9641 40.1792L54.6188 51.4022L53.8706 102.016L15.4879 88.786L14.9641 40.1792Z" fill="#004577"/>
<path d="M54.6187 51.4023L83.7985 39.396V81.9576L53.8705 102.016L54.6187 51.4023Z" fill="#0076CC"/>
<path d="M14.964 40.144L1.49634 59.8259L21.7062 66.1352L41.2834 72.2448C41.2834 72.2448 41.8661 72.378 42.1491 72.2781C42.4321 72.1782 42.7817 71.7953 42.7817 71.7953L48.525 62.1066L54.6186 51.3671L14.964 40.144Z" fill="#0076CC"/>
<path d="M42.1491 72.6109C41.8661 72.7108 41.2834 72.5776 41.2834 72.5776L21.7062 66.468L1.49634 60.1587V59.8091L21.7062 66.1184L41.2834 72.228C41.2834 72.228 41.8661 72.3612 42.1491 72.2613V72.6109Z" fill="#004577"/>
<path d="M53.8705 52.8631L48.5084 62.4392L42.765 72.1279C42.765 72.1279 42.4321 72.5108 42.1324 72.6107V72.2611C42.4155 72.1612 42.765 71.7783 42.765 71.7783L48.5084 62.0896L54.6187 51.3667L53.8705 52.8631Z" fill="#004577"/>
<path d="M83.7985 39.396L104 57.3528L88.7597 64.2507L74.2932 70.6766C74.2932 70.6766 73.8437 70.8264 73.5607 70.7265C73.2611 70.6266 72.8116 70.2437 72.8116 70.2437L63.7888 60.6882L54.6187 51.3672L83.7985 39.396Z" fill="#1F83CC"/>
<path d="M73.3236 70.8207C73.6233 70.9205 74.2226 70.7541 74.2226 70.7541L88.6891 64.3283L104 57.353H103.472L88.5226 63.9787L74.0561 70.4045C74.0561 70.4045 73.6066 70.5544 73.3236 70.4545V70.8207Z" fill="#004577"/>
<path d="M55.3669 52.8631L64.2214 61.1174L72.9613 70.6064C72.9613 70.6064 73.0778 70.7264 73.3237 70.8199H74.0719C73.7722 70.7201 73.0778 70.3234 73.0778 70.3234L64.0883 60.7678L54.6187 51.3667L55.3669 52.8631Z" fill="#004577"/>
<path d="M45.6399 28.1719V48.8047L28.4312 43.8841L14.9636 40.1431L45.6399 28.1719Z" fill="#004577"/>
<path opacity="0.76" d="M45.6404 28.1719L83.7986 39.3949L54.6188 51.3661L14.9641 40.1431L45.6404 28.1719Z" fill="#0076CC"/>
<path d="M45.6403 28.1728L83.7984 39.4001C83.7984 39.4001 88.3099 38.5844 92.3219 37.8019C95.5681 37.1693 98.0144 36.5529 98.0144 36.403C98.0144 36.0534 60.2591 26.0489 59.4434 25.9324C58.6277 25.8159 45.6403 28.1728 45.6403 28.1728Z" fill="#0076CC"/>
<path d="M84.5468 39.3956C84.5468 39.3956 88.0584 38.8248 92.1428 37.9168C95.7698 37.1104 98.0144 36.6834 98.0144 36.4028C98.0144 36.5527 95.389 37.1693 92.1428 37.8019C88.1141 38.5844 83.7985 39.3954 83.7985 39.3954L84.5468 39.3956Z" fill="#005FAA"/>
<path d="M45.6403 28.1723L14.964 40.1435C14.964 40.1435 10.1882 39.3501 6.17615 38.5677C2.92993 37.9351 0 37.3192 0 37.1693C0 36.8197 31.297 26.0489 32.1127 25.9324C32.9284 25.8159 45.6403 28.1723 45.6403 28.1723Z" fill="#0076CC"/>
<path d="M15.0108 40.5194C15.0108 40.5194 10.1882 39.7023 6.17615 38.9191C2.92993 38.2859 0.0332946 37.6693 0 37.5194V37.1694C0 37.3194 2.92993 37.936 6.17615 38.5692C10.2048 39.3524 14.964 40.1465 14.964 40.1465V40.5194H15.0108Z" fill="#004577"/>
<g style="mix-blend-mode:multiply" filter="url(#filter0_dd_1293_200011)">
<path fill-rule="evenodd" clip-rule="evenodd" d="M50.001 2C50.001 1.44772 50.4487 1 51.001 1H54.5748C55.1271 1 55.5748 1.44771 55.5748 2V3.71411C55.5748 4.20747 55.9353 4.62429 56.4191 4.72122C58.9706 5.23247 61.3405 6.24621 63.4212 7.65489C63.8321 7.93308 64.3857 7.895 64.7365 7.54412L66.1145 6.16615C66.505 5.77563 67.1382 5.77563 67.5287 6.16615L70.0558 8.69325C70.4463 9.08378 70.4463 9.71694 70.0558 10.1075L68.6868 11.4765C68.335 11.8283 68.2977 12.3837 68.578 12.7947C70.0055 14.8882 71.0322 17.2767 71.5477 19.8499C71.6447 20.3336 72.0615 20.6941 72.5548 20.6941H74.269C74.8212 20.6941 75.269 21.1418 75.269 21.6941V25.2679C75.269 25.8202 74.8212 26.2679 74.269 26.2679H72.6256C72.1248 26.2679 71.7041 26.639 71.6149 27.1317C71.1267 29.8283 70.0789 32.3301 68.5961 34.5124C68.3168 34.9234 68.3545 35.4779 68.7059 35.8292L69.6843 36.8077C70.0748 37.1982 70.0748 37.8314 69.6843 38.2219L67.1572 40.749C66.7667 41.1395 66.1335 41.1395 65.743 40.749L64.7645 39.7706C64.4132 39.4192 63.8587 39.3815 63.4477 39.6608C61.3607 41.0788 58.9814 42.099 56.4191 42.6124C55.9353 42.7094 55.5748 43.1262 55.5748 43.6196V45.3336C55.5748 45.8859 55.1271 46.3336 54.5748 46.3336H51.001C50.4487 46.3336 50.001 45.8859 50.001 45.3336V43.6903C50.001 43.1895 49.63 42.7688 49.1372 42.6796C46.4352 42.1904 43.9287 41.1393 41.7432 39.6517C41.3322 39.372 40.7772 39.4094 40.4257 39.761L39.4143 40.7724C39.0237 41.1629 38.3906 41.1629 38 40.7724L35.473 38.2453C35.0824 37.8548 35.0824 37.2216 35.473 36.8311L36.4889 35.8152C36.84 35.4641 36.8778 34.9101 36.5991 34.4991C35.1211 32.3199 34.0766 29.8228 33.5894 27.1317C33.5001 26.639 33.0794 26.2679 32.5787 26.2679H30.9353C30.383 26.2679 29.9353 25.8202 29.9353 25.2679V21.6941C29.9353 21.1418 30.383 20.6941 30.9353 20.6941H32.6494C33.1428 20.6941 33.5596 20.3336 33.6565 19.8499C34.1785 17.2446 35.2244 14.8286 36.6797 12.7166C36.9631 12.3053 36.9271 11.7472 36.5739 11.394L35.3107 10.1309C34.9202 9.74035 34.9202 9.10718 35.3107 8.71666L37.8378 6.18956C38.2284 5.79904 38.8615 5.79904 39.2521 6.18956L40.5506 7.48813C40.9001 7.83763 41.451 7.87693 41.8617 7.60185C44.0191 6.1566 46.4839 5.13445 49.1373 4.65406C49.63 4.56485 50.001 4.14412 50.001 3.64338V2ZM52.6021 37.044C59.9901 37.044 65.9793 31.0548 65.9793 23.6668C65.9793 16.2788 59.9901 10.2897 52.6021 10.2897C45.2141 10.2897 39.225 16.2788 39.225 23.6668C39.225 31.0548 45.2141 37.044 52.6021 37.044Z" fill="white"/>
</g>
<g filter="url(#filter1_b_1293_200011)">
<path fill-rule="evenodd" clip-rule="evenodd" d="M50.001 2C50.001 1.44772 50.4487 1 51.001 1H54.5748C55.1271 1 55.5748 1.44771 55.5748 2V3.71411C55.5748 4.20747 55.9353 4.62429 56.4191 4.72122C58.9706 5.23247 61.3405 6.24621 63.4212 7.65489C63.8321 7.93308 64.3857 7.895 64.7365 7.54412L66.1145 6.16615C66.505 5.77563 67.1382 5.77563 67.5287 6.16615L70.0558 8.69325C70.4463 9.08378 70.4463 9.71694 70.0558 10.1075L68.6868 11.4765C68.335 11.8283 68.2977 12.3837 68.578 12.7947C70.0055 14.8882 71.0322 17.2767 71.5477 19.8499C71.6447 20.3336 72.0615 20.6941 72.5548 20.6941H74.269C74.8212 20.6941 75.269 21.1418 75.269 21.6941V25.2679C75.269 25.8202 74.8212 26.2679 74.269 26.2679H72.6256C72.1248 26.2679 71.7041 26.639 71.6149 27.1317C71.1267 29.8283 70.0789 32.3301 68.5961 34.5124C68.3168 34.9234 68.3545 35.4779 68.7059 35.8292L69.6843 36.8077C70.0748 37.1982 70.0748 37.8314 69.6843 38.2219L67.1572 40.749C66.7667 41.1395 66.1335 41.1395 65.743 40.749L64.7645 39.7706C64.4132 39.4192 63.8587 39.3815 63.4477 39.6608C61.3607 41.0788 58.9814 42.099 56.4191 42.6124C55.9353 42.7094 55.5748 43.1262 55.5748 43.6196V45.3336C55.5748 45.8859 55.1271 46.3336 54.5748 46.3336H51.001C50.4487 46.3336 50.001 45.8859 50.001 45.3336V43.6903C50.001 43.1895 49.63 42.7688 49.1372 42.6796C46.4352 42.1904 43.9287 41.1393 41.7432 39.6517C41.3322 39.372 40.7772 39.4094 40.4257 39.761L39.4143 40.7724C39.0237 41.1629 38.3906 41.1629 38 40.7724L35.473 38.2453C35.0824 37.8548 35.0824 37.2216 35.473 36.8311L36.4889 35.8152C36.84 35.4641 36.8778 34.9101 36.5991 34.4991C35.1211 32.3199 34.0766 29.8228 33.5894 27.1317C33.5001 26.639 33.0794 26.2679 32.5787 26.2679H30.9353C30.383 26.2679 29.9353 25.8202 29.9353 25.2679V21.6941C29.9353 21.1418 30.383 20.6941 30.9353 20.6941H32.6494C33.1428 20.6941 33.5596 20.3336 33.6565 19.8499C34.1785 17.2446 35.2244 14.8286 36.6797 12.7166C36.9631 12.3053 36.9271 11.7472 36.5739 11.394L35.3107 10.1309C34.9202 9.74035 34.9202 9.10718 35.3107 8.71666L37.8378 6.18956C38.2284 5.79904 38.8615 5.79904 39.2521 6.18956L40.5506 7.48813C40.9001 7.83763 41.451 7.87693 41.8617 7.60185C44.0191 6.1566 46.4839 5.13445 49.1373 4.65406C49.63 4.56485 50.001 4.14412 50.001 3.64338V2ZM52.6021 37.044C59.9901 37.044 65.9793 31.0548 65.9793 23.6668C65.9793 16.2788 59.9901 10.2897 52.6021 10.2897C45.2141 10.2897 39.225 16.2788 39.225 23.6668C39.225 31.0548 45.2141 37.044 52.6021 37.044Z" fill="white"/>
</g>
<g style="mix-blend-mode:hard-light" filter="url(#filter2_ii_1293_200011)">
<path fill-rule="evenodd" clip-rule="evenodd" d="M50.001 2C50.001 1.44772 50.4487 1 51.001 1H54.5748C55.1271 1 55.5748 1.44771 55.5748 2V3.71411C55.5748 4.20747 55.9353 4.62429 56.4191 4.72122C58.9706 5.23247 61.3405 6.24621 63.4212 7.65489C63.8321 7.93308 64.3857 7.895 64.7365 7.54412L66.1145 6.16615C66.505 5.77563 67.1382 5.77563 67.5287 6.16615L70.0558 8.69325C70.4463 9.08378 70.4463 9.71694 70.0558 10.1075L68.6868 11.4765C68.335 11.8283 68.2977 12.3837 68.578 12.7947C70.0055 14.8882 71.0322 17.2767 71.5477 19.8499C71.6447 20.3336 72.0615 20.6941 72.5548 20.6941H74.269C74.8212 20.6941 75.269 21.1418 75.269 21.6941V25.2679C75.269 25.8202 74.8212 26.2679 74.269 26.2679H72.6256C72.1248 26.2679 71.7041 26.639 71.6149 27.1317C71.1267 29.8283 70.0789 32.3301 68.5961 34.5124C68.3168 34.9234 68.3545 35.4779 68.7059 35.8292L69.6843 36.8077C70.0748 37.1982 70.0748 37.8314 69.6843 38.2219L67.1572 40.749C66.7667 41.1395 66.1335 41.1395 65.743 40.749L64.7645 39.7706C64.4132 39.4192 63.8587 39.3815 63.4477 39.6608C61.3607 41.0788 58.9814 42.099 56.4191 42.6124C55.9353 42.7094 55.5748 43.1262 55.5748 43.6196V45.3336C55.5748 45.8859 55.1271 46.3336 54.5748 46.3336H51.001C50.4487 46.3336 50.001 45.8859 50.001 45.3336V43.6903C50.001 43.1895 49.63 42.7688 49.1372 42.6796C46.4352 42.1904 43.9287 41.1393 41.7432 39.6517C41.3322 39.372 40.7772 39.4094 40.4257 39.761L39.4143 40.7724C39.0237 41.1629 38.3906 41.1629 38 40.7724L35.473 38.2453C35.0824 37.8548 35.0824 37.2216 35.473 36.8311L36.4889 35.8152C36.84 35.4641 36.8778 34.9101 36.5991 34.4991C35.1211 32.3199 34.0766 29.8228 33.5894 27.1317C33.5001 26.639 33.0794 26.2679 32.5787 26.2679H30.9353C30.383 26.2679 29.9353 25.8202 29.9353 25.2679V21.6941C29.9353 21.1418 30.383 20.6941 30.9353 20.6941H32.6494C33.1428 20.6941 33.5596 20.3336 33.6565 19.8499C34.1785 17.2446 35.2244 14.8286 36.6797 12.7166C36.9631 12.3053 36.9271 11.7472 36.5739 11.394L35.3107 10.1309C34.9202 9.74035 34.9202 9.10718 35.3107 8.71666L37.8378 6.18956C38.2284 5.79904 38.8615 5.79904 39.2521 6.18956L40.5506 7.48813C40.9001 7.83763 41.451 7.87693 41.8617 7.60185C44.0191 6.1566 46.4839 5.13445 49.1373 4.65406C49.63 4.56485 50.001 4.14412 50.001 3.64338V2ZM52.6021 37.044C59.9901 37.044 65.9793 31.0548 65.9793 23.6668C65.9793 16.2788 59.9901 10.2897 52.6021 10.2897C45.2141 10.2897 39.225 16.2788 39.225 23.6668C39.225 31.0548 45.2141 37.044 52.6021 37.044Z" fill="#A3A3A3"/>
</g>
<g style="mix-blend-mode:multiply" filter="url(#filter3_dd_1293_200011)">
<path fill-rule="evenodd" clip-rule="evenodd" d="M88.9508 83.1177C88.9508 82.5004 89.4513 82 90.0686 82H91.1253C91.7578 82 92.2705 82.5127 92.2705 83.1452C92.2705 83.7102 92.6844 84.1847 93.2334 84.3184C94.399 84.6023 95.495 85.0638 96.4913 85.6725C97.0072 85.9876 97.68 85.9446 98.1075 85.5172C98.5832 85.0414 99.3546 85.0414 99.8303 85.5172L100.458 86.1453C100.932 86.619 100.932 87.3872 100.458 87.861C100.032 88.2878 99.9898 88.9601 100.306 89.474C100.925 90.4795 101.394 91.5875 101.682 92.7666C101.815 93.3156 102.29 93.7295 102.855 93.7295C103.487 93.7295 104 94.2422 104 94.8747V95.9314C104 96.5487 103.5 97.0492 102.882 97.0492C102.323 97.0492 101.855 97.4649 101.733 98.0112C101.442 99.3184 100.929 100.542 100.235 101.64C99.96 102.075 99.997 102.65 100.361 103.014C100.767 103.419 100.767 104.076 100.361 104.481L99.4812 105.361C99.076 105.767 98.4192 105.767 98.0141 105.361C97.6496 104.997 97.0754 104.96 96.6397 105.235C95.6042 105.89 94.4571 106.384 93.2334 106.682C92.6844 106.815 92.2705 107.29 92.2705 107.855C92.2705 108.487 91.7578 109 91.1253 109H90.0686C89.4512 109 88.9508 108.5 88.9508 107.882C88.9508 107.323 88.5351 106.855 87.9888 106.733C86.6828 106.443 85.4604 105.93 84.3632 105.237C83.921 104.958 83.3382 104.995 82.9683 105.365C82.5574 105.776 81.8913 105.776 81.4805 105.365L80.6226 104.507C80.2108 104.095 80.2108 103.428 80.6226 103.016C80.9928 102.646 81.0306 102.063 80.7518 101.619C80.0645 100.527 79.5557 99.3103 79.2666 98.0112C79.145 97.4649 78.6774 97.0492 78.1177 97.0492C77.5004 97.0492 77 96.5488 77 95.9314V94.8747C77 94.2422 77.5127 93.7295 78.1452 93.7295C78.7102 93.7295 79.1846 93.3156 79.3184 92.7666C79.6134 91.5554 80.1002 90.4192 80.7446 89.3921C81.0536 88.8996 81.0146 88.2513 80.6035 87.8402C80.1489 87.3856 80.1489 86.6485 80.6035 86.1939L81.2907 85.5067C81.753 85.0444 82.5025 85.0444 82.9648 85.5067C83.3786 85.9205 84.0293 85.9639 84.5292 85.6599C85.5832 85.019 86.7483 84.5427 87.9888 84.2666C88.5351 84.145 88.9508 83.6775 88.9508 83.1177ZM90.5 103.467C94.9002 103.467 98.4672 99.9002 98.4672 95.5C98.4672 91.0998 94.9002 87.5328 90.5 87.5328C86.0998 87.5328 82.5328 91.0998 82.5328 95.5C82.5328 99.9002 86.0998 103.467 90.5 103.467Z" fill="white"/>
</g>
<g filter="url(#filter4_b_1293_200011)">
<path fill-rule="evenodd" clip-rule="evenodd" d="M88.9508 83.1177C88.9508 82.5004 89.4513 82 90.0686 82H91.1253C91.7578 82 92.2705 82.5127 92.2705 83.1452C92.2705 83.7102 92.6844 84.1847 93.2334 84.3184C94.399 84.6023 95.495 85.0638 96.4913 85.6725C97.0072 85.9876 97.68 85.9446 98.1075 85.5172C98.5832 85.0414 99.3546 85.0414 99.8303 85.5172L100.458 86.1453C100.932 86.619 100.932 87.3872 100.458 87.861C100.032 88.2878 99.9898 88.9601 100.306 89.474C100.925 90.4795 101.394 91.5875 101.682 92.7666C101.815 93.3156 102.29 93.7295 102.855 93.7295C103.487 93.7295 104 94.2422 104 94.8747V95.9314C104 96.5487 103.5 97.0492 102.882 97.0492C102.323 97.0492 101.855 97.4649 101.733 98.0112C101.442 99.3184 100.929 100.542 100.235 101.64C99.96 102.075 99.997 102.65 100.361 103.014C100.767 103.419 100.767 104.076 100.361 104.481L99.4812 105.361C99.076 105.767 98.4192 105.767 98.0141 105.361C97.6496 104.997 97.0754 104.96 96.6397 105.235C95.6042 105.89 94.4571 106.384 93.2334 106.682C92.6844 106.815 92.2705 107.29 92.2705 107.855C92.2705 108.487 91.7578 109 91.1253 109H90.0686C89.4512 109 88.9508 108.5 88.9508 107.882C88.9508 107.323 88.5351 106.855 87.9888 106.733C86.6828 106.443 85.4604 105.93 84.3632 105.237C83.921 104.958 83.3382 104.995 82.9683 105.365C82.5574 105.776 81.8913 105.776 81.4805 105.365L80.6226 104.507C80.2108 104.095 80.2108 103.428 80.6226 103.016C80.9928 102.646 81.0306 102.063 80.7518 101.619C80.0645 100.527 79.5557 99.3103 79.2666 98.0112C79.145 97.4649 78.6774 97.0492 78.1177 97.0492C77.5004 97.0492 77 96.5488 77 95.9314V94.8747C77 94.2422 77.5127 93.7295 78.1452 93.7295C78.7102 93.7295 79.1846 93.3156 79.3184 92.7666C79.6134 91.5554 80.1002 90.4192 80.7446 89.3921C81.0536 88.8996 81.0146 88.2513 80.6035 87.8402C80.1489 87.3856 80.1489 86.6485 80.6035 86.1939L81.2907 85.5067C81.753 85.0444 82.5025 85.0444 82.9648 85.5067C83.3786 85.9205 84.0293 85.9639 84.5292 85.6599C85.5832 85.019 86.7483 84.5427 87.9888 84.2666C88.5351 84.145 88.9508 83.6775 88.9508 83.1177ZM90.5 103.467C94.9002 103.467 98.4672 99.9002 98.4672 95.5C98.4672 91.0998 94.9002 87.5328 90.5 87.5328C86.0998 87.5328 82.5328 91.0998 82.5328 95.5C82.5328 99.9002 86.0998 103.467 90.5 103.467Z" fill="#0076CC"/>
</g>
<g style="mix-blend-mode:hard-light" filter="url(#filter5_ii_1293_200011)">
<path fill-rule="evenodd" clip-rule="evenodd" d="M88.9508 83.1177C88.9508 82.5004 89.4513 82 90.0686 82H91.1253C91.7578 82 92.2705 82.5127 92.2705 83.1452C92.2705 83.7102 92.6844 84.1847 93.2334 84.3184C94.399 84.6023 95.495 85.0638 96.4913 85.6725C97.0072 85.9876 97.68 85.9446 98.1075 85.5172C98.5832 85.0414 99.3546 85.0414 99.8303 85.5172L100.458 86.1453C100.932 86.619 100.932 87.3872 100.458 87.861C100.032 88.2878 99.9898 88.9601 100.306 89.474C100.925 90.4795 101.394 91.5875 101.682 92.7666C101.815 93.3156 102.29 93.7295 102.855 93.7295C103.487 93.7295 104 94.2422 104 94.8747V95.9314C104 96.5487 103.5 97.0492 102.882 97.0492C102.323 97.0492 101.855 97.4649 101.733 98.0112C101.442 99.3184 100.929 100.542 100.235 101.64C99.96 102.075 99.997 102.65 100.361 103.014C100.767 103.419 100.767 104.076 100.361 104.481L99.4812 105.361C99.076 105.767 98.4192 105.767 98.0141 105.361C97.6496 104.997 97.0754 104.96 96.6397 105.235C95.6042 105.89 94.4571 106.384 93.2334 106.682C92.6844 106.815 92.2705 107.29 92.2705 107.855C92.2705 108.487 91.7578 109 91.1253 109H90.0686C89.4512 109 88.9508 108.5 88.9508 107.882C88.9508 107.323 88.5351 106.855 87.9888 106.733C86.6828 106.443 85.4604 105.93 84.3632 105.237C83.921 104.958 83.3382 104.995 82.9683 105.365C82.5574 105.776 81.8913 105.776 81.4805 105.365L80.6226 104.507C80.2108 104.095 80.2108 103.428 80.6226 103.016C80.9928 102.646 81.0306 102.063 80.7518 101.619C80.0645 100.527 79.5557 99.3103 79.2666 98.0112C79.145 97.4649 78.6774 97.0492 78.1177 97.0492C77.5004 97.0492 77 96.5488 77 95.9314V94.8747C77 94.2422 77.5127 93.7295 78.1452 93.7295C78.7102 93.7295 79.1846 93.3156 79.3184 92.7666C79.6134 91.5554 80.1002 90.4192 80.7446 89.3921C81.0536 88.8996 81.0146 88.2513 80.6035 87.8402C80.1489 87.3856 80.1489 86.6485 80.6035 86.1939L81.2907 85.5067C81.753 85.0444 82.5025 85.0444 82.9648 85.5067C83.3786 85.9205 84.0293 85.9639 84.5292 85.6599C85.5832 85.019 86.7483 84.5427 87.9888 84.2666C88.5351 84.145 88.9508 83.6775 88.9508 83.1177ZM90.5 103.467C94.9002 103.467 98.4672 99.9002 98.4672 95.5C98.4672 91.0998 94.9002 87.5328 90.5 87.5328C86.0998 87.5328 82.5328 91.0998 82.5328 95.5C82.5328 99.9002 86.0998 103.467 90.5 103.467Z" fill="#A3A3A3"/>
</g>
<defs>
<filter id="filter0_dd_1293_200011" x="25.9353" y="0" width="53.3336" height="53.3335" filterUnits="userSpaceOnUse" color-interpolation-filters="sRGB">
<feFlood flood-opacity="0" result="BackgroundImageFix"/>
<feColorMatrix in="SourceAlpha" type="matrix" values="0 0 0 0 0 0 0 0 0 0 0 0 0 0 0 0 0 0 127 0" result="hardAlpha"/>
<feOffset dy="3"/>
<feGaussianBlur stdDeviation="1.5"/>
<feColorMatrix type="matrix" values="0 0 0 0 0 0 0 0 0 0 0 0 0 0 0 0 0 0 0.12 0"/>
<feBlend mode="normal" in2="BackgroundImageFix" result="effect1_dropShadow_1293_200011"/>
<feColorMatrix in="SourceAlpha" type="matrix" values="0 0 0 0 0 0 0 0 0 0 0 0 0 0 0 0 0 0 127 0" result="hardAlpha"/>
<feOffset dy="3"/>
<feGaussianBlur stdDeviation="2"/>
<feColorMatrix type="matrix" values="0 0 0 0 0 0 0 0 0 0 0 0 0 0 0 0 0 0 0.14 0"/>
<feBlend mode="normal" in2="effect1_dropShadow_1293_200011" result="effect2_dropShadow_1293_200011"/>
<feBlend mode="normal" in="SourceGraphic" in2="effect2_dropShadow_1293_200011" result="shape"/>
</filter>
<filter id="filter1_b_1293_200011" x="27.9353" y="-1" width="49.3336" height="49.3335" filterUnits="userSpaceOnUse" color-interpolation-filters="sRGB">
<feFlood flood-opacity="0" result="BackgroundImageFix"/>
<feGaussianBlur in="BackgroundImageFix" stdDeviation="1"/>
<feComposite in2="SourceAlpha" operator="in" result="effect1_backgroundBlur_1293_200011"/>
<feBlend mode="normal" in="SourceGraphic" in2="effect1_backgroundBlur_1293_200011" result="shape"/>
</filter>
<filter id="filter2_ii_1293_200011" x="29.9353" y="1" width="45.3336" height="45.3335" filterUnits="userSpaceOnUse" color-interpolation-filters="sRGB">
<feFlood flood-opacity="0" result="BackgroundImageFix"/>
<feBlend mode="normal" in="SourceGraphic" in2="BackgroundImageFix" result="shape"/>
<feColorMatrix in="SourceAlpha" type="matrix" values="0 0 0 0 0 0 0 0 0 0 0 0 0 0 0 0 0 0 127 0" result="hardAlpha"/>
<feOffset dy="1"/>
<feComposite in2="hardAlpha" operator="arithmetic" k2="-1" k3="1"/>
<feColorMatrix type="matrix" values="0 0 0 0 1 0 0 0 0 1 0 0 0 0 1 0 0 0 0.5 0"/>
<feBlend mode="normal" in2="shape" result="effect1_innerShadow_1293_200011"/>
<feColorMatrix in="SourceAlpha" type="matrix" values="0 0 0 0 0 0 0 0 0 0 0 0 0 0 0 0 0 0 127 0" result="hardAlpha"/>
<feOffset/>
<feGaussianBlur stdDeviation="5"/>
<feComposite in2="hardAlpha" operator="arithmetic" k2="-1" k3="1"/>
<feColorMatrix type="matrix" values="0 0 0 0 1 0 0 0 0 1 0 0 0 0 1 0 0 0 1 0"/>
<feBlend mode="normal" in2="effect1_innerShadow_1293_200011" result="effect2_innerShadow_1293_200011"/>
</filter>
<filter id="filter3_dd_1293_200011" x="73" y="81" width="35" height="35" filterUnits="userSpaceOnUse" color-interpolation-filters="sRGB">
<feFlood flood-opacity="0" result="BackgroundImageFix"/>
<feColorMatrix in="SourceAlpha" type="matrix" values="0 0 0 0 0 0 0 0 0 0 0 0 0 0 0 0 0 0 127 0" result="hardAlpha"/>
<feOffset dy="3"/>
<feGaussianBlur stdDeviation="1.5"/>
<feColorMatrix type="matrix" values="0 0 0 0 0 0 0 0 0 0 0 0 0 0 0 0 0 0 0.12 0"/>
<feBlend mode="normal" in2="BackgroundImageFix" result="effect1_dropShadow_1293_200011"/>
<feColorMatrix in="SourceAlpha" type="matrix" values="0 0 0 0 0 0 0 0 0 0 0 0 0 0 0 0 0 0 127 0" result="hardAlpha"/>
<feOffset dy="3"/>
<feGaussianBlur stdDeviation="2"/>
<feColorMatrix type="matrix" values="0 0 0 0 0 0 0 0 0 0 0 0 0 0 0 0 0 0 0.14 0"/>
<feBlend mode="normal" in2="effect1_dropShadow_1293_200011" result="effect2_dropShadow_1293_200011"/>
<feBlend mode="normal" in="SourceGraphic" in2="effect2_dropShadow_1293_200011" result="shape"/>
</filter>
<filter id="filter4_b_1293_200011" x="75" y="80" width="31" height="31" filterUnits="userSpaceOnUse" color-interpolation-filters="sRGB">
<feFlood flood-opacity="0" result="BackgroundImageFix"/>
<feGaussianBlur in="BackgroundImageFix" stdDeviation="1"/>
<feComposite in2="SourceAlpha" operator="in" result="effect1_backgroundBlur_1293_200011"/>
<feBlend mode="normal" in="SourceGraphic" in2="effect1_backgroundBlur_1293_200011" result="shape"/>
</filter>
<filter id="filter5_ii_1293_200011" x="77" y="82" width="27" height="27" filterUnits="userSpaceOnUse" color-interpolation-filters="sRGB">
<feFlood flood-opacity="0" result="BackgroundImageFix"/>
<feBlend mode="normal" in="SourceGraphic" in2="BackgroundImageFix" result="shape"/>
<feColorMatrix in="SourceAlpha" type="matrix" values="0 0 0 0 0 0 0 0 0 0 0 0 0 0 0 0 0 0 127 0" result="hardAlpha"/>
<feOffset dy="1"/>
<feComposite in2="hardAlpha" operator="arithmetic" k2="-1" k3="1"/>
<feColorMatrix type="matrix" values="0 0 0 0 0.196112 0 0 0 0 0.628811 0 0 0 0 0.960547 0 0 0 1 0"/>
<feBlend mode="normal" in2="shape" result="effect1_innerShadow_1293_200011"/>
<feColorMatrix in="SourceAlpha" type="matrix" values="0 0 0 0 0 0 0 0 0 0 0 0 0 0 0 0 0 0 127 0" result="hardAlpha"/>
<feOffset/>
<feGaussianBlur stdDeviation="5"/>
<feComposite in2="hardAlpha" operator="arithmetic" k2="-1" k3="1"/>
<feColorMatrix type="matrix" values="0 0 0 0 0 0 0 0 0 0.480026 0 0 0 0 0.848047 0 0 0 1 0"/>
<feBlend mode="normal" in2="effect1_innerShadow_1293_200011" result="effect2_innerShadow_1293_200011"/>
</filter>
</defs>
</svg>
