<svg width="16" height="16" viewBox="0 0 16 16" fill="none" xmlns="http://www.w3.org/2000/svg">
<g clip-path="url(#clip0_1298_206555)">
<path d="M2 8C2 8.78793 2.15519 9.56815 2.45672 10.2961C2.75825 11.0241 3.20021 11.6855 3.75736 12.2426C4.31451 12.7998 4.97595 13.2417 5.7039 13.5433C6.43185 13.8448 7.21207 14 8 14C8.78793 14 9.56815 13.8448 10.2961 13.5433C11.0241 13.2417 11.6855 12.7998 12.2426 12.2426C12.7998 11.6855 13.2417 11.0241 13.5433 10.2961C13.8448 9.56815 14 8.78793 14 8C14 7.21207 13.8448 6.43185 13.5433 5.7039C13.2417 4.97595 12.7998 4.31451 12.2426 3.75736C11.6855 3.20021 11.0241 2.75825 10.2961 2.45672C9.56815 2.15519 8.78793 2 8 2C7.21207 2 6.43185 2.15519 5.7039 2.45672C4.97595 2.75825 4.31451 3.20021 3.75736 3.75736C3.20021 4.31451 2.75825 4.97595 2.45672 5.7039C2.15519 6.43185 2 7.21207 2 8Z" stroke="#666666" stroke-linecap="round" stroke-linejoin="round"/>
<path d="M6 6.6665C6 7.19694 6.21071 7.70565 6.58579 8.08072C6.96086 8.45579 7.46957 8.6665 8 8.6665C8.53043 8.6665 9.03914 8.45579 9.41421 8.08072C9.78929 7.70565 10 7.19694 10 6.6665C10 6.13607 9.78929 5.62736 9.41421 5.25229C9.03914 4.87722 8.53043 4.6665 8 4.6665C7.46957 4.6665 6.96086 4.87722 6.58579 5.25229C6.21071 5.62736 6 6.13607 6 6.6665Z" stroke="#666666" stroke-linecap="round" stroke-linejoin="round"/>
<path d="M4.11182 12.5658C4.27682 12.0167 4.61446 11.5353 5.07465 11.1932C5.53483 10.851 6.09305 10.6663 6.66648 10.6665H9.33315C9.90732 10.6663 10.4662 10.8514 10.9267 11.1944C11.3873 11.5373 11.7248 12.0197 11.8891 12.5698" stroke="#666666" stroke-linecap="round" stroke-linejoin="round"/>
</g>
<defs>
<clipPath id="clip0_1298_206555">
<rect width="16" height="16" fill="white"/>
</clipPath>
</defs>
</svg>
