<svg width="250" height="200" viewBox="0 0 142 113" fill="none" xmlns="http://www.w3.org/2000/svg">
<path d="M32.3982 37.3338L37.4139 36.5183C37.7378 36.4632 38.0357 36.3049 38.2641 36.0667C38.4925 35.8284 38.6394 35.5225 38.6832 35.1939C38.7794 34.5725 38.8755 33.9492 39.0102 33.3472C39.0753 33.024 39.0378 32.6883 38.9032 32.3878C38.7685 32.0873 38.5435 31.8373 38.2601 31.6733L33.8194 29.1839C33.4833 29.0103 33.2215 28.7188 33.0834 28.364C32.9453 28.0092 32.9403 27.6157 33.0694 27.2575L33.8387 25.1215C33.9674 24.7623 34.2235 24.4641 34.5575 24.2847C34.8915 24.1054 35.2796 24.0575 35.6465 24.1506L40.6257 25.1215C40.9494 25.1848 41.2847 25.1413 41.5821 24.9977C41.8795 24.854 42.1234 24.6176 42.2777 24.3234C42.5662 23.7797 42.8739 23.2353 43.2009 22.6903C43.3735 22.4069 43.4534 22.0758 43.4292 21.744C43.405 21.4122 43.278 21.0965 43.0662 20.8416L39.741 16.9696C39.4831 16.6925 39.3348 16.3296 39.3242 15.9495C39.3135 15.5694 39.4413 15.1986 39.6833 14.9073L41.1238 13.1597C41.3638 12.8657 41.7038 12.6728 42.0773 12.6186C42.4508 12.5643 42.8308 12.6527 43.1432 12.8664L47.5069 15.5132C47.7874 15.681 48.1135 15.7546 48.4381 15.7231C48.7627 15.6917 49.069 15.557 49.3128 15.3384C49.7744 14.9287 50.2552 14.5209 50.736 14.1306C50.9917 13.9254 51.1762 13.6434 51.2626 13.3254C51.3491 13.0073 51.333 12.6698 51.2168 12.3615L49.409 7.55545C49.2551 7.20677 49.2338 6.81311 49.3491 6.44957C49.4644 6.08603 49.7082 5.77808 50.034 5.58447L51.9957 4.43683C52.3231 4.24912 52.7073 4.18913 53.0755 4.26822C53.4438 4.34731 53.7705 4.55999 53.9939 4.86598L57.1942 8.91281C57.3729 9.1675 57.6315 9.35394 57.9281 9.44202C58.2247 9.5301 58.542 9.51469 58.8289 9.39828C58.8289 9.39828 59.9059 8.95165 60.7136 8.67785C61.0234 8.5736 61.2924 8.37253 61.4815 8.10372C61.6706 7.83491 61.7701 7.51232 61.7656 7.18262L61.6887 2.04641C61.666 1.66438 61.7826 1.28719 62.0165 0.985989C62.2503 0.684786 62.5852 0.480392 62.958 0.411363L65.187 0.022992C65.5602 -0.0422574 65.944 0.0324767 66.2664 0.233122C66.5887 0.433767 66.8273 0.746479 66.9372 1.11237L68.5911 5.97673C68.6972 6.29027 68.8999 6.56133 69.1694 6.75034C69.4389 6.93934 69.7613 7.03637 70.0893 7.02727H71.9741C72.3016 7.03425 72.623 6.93638 72.8921 6.74767C73.1612 6.55896 73.3643 6.28909 73.4722 5.97673L75.1262 1.11237C75.2361 0.746479 75.4746 0.433767 75.797 0.233122C76.1193 0.0324767 76.5032 -0.0422574 76.8763 0.022992L79.1053 0.411363C79.4781 0.480392 79.8131 0.684786 80.0469 0.985989C80.2807 1.28719 80.3973 1.66438 80.3746 2.04641L80.2977 7.18262C80.2931 7.51313 80.3929 7.83652 80.5828 8.10578C80.7727 8.37503 81.0427 8.57611 81.3536 8.67979C81.7959 8.85456 82.7575 9.22545 83.2191 9.40022C83.7576 9.5944 84.3922 9.43906 84.9115 8.83514L88.0867 4.8854C88.3112 4.58069 88.6385 4.36956 89.0067 4.29192C89.3748 4.21428 89.7584 4.2755 90.0849 4.46402L92.0466 5.61166C92.3732 5.80158 92.6188 6.10677 92.7359 6.46848C92.8531 6.8302 92.8336 7.22289 92.6813 7.57099L90.8735 12.3771C90.7591 12.6855 90.7439 13.0226 90.8303 13.3402C90.9166 13.6578 91.1 13.9398 91.3543 14.1461C91.8351 14.5345 92.3159 14.9442 92.7774 15.354C93.0213 15.5725 93.3276 15.7073 93.6522 15.7387C93.9767 15.7701 94.3028 15.6966 94.5833 15.5287L98.8836 12.8412C99.1976 12.6326 99.5764 12.5472 99.9484 12.6013C100.32 12.6553 100.66 12.8449 100.903 13.1344L102.344 14.8821C102.586 15.1734 102.713 15.5442 102.703 15.9243C102.692 16.3043 102.544 16.6673 102.286 16.9443L98.9606 20.8164C98.7444 21.069 98.6145 21.3852 98.5903 21.7182C98.566 22.0512 98.6487 22.3832 98.8259 22.665C99.1529 23.1829 99.4606 23.7272 99.7491 24.2981C99.9059 24.5901 100.15 24.8245 100.447 24.9678C100.744 25.1111 101.078 25.1561 101.401 25.0962L106.38 24.1253C106.747 24.035 107.134 24.084 107.467 24.263C107.801 24.4421 108.057 24.7386 108.188 25.0962L108.957 27.2323C109.087 27.5905 109.082 27.984 108.943 28.3388C108.805 28.6935 108.544 28.9851 108.207 29.1586L103.772 31.65C103.486 31.8108 103.259 32.0604 103.124 32.3618C102.988 32.6633 102.953 33.0006 103.022 33.3239C103.138 33.9453 103.253 34.5492 103.349 35.1706C103.396 35.4983 103.543 35.8029 103.771 36.0408C103.999 36.2786 104.296 36.4376 104.619 36.4949L109.634 37.3105C110.008 37.357 110.352 37.5383 110.603 37.8211C110.854 38.1038 110.995 38.4688 111 38.8485V41.1243C111.005 41.5068 110.867 41.8771 110.614 42.1619C110.361 42.4468 110.011 42.6253 109.634 42.6623L104.619 43.4779C104.295 43.5329 103.997 43.6912 103.768 43.9295C103.54 44.1678 103.393 44.4736 103.349 44.8022C103.253 45.4236 103.157 46.0469 103.022 46.6489C102.957 46.9721 102.995 47.3078 103.129 47.6083C103.264 47.9088 103.489 48.1588 103.772 48.3228L108.213 50.8161C108.549 50.9897 108.811 51.2812 108.949 51.636C109.087 51.9908 109.092 52.3843 108.963 52.7425L108.194 54.8785C108.065 55.2377 107.809 55.5359 107.475 55.7153C107.141 55.8946 106.753 55.9425 106.386 55.8494L101.407 54.8785C101.083 54.8152 100.748 54.8587 100.45 55.0023C100.153 55.146 99.9092 55.3824 99.7549 55.6766C99.4664 56.2203 99.1587 56.7647 98.8317 57.3097C98.6591 57.5931 98.5792 57.9242 98.6034 58.256C98.6275 58.5878 98.7545 58.9035 98.9663 59.1584L102.292 63.0343C102.549 63.3114 102.698 63.6743 102.708 64.0544C102.719 64.4344 102.591 64.8052 102.349 65.0966L100.909 66.8442C100.669 67.1381 100.329 67.3311 99.9553 67.3853C99.5818 67.4395 99.2018 67.3512 98.8894 67.1375L94.5256 64.4907C94.2451 64.3229 93.9191 64.2493 93.5945 64.2807C93.2699 64.3122 92.9636 64.4469 92.7197 64.6655C92.2582 65.0752 91.7774 65.483 91.2966 65.8733C91.0408 66.0785 90.8564 66.3605 90.7699 66.6785C90.6835 66.9966 90.6996 67.3341 90.8158 67.6423L92.6236 72.4484C92.775 72.7976 92.794 73.1907 92.6769 73.553C92.5599 73.9154 92.315 74.2217 91.9889 74.4136L90.0272 75.5612C89.6999 75.7489 89.3157 75.8089 88.9474 75.7298C88.5792 75.6507 88.2524 75.4381 88.029 75.1321L84.8 71.1241C84.3961 70.6192 83.7422 70.4056 83.2229 70.6192C82.569 70.8911 82.1267 71.0464 81.3189 71.3202C81.0081 71.4239 80.7381 71.625 80.5482 71.8942C80.3583 72.1635 80.2584 72.4869 80.2631 72.8174L80.34 77.9536C80.3627 78.3356 80.2461 78.7128 80.0123 79.014C79.7784 79.3152 79.4435 79.5196 79.0707 79.5886L76.8417 79.977C76.4686 80.0423 76.0847 79.9675 75.7624 79.7669C75.44 79.5662 75.2015 79.2535 75.0916 78.8876L73.4376 74.033C73.3315 73.7194 73.1289 73.4484 72.8593 73.2594C72.5898 73.0704 72.2675 72.9733 71.9394 72.9824H70.0547C69.7271 72.9755 69.4057 73.0733 69.1366 73.262C68.8675 73.4508 68.6644 73.7206 68.5565 74.033L66.9025 78.8876C66.7927 79.2535 66.5541 79.5662 66.2317 79.7669C65.9094 79.9675 65.5255 80.0423 65.1524 79.977L62.9234 79.5886C62.5506 79.5196 62.2157 79.3152 61.9818 79.014C61.748 78.7128 61.6314 78.3356 61.6541 77.9536L61.731 72.8174C61.7357 72.4869 61.6358 72.1635 61.4459 71.8942C61.256 71.625 60.986 71.4239 60.6752 71.3202C59.8674 71.0464 59.3289 70.8328 58.8289 70.6386C58.3289 70.4444 57.7134 70.4444 57.2326 71.0464L53.9632 75.1127C53.7387 75.4197 53.4101 75.6325 53.0402 75.7106C52.6702 75.7887 52.2847 75.7265 51.9572 75.536L49.9956 74.3883C49.6672 74.1986 49.4204 73.8924 49.3032 73.5293C49.1859 73.1661 49.2065 72.7719 49.3609 72.4232L51.1687 67.6171C51.283 67.3083 51.298 66.9711 51.2117 66.6532C51.1254 66.3353 50.9421 66.0529 50.6879 65.8461C50.2071 65.4577 49.7263 65.05 49.2648 64.6402C49.0209 64.4216 48.7146 64.2869 48.39 64.2555C48.0654 64.2241 47.7394 64.2976 47.4589 64.4655L43.1105 67.12C42.7965 67.3286 42.4178 67.4139 42.0457 67.3599C41.6737 67.3059 41.3341 67.1162 41.0911 66.8268L39.6506 65.0791C39.4086 64.7878 39.2808 64.417 39.2915 64.0369C39.3021 63.6568 39.4504 63.2939 39.7083 63.0168L43.0335 59.1448C43.2497 58.8921 43.3796 58.5759 43.4039 58.2429C43.4281 57.91 43.3455 57.578 43.1682 57.2961C42.8412 56.7718 42.5335 56.2275 42.245 55.663C42.0882 55.3711 41.8439 55.1367 41.5472 54.9934C41.2505 54.85 40.9165 54.8051 40.593 54.8649L35.6138 55.8358C35.247 55.9262 34.86 55.8772 34.5267 55.6981C34.1933 55.5191 33.9368 55.2225 33.806 54.8649L33.0367 52.7289C32.9076 52.3707 32.9126 51.9772 33.0507 51.6224C33.1888 51.2677 33.4506 50.9761 33.7867 50.8026L38.2274 48.3131C38.5138 48.1523 38.7413 47.9027 38.8763 47.6013C39.0114 47.2998 39.0469 46.9625 38.9775 46.6392C38.8621 46.0178 38.7467 45.4139 38.6505 44.7925C38.6044 44.4648 38.4567 44.1602 38.2287 43.9223C38.0008 43.6845 37.7041 43.5255 37.3812 43.4682L32.3655 42.6526C31.9922 42.6061 31.6483 42.4248 31.3972 42.142C31.1462 41.8593 31.0051 41.4943 31 41.1146V38.8349C31.021 38.4586 31.1726 38.1018 31.4284 37.8273C31.6841 37.5527 32.0275 37.378 32.3982 37.3338ZM70.9971 12.0373C64.8543 12.0346 58.8855 14.0967 54.0319 17.8982C49.1783 21.6997 45.7161 27.0245 44.1913 33.0326C44.0779 33.4908 44.0694 33.969 44.1665 34.431C44.2636 34.893 44.4637 35.3266 44.7517 35.6987C45.0396 36.0709 45.4078 36.3719 45.8282 36.5789C46.2487 36.7858 46.7103 36.8933 47.1781 36.893H67.418C67.9616 36.8931 68.4955 36.7478 68.9654 36.4718C69.4353 36.1959 69.8244 35.7992 70.0931 35.3221L80.1131 17.5133C80.3464 17.0993 80.4823 16.6366 80.5103 16.1611C80.5383 15.6856 80.4576 15.2099 80.2745 14.7709C80.0914 14.3319 79.8108 13.9413 79.4543 13.6292C79.0979 13.3172 78.6751 13.0921 78.2187 12.9713C75.8615 12.3468 73.4341 12.0329 70.9971 12.0373ZM98.6913 40C98.6948 36.2559 97.9535 32.5492 96.5115 29.0998C95.0694 25.6503 92.956 22.5284 90.2965 19.9193C89.9607 19.5836 89.5528 19.3305 89.1045 19.1796C88.6562 19.0288 88.1795 18.9842 87.7114 19.0494C87.2432 19.1146 86.7963 19.2877 86.4051 19.5554C86.014 19.8231 85.6891 20.1782 85.4558 20.5931L75.4089 38.4465C75.1435 38.9158 75.0038 39.4469 75.0038 39.9874C75.0038 40.5278 75.1435 41.0589 75.4089 41.5282L85.5385 59.3351C85.7736 59.7488 86.1 60.1023 86.4922 60.3681C86.8844 60.634 87.332 60.8051 87.8003 60.8682C88.2686 60.9313 88.7449 60.8847 89.1925 60.7319C89.64 60.5792 90.0468 60.3245 90.3811 59.9875C93.0147 57.3825 95.1064 54.2726 96.5334 50.8403C97.9605 47.408 98.6941 43.7225 98.6913 40ZM70.9971 67.9627C73.4765 67.9691 75.9459 67.646 78.3418 67.0015C78.7981 66.8791 79.2203 66.6523 79.5758 66.3387C79.9314 66.0251 80.2107 65.6331 80.3921 65.1931C80.5736 64.753 80.6524 64.2767 80.6223 63.801C80.5923 63.3253 80.4542 62.863 80.2189 62.4498L70.1066 44.6721C69.8362 44.1991 69.447 43.8065 68.9783 43.5337C68.5097 43.261 67.9781 43.1178 67.4372 43.1186H47.1684C46.7009 43.1187 46.2395 43.2263 45.8193 43.4334C45.3991 43.6405 45.0311 43.9415 44.7434 44.3137C44.4557 44.6858 44.2557 45.1193 44.1587 45.5811C44.0617 46.0429 44.0702 46.521 44.1836 46.979C45.7115 52.986 49.176 58.3087 54.0308 62.108C58.8856 65.9073 64.8547 67.9671 70.9971 67.9627Z" fill="#E5E9ED"/>
<path d="M8.98242 112H6.93164L2.93945 105.451V112H0.888672V102.047H2.93945L6.93848 108.609V102.047H8.98242V112ZM18.9492 107.249C18.9492 108.229 18.776 109.088 18.4297 109.826C18.0833 110.564 17.5866 111.134 16.9395 111.535C16.2969 111.936 15.5586 112.137 14.7246 112.137C13.8997 112.137 13.1637 111.938 12.5166 111.542C11.8695 111.146 11.3682 110.58 11.0127 109.847C10.6572 109.108 10.4772 108.261 10.4727 107.304V106.812C10.4727 105.832 10.6481 104.97 10.999 104.228C11.3545 103.48 11.8535 102.908 12.4961 102.512C13.1432 102.111 13.8815 101.91 14.7109 101.91C15.5404 101.91 16.2764 102.111 16.9189 102.512C17.5661 102.908 18.0651 103.48 18.416 104.228C18.7715 104.97 18.9492 105.829 18.9492 106.805V107.249ZM16.8711 106.798C16.8711 105.754 16.6842 104.961 16.3105 104.419C15.9368 103.877 15.4036 103.605 14.7109 103.605C14.0228 103.605 13.4919 103.874 13.1182 104.412C12.7445 104.945 12.5553 105.729 12.5508 106.764V107.249C12.5508 108.265 12.7376 109.054 13.1113 109.614C13.485 110.175 14.0228 110.455 14.7246 110.455C15.4128 110.455 15.9414 110.186 16.3105 109.648C16.6797 109.106 16.8665 108.318 16.8711 107.283V106.798ZM26.1064 112H24.0557V102.047H26.1064V112ZM30.6934 102.047L33.25 109.266L35.793 102.047H38.4863V112H36.4287V109.279L36.6338 104.583L33.9473 112H32.5391L29.8594 104.59L30.0645 109.279V112H28.0137V102.047H30.6934ZM46.0195 109.949H42.4238L41.7402 112H39.5596L43.2646 102.047H45.165L48.8906 112H46.71L46.0195 109.949ZM42.9775 108.288H45.4658L44.2148 104.562L42.9775 108.288ZM57.5449 110.742C57.1758 111.184 56.654 111.528 55.9795 111.774C55.305 112.016 54.5576 112.137 53.7373 112.137C52.876 112.137 52.1195 111.95 51.4678 111.576C50.8206 111.198 50.3193 110.651 49.9639 109.936C49.613 109.22 49.4329 108.379 49.4238 107.413V106.736C49.4238 105.743 49.5902 104.884 49.9229 104.159C50.2601 103.43 50.7432 102.874 51.3721 102.491C52.0055 102.104 52.7461 101.91 53.5938 101.91C54.7741 101.91 55.6969 102.193 56.3623 102.758C57.0277 103.318 57.4219 104.136 57.5449 105.212H55.5488C55.4577 104.642 55.2549 104.225 54.9404 103.961C54.6305 103.697 54.2021 103.564 53.6553 103.564C52.958 103.564 52.4271 103.826 52.0625 104.351C51.6979 104.875 51.5133 105.654 51.5088 106.688V107.324C51.5088 108.368 51.707 109.156 52.1035 109.689C52.5 110.223 53.0811 110.489 53.8467 110.489C54.6169 110.489 55.166 110.325 55.4941 109.997V108.281H53.6279V106.771H57.5449V110.742ZM65.2012 107.687H61.2637V110.353H65.8848V112H59.2129V102.047H65.8711V103.708H61.2637V106.08H65.2012V107.687ZM76.1934 109.949H72.5977L71.9141 112H69.7334L73.4385 102.047H75.3389L79.0645 112H76.8838L76.1934 109.949ZM73.1514 108.288H75.6396L74.3887 104.562L73.1514 108.288ZM83.1387 109.532L85.3945 102.047H87.6777L84.2119 112H82.0723L78.6201 102.047H80.8965L83.1387 109.532ZM93.7207 109.949H90.125L89.4414 112H87.2607L90.9658 102.047H92.8662L96.5918 112H94.4111L93.7207 109.949ZM90.6787 108.288H93.167L91.916 104.562L90.6787 108.288ZM99.7021 112H97.6514V102.047H99.7021V112ZM103.66 110.353H108.015V112H101.609V102.047H103.66V110.353ZM114.953 109.949H111.357L110.674 112H108.493L112.198 102.047H114.099L117.824 112H115.644L114.953 109.949ZM111.911 108.288H114.399L113.148 104.562L111.911 108.288ZM118.754 112V102.047H122.24C123.448 102.047 124.364 102.279 124.988 102.744C125.613 103.204 125.925 103.881 125.925 104.774C125.925 105.262 125.799 105.693 125.549 106.066C125.298 106.436 124.95 106.707 124.503 106.88C125.013 107.007 125.414 107.265 125.706 107.652C126.002 108.04 126.15 108.514 126.15 109.074C126.15 110.031 125.845 110.756 125.234 111.248C124.624 111.74 123.753 111.991 122.623 112H118.754ZM120.805 107.666V110.353H122.562C123.045 110.353 123.421 110.239 123.689 110.011C123.963 109.778 124.1 109.459 124.1 109.054C124.1 108.142 123.628 107.68 122.685 107.666H120.805ZM120.805 106.217H122.322C123.357 106.199 123.874 105.786 123.874 104.979C123.874 104.528 123.742 104.205 123.478 104.009C123.218 103.808 122.805 103.708 122.24 103.708H120.805V106.217ZM129.746 110.353H134.101V112H127.695V102.047H129.746V110.353ZM141.271 107.687H137.334V110.353H141.955V112H135.283V102.047H141.941V103.708H137.334V106.08H141.271V107.687Z" fill="#E5E9ED"/>
</svg>
