<svg width="14" height="15" viewBox="0 0 14 15" fill="none" xmlns="http://www.w3.org/2000/svg">
    <path d="M12.25 0H2.5C1.5955 0 0.25 0.59925 0.25 2.25V12.75C0.25 14.4007 1.5955 15 2.5 15H13C13.4142 15 13.75 14.6642 13.75 14.25V14.25C13.75 13.8358 13.4142 13.5 13 13.5H2.509C2.1625 13.491 1.75 13.3545 1.75 12.75C1.75 12.6742 1.75675 12.6067 1.768 12.5452C1.852 12.1132 2.206 12.0075 2.509 12H13.75V1.5C13.75 1.10218 13.592 0.720644 13.3107 0.43934C13.0294 0.158035 12.6478 0 12.25 0ZM12.25 7.125L10 5.25L7.375 7.125V0H12.25V7.125Z" fill="#303E47"/>
</svg>