<svg width="52" height="52" viewBox="0 0 52 52" fill="none" xmlns="http://www.w3.org/2000/svg">
<g clip-path="url(#clip0_1335_43877)">
<path d="M29.2501 36.8333H8.66675C9.84745 36.1647 10.8547 35.2283 11.6073 34.0993C12.36 32.9703 12.837 31.6804 13.0001 30.3333V23.8333C13.1291 21.084 14.0039 18.4216 15.5306 16.1315C17.0574 13.8414 19.1785 12.0099 21.6667 10.8333C21.6667 9.68406 22.1233 8.58186 22.936 7.7692C23.7486 6.95655 24.8508 6.5 26.0001 6.5C27.1494 6.5 28.2516 6.95655 29.0642 7.7692C29.8769 8.58186 30.3334 9.68406 30.3334 10.8333C32.8216 12.0099 34.9428 13.8414 36.4695 16.1315C37.9963 18.4216 38.871 21.084 39.0001 23.8333" stroke="#0076CC" stroke-width="3.25" stroke-linecap="round" stroke-linejoin="round"/>
<path d="M38.2719 28.5169C38.5606 27.3277 40.2519 27.3277 40.5406 28.5169C40.7271 29.2852 41.6073 29.6497 42.2824 29.2384C43.3274 28.6016 44.5234 29.7976 43.8866 30.8426C43.4753 31.5177 43.8398 32.3979 44.6081 32.5844C45.7973 32.8731 45.7973 34.5644 44.6081 34.8531C43.8398 35.0396 43.4753 35.9198 43.8866 36.5949C44.5234 37.6399 43.3274 38.8359 42.2824 38.1991C41.6073 37.7878 40.7271 38.1523 40.5406 38.9206C40.2519 40.1098 38.5606 40.1098 38.2719 38.9206C38.0854 38.1523 37.2052 37.7878 36.5301 38.1991C35.4851 38.8359 34.2891 37.6399 34.9259 36.5949C35.3372 35.9198 34.9727 35.0396 34.2044 34.8531C33.0152 34.5644 33.0152 32.8731 34.2044 32.5844C34.9727 32.3979 35.3372 31.5177 34.9259 30.8426C34.2891 29.7976 35.4851 28.6016 36.5301 29.2384C37.2052 29.6497 38.0854 29.2852 38.2719 28.5169Z" stroke="#0076CC" stroke-width="1.625" stroke-linecap="round" stroke-linejoin="round"/>
<path d="M41.4375 33.7187C41.4375 34.8406 40.5281 35.75 39.4062 35.75C38.2844 35.75 37.375 34.8406 37.375 33.7187C37.375 32.5969 38.2844 31.6875 39.4062 31.6875C40.5281 31.6875 41.4375 32.5969 41.4375 33.7187Z" stroke="#0076CC" stroke-width="1.625" stroke-linecap="round" stroke-linejoin="round"/>
<path d="M19.5 36.8333V39C19.4985 40.5897 20.0796 42.1248 21.1334 43.315C22.1872 44.5052 23.6406 45.268 25.2188 45.459C26.7969 45.6501 28.3904 45.2562 29.6977 44.3519C31.0051 43.4475 31.9358 42.0954 32.3137 40.5513" stroke="#0076CC" stroke-width="2.6" stroke-linecap="round" stroke-linejoin="round"/>
</g>
<defs>
<clipPath id="clip0_1335_43877">
<rect width="52" height="52" fill="white"/>
</clipPath>
</defs>
</svg>
