<svg width="43" height="48" viewBox="0 0 43 48" fill="none" xmlns="http://www.w3.org/2000/svg">
<path d="M6.5061 11.8166C6.5061 14.3989 7.53191 16.8754 9.35787 18.7014C11.1838 20.5273 13.6603 21.5532 16.2426 21.5532C18.8249 21.5532 21.3014 20.5273 23.1274 18.7014C24.9534 16.8754 25.9792 14.3989 25.9792 11.8166C25.9792 9.23432 24.9534 6.7578 23.1274 4.93184C21.3014 3.10589 18.8249 2.08008 16.2426 2.08008C13.6603 2.08008 11.1838 3.10589 9.35787 4.93184C7.53191 6.7578 6.5061 9.23432 6.5061 11.8166Z" stroke="#0076CC" stroke-width="3.25" stroke-linecap="round" stroke-linejoin="round"/>
<path d="M1.63745 45.8945V41.0262C1.63745 38.444 2.66326 35.9674 4.48921 34.1415C6.31517 32.3155 8.79169 31.2897 11.374 31.2897H17.4593" stroke="#0076CC" stroke-width="3.25" stroke-linecap="round" stroke-linejoin="round"/>
<path d="M31.8717 32.477C32.2412 30.9548 34.4061 30.9548 34.7757 32.477C35.0144 33.4603 36.141 33.927 37.0051 33.4005C38.3428 32.5854 39.8736 34.1162 39.0585 35.4539C38.532 36.318 38.9987 37.4446 39.982 37.6833C41.5042 38.0529 41.5042 40.2178 39.982 40.5873C38.9987 40.826 38.532 41.9526 39.0585 42.8168C39.8736 44.1545 38.3428 45.6853 37.0051 44.8702C36.141 44.3437 35.0144 44.8103 34.7757 45.7937C34.4061 47.3159 32.2412 47.3159 31.8717 45.7937C31.633 44.8103 30.5064 44.3437 29.6422 44.8702C28.3046 45.6853 26.7738 44.1545 27.5888 42.8168C28.1153 41.9526 27.6487 40.826 26.6654 40.5873C25.1431 40.2178 25.1431 38.0529 26.6653 37.6833C27.6487 37.4446 28.1153 36.318 27.5888 35.4539C26.7738 34.1162 28.3046 32.5854 29.6422 33.4005C30.5064 33.927 31.633 33.4603 31.8717 32.477Z" stroke="#0076CC" stroke-width="1.95" stroke-linecap="round" stroke-linejoin="round"/>
<path d="M35.9237 39.1353C35.9237 40.5713 34.7596 41.7353 33.3237 41.7353C31.8877 41.7353 30.7237 40.5713 30.7237 39.1353C30.7237 37.6994 31.8877 36.5353 33.3237 36.5353C34.7596 36.5353 35.9237 37.6994 35.9237 39.1353Z" stroke="#0076CC" stroke-width="1.95" stroke-linecap="round" stroke-linejoin="round"/>
</svg>
