<svg width="210" height="396" viewBox="0 0 210 396" fill="none" xmlns="http://www.w3.org/2000/svg">
<g opacity="0.2">
<g opacity="0.2">
<path d="M73.2575 17.3218L49.2763 47.204C49.1581 47.3504 49.0135 47.4738 48.8495 47.5638L23.0236 61.9511C22.3217 62.3426 21.4346 62.0905 21.0431 61.3886C20.9179 61.1647 20.8579 60.9213 20.8579 60.6815C20.8579 60.1701 21.1277 59.6746 21.6057 59.4083L47.1829 45.1603L70.986 15.5003C71.4886 14.8725 72.4057 14.772 73.0335 15.2763C73.6614 15.7789 73.7619 16.6959 73.2575 17.3236V17.3218Z" fill="url(#paint0_linear_1075_3641)"/>
<path d="M126.989 -44.1231C126.382 -44.4616 125.62 -44.3241 125.169 -43.7933C125.139 -43.758 122.116 -40.1996 119.095 -36.5106C115.323 -31.9029 113.744 -29.7815 113.062 -28.7129C111.014 -29.4976 105.529 -32.677 100.965 -35.5813C100.665 -35.7735 100.304 -35.8475 99.9529 -35.7911L74.3633 -31.6877C73.9541 -31.6225 73.5908 -31.3844 73.3669 -31.0353C73.2152 -30.799 73.1376 -30.5257 73.1376 -30.2506C73.1376 -30.1201 73.1552 -29.9878 73.1923 -29.8591L78.5183 -10.8252C78.5218 -10.8129 78.5271 -10.7988 78.5306 -10.7864C78.5377 -10.7635 78.5447 -10.7406 78.5536 -10.7177C78.5641 -10.6877 78.5765 -10.6577 78.5906 -10.6277C78.5959 -10.6154 78.5994 -10.6048 78.6047 -10.5925C78.6082 -10.5854 78.6118 -10.5801 78.6135 -10.5748C78.6259 -10.5484 78.6417 -10.5219 78.6559 -10.4955C78.6647 -10.4796 78.6735 -10.462 78.6841 -10.4461C78.6999 -10.4214 78.7158 -10.3985 78.7317 -10.3756C78.7423 -10.3597 78.7546 -10.3421 78.767 -10.3262C78.7828 -10.305 78.7987 -10.2856 78.8163 -10.2662C78.8304 -10.2486 78.8446 -10.2327 78.8604 -10.2151C78.8763 -10.1975 78.8939 -10.1834 78.9098 -10.1657C78.9274 -10.1481 78.9451 -10.1322 78.9627 -10.1146C78.9786 -10.1005 78.9962 -10.0881 79.0139 -10.074C79.0333 -10.0582 79.0527 -10.0423 79.0738 -10.0282C79.0915 -10.0158 79.1091 -10.0035 79.1285 -9.99291C79.1497 -9.97881 79.1691 -9.96646 79.192 -9.95412C79.2114 -9.94177 79.2326 -9.93295 79.2537 -9.92238C79.2749 -9.9118 79.2943 -9.90122 79.3154 -9.8924C79.3384 -9.88182 79.3631 -9.87301 79.386 -9.86243C79.4054 -9.85538 79.4248 -9.84656 79.4442 -9.8395C79.4706 -9.83069 79.4971 -9.82363 79.5235 -9.81481C79.5412 -9.80952 79.5606 -9.80424 79.5782 -9.79895C79.6047 -9.79189 79.6329 -9.78836 79.6593 -9.78307C79.6787 -9.77955 79.6981 -9.77602 79.7175 -9.77249C79.744 -9.76897 79.7687 -9.7672 79.7951 -9.76544C79.8163 -9.76368 79.8392 -9.76191 79.8604 -9.76015C79.8833 -9.76015 79.9062 -9.76015 79.9292 -9.76015C79.9539 -9.76015 79.9803 -9.76015 80.005 -9.76015C80.0244 -9.76015 80.0456 -9.76368 80.065 -9.76544C80.0932 -9.76897 80.1232 -9.77074 80.1514 -9.77602C80.169 -9.77955 80.1867 -9.78307 80.2043 -9.78661C80.2343 -9.79189 80.2642 -9.79894 80.296 -9.80776C80.3013 -9.80776 80.3083 -9.80952 80.3136 -9.81128C80.326 -9.81481 80.3383 -9.8201 80.3524 -9.82363C80.3789 -9.83244 80.4053 -9.84126 80.4318 -9.85008C80.4565 -9.8589 80.4794 -9.86948 80.5023 -9.87829C80.5164 -9.88358 80.5305 -9.88888 80.5447 -9.89594L113.741 -25.6217C113.973 -25.6323 114.18 -25.6799 114.377 -25.761C114.517 -25.8192 114.642 -25.895 114.756 -25.9832L140.156 -33.9607C140.156 -33.9607 140.161 -33.9625 140.163 -33.9643C140.164 -33.9643 140.168 -33.9643 140.17 -33.966C140.187 -33.9713 140.205 -33.9801 140.224 -33.9872C140.251 -33.9978 140.279 -34.0066 140.304 -34.0172C140.32 -34.0242 140.335 -34.033 140.351 -34.0401C140.38 -34.0542 140.41 -34.0683 140.438 -34.0842C140.45 -34.0912 140.462 -34.1 140.475 -34.1071C140.505 -34.1247 140.535 -34.1441 140.563 -34.1635C140.574 -34.1706 140.584 -34.1794 140.595 -34.1882C140.623 -34.2094 140.651 -34.2323 140.678 -34.2552C140.688 -34.264 140.699 -34.2746 140.709 -34.2834C140.734 -34.3063 140.759 -34.331 140.782 -34.3557C140.792 -34.3681 140.803 -34.3786 140.813 -34.391C140.835 -34.4157 140.856 -34.4404 140.875 -34.465C140.886 -34.4792 140.896 -34.4933 140.905 -34.5074C140.923 -34.5321 140.94 -34.5585 140.956 -34.585C140.965 -34.6008 140.974 -34.6167 140.984 -34.6326C141 -34.659 141.014 -34.6872 141.029 -34.7155C141.032 -34.7243 141.037 -34.7313 141.041 -34.7401L154.053 -63.0088L174.531 -91.9546L223.808 -24.6942L186.254 9.32663L185.884 9.20672C185.884 9.20672 185.875 9.20496 185.869 9.20319C185.834 9.19261 185.797 9.18203 185.762 9.17322C185.757 9.17322 185.751 9.16969 185.746 9.16969C185.704 9.16087 185.661 9.15382 185.619 9.14853C185.607 9.14853 185.596 9.14677 185.584 9.145C185.552 9.14148 185.52 9.13971 185.488 9.13795C185.474 9.13795 185.462 9.13795 185.448 9.13795C185.416 9.13795 185.386 9.13795 185.354 9.13971C185.342 9.13971 185.33 9.13972 185.317 9.14148C185.28 9.145 185.245 9.14853 185.208 9.15382C185.201 9.15382 185.196 9.15382 185.189 9.15734C185.146 9.1644 185.102 9.17322 185.06 9.18556C185.051 9.18732 185.044 9.19085 185.035 9.19261C185.009 9.19966 184.982 9.20672 184.956 9.2173C184.949 9.21906 184.944 9.22259 184.936 9.22435C184.924 9.22964 184.91 9.23493 184.898 9.24023C184.869 9.25081 184.841 9.26315 184.815 9.2755C184.808 9.27902 184.801 9.28078 184.794 9.28431C184.713 9.3231 176.589 13.2836 168.574 17.4417C163.855 19.8893 160.089 21.9277 157.386 23.5006C156.218 24.1796 155.236 24.7791 154.451 25.2922L142.383 -2.23406C142.06 -2.97115 141.201 -3.3062 140.464 -2.9835C139.917 -2.74368 139.593 -2.20937 139.593 -1.64862C139.593 -1.45289 139.632 -1.25539 139.716 -1.06495L151.753 26.3891L151.626 28.163C151.615 28.2388 151.608 28.3164 151.608 28.3958V28.4028C151.608 28.4028 151.608 28.4046 151.608 28.4064L149.527 57.4492L100.944 33.2556C100.563 33.067 100.12 33.0529 99.7289 33.2168C99.3374 33.3826 99.0376 33.7106 98.9089 34.1144L73.0071 115.03L13.1246 105.392C12.6749 105.32 12.2181 105.461 11.8901 105.775C11.5603 106.088 11.3963 106.538 11.4457 106.989L23.8419 219.468L1.44614 219.615C0.645471 219.62 0 220.271 0 221.071V221.08C0.00529075 221.884 0.661344 222.531 1.46554 222.526L25.4662 222.369C25.6601 222.369 25.8559 222.33 26.0411 222.251C26.0411 222.251 26.0428 222.251 26.0446 222.251C26.0446 222.251 26.0481 222.251 26.0499 222.249C26.0746 222.238 26.0975 222.228 26.1204 222.216L91.6641 189.59L48.0718 297.471L24.2087 266.023C23.722 265.383 22.8084 265.256 22.1683 265.743C21.5281 266.229 21.4029 267.143 21.8878 267.783L46.377 300.058L4.93451 328.524C4.50596 328.819 4.26435 329.319 4.30667 329.838C4.34723 330.356 4.66115 330.815 5.13203 331.037L31.7569 343.737L23.0888 394.298C22.9918 394.864 23.237 395.436 23.7149 395.755C24.1928 396.074 24.8136 396.083 25.3004 395.776L84.3117 358.637C84.3117 358.637 84.3258 358.629 84.3328 358.623C84.3328 358.623 84.3346 358.623 84.3364 358.621C84.3364 358.621 84.3399 358.621 84.3399 358.618C84.3399 358.618 84.3417 358.618 84.3434 358.616C84.3593 358.606 84.3752 358.595 84.3893 358.584L136.911 320.836C136.921 320.829 136.93 320.822 136.939 320.815C136.939 320.815 136.941 320.815 136.942 320.813C136.942 320.813 136.944 320.811 136.946 320.809C136.985 320.779 137.022 320.749 137.057 320.716C137.057 320.716 137.062 320.711 137.066 320.709L179.954 281.38C180.335 281.222 180.616 280.92 180.755 280.56L217.688 230.255C217.688 230.255 217.692 230.249 217.693 230.248C217.702 230.235 217.709 230.225 217.718 230.212C217.722 230.209 217.723 230.205 217.727 230.2L233.959 205.823C233.987 205.781 234.012 205.739 234.035 205.694C234.038 205.687 234.042 205.679 234.045 205.672C234.068 205.624 234.089 205.576 234.107 205.529C234.112 205.513 234.119 205.497 234.125 205.479C234.142 205.426 234.156 205.374 234.169 205.321C234.169 205.315 234.172 205.312 234.172 205.306L241.107 170.854V170.85L257.836 152.534L298.589 129.425C298.875 129.263 299.097 129.011 299.22 128.705L311.539 98.3701L356.207 98.3013C356.815 98.3013 357.36 97.9204 357.572 97.3491L372.143 57.7842L407.005 58.2833C407.499 58.2903 407.963 58.047 408.236 57.6361L425.107 32.4022L425.175 93.0905L377.232 124.63C377.195 124.655 377.158 124.681 377.123 124.71L319.519 170.845C319.5 170.861 319.484 170.878 319.466 170.894C319.44 170.917 319.413 170.94 319.389 170.967C319.366 170.989 319.346 171.014 319.325 171.039C319.302 171.065 319.279 171.093 319.258 171.122C319.239 171.146 319.223 171.175 319.205 171.201C319.186 171.231 319.166 171.261 319.151 171.291C319.135 171.319 319.122 171.349 319.108 171.377C319.094 171.409 319.08 171.441 319.068 171.474C319.064 171.485 319.057 171.496 319.054 171.506C317.771 175.223 287.628 262.574 286.9 264.903C286.311 266.771 265.308 318.974 254.286 346.317C254.215 346.493 254.18 346.678 254.18 346.862C254.18 347.246 254.332 347.623 254.617 347.902C255.039 348.315 255.667 348.433 256.208 348.2L309.59 325.355C309.59 325.355 309.594 325.354 309.595 325.352C309.647 325.329 309.696 325.304 309.745 325.276C309.756 325.271 309.765 325.264 309.775 325.257C309.812 325.234 309.848 325.211 309.881 325.186C309.895 325.176 309.909 325.163 309.925 325.153C309.955 325.13 309.983 325.105 310.01 325.079C310.022 325.066 310.035 325.056 310.047 325.043C310.082 325.008 310.116 324.971 310.147 324.932C310.149 324.929 310.153 324.927 310.154 324.923C310.19 324.881 310.22 324.835 310.25 324.788C310.257 324.777 310.262 324.766 310.267 324.758C310.29 324.721 310.31 324.682 310.329 324.643C310.336 324.629 310.341 324.617 310.348 324.602C310.366 324.564 310.38 324.525 310.394 324.484C310.4 324.47 310.403 324.458 310.408 324.444C310.424 324.394 310.437 324.343 310.447 324.29C310.447 324.287 310.447 324.285 310.449 324.282C310.458 324.232 310.465 324.181 310.468 324.13C310.708 321.039 312.198 289.987 312.354 286.743L332.452 233.189L354.472 189.521L393.909 144.061L447.208 107.938C447.208 107.938 447.211 107.936 447.213 107.935C447.259 107.905 447.301 107.869 447.344 107.834C447.356 107.824 447.368 107.813 447.379 107.802C447.409 107.774 447.439 107.744 447.467 107.714C447.478 107.704 447.488 107.693 447.499 107.681C447.502 107.677 447.506 107.674 447.509 107.67L459.886 92.99C460.405 92.3764 460.327 91.4559 459.712 90.9392C459.096 90.4208 458.177 90.4984 457.661 91.1138L447.7 102.928L445.816 56.7615L452.183 15.5672C452.266 15.0276 452.04 14.4863 451.599 14.1653C451.157 13.8444 450.573 13.7986 450.086 14.0454L426.867 25.8248L405.062 2.982L456.472 5.03809C457.276 5.06984 457.953 4.4456 457.985 3.6415C458.015 2.83917 457.393 2.16026 456.588 2.12852L403.711 0.0142365L431.223 -62.9118C431.546 -63.6489 431.209 -64.5077 430.471 -64.8286C429.734 -65.1513 428.875 -64.8145 428.554 -64.0774L401.822 -2.93237L381.326 -75.8409C381.326 -75.8409 381.326 -75.8444 381.326 -75.8462C381.326 -75.8462 381.326 -75.8515 381.324 -75.8533C381.31 -75.9009 381.294 -75.9485 381.275 -75.9961C381.269 -76.0084 381.264 -76.0208 381.259 -76.0331C381.243 -76.0684 381.227 -76.1054 381.208 -76.1389C381.201 -76.153 381.192 -76.1654 381.185 -76.1795C381.167 -76.2112 381.146 -76.243 381.126 -76.2729C381.118 -76.287 381.107 -76.2994 381.098 -76.3135C381.077 -76.3417 381.056 -76.3699 381.031 -76.3964C381.019 -76.4105 381.008 -76.4246 380.996 -76.4369C380.973 -76.4616 380.95 -76.4845 380.925 -76.5075C380.911 -76.5216 380.897 -76.5357 380.881 -76.548C380.878 -76.5516 380.874 -76.5551 380.871 -76.5586C380.846 -76.5798 380.82 -76.5974 380.795 -76.6168C380.783 -76.6256 380.77 -76.6362 380.758 -76.645C380.714 -76.675 380.668 -76.7032 380.622 -76.7297C380.618 -76.7314 380.615 -76.7332 380.61 -76.7349C380.566 -76.7579 380.523 -76.779 380.477 -76.7967C380.474 -76.7967 380.47 -76.8002 380.467 -76.802L346.474 -90.5016C346.474 -90.5016 346.474 -90.5016 346.472 -90.5016L346.454 -90.5087C346.442 -90.514 346.428 -90.5175 346.416 -90.5228C346.386 -90.5334 346.357 -90.5439 346.327 -90.5545C346.31 -90.5598 346.294 -90.5633 346.276 -90.5669C346.248 -90.5739 346.218 -90.5827 346.19 -90.588C346.169 -90.5916 346.149 -90.5951 346.128 -90.5968C346.102 -90.6004 346.075 -90.6057 346.049 -90.6074C346.022 -90.6092 345.996 -90.611 345.969 -90.611C345.948 -90.611 345.929 -90.6127 345.908 -90.6127C345.871 -90.6127 345.834 -90.611 345.797 -90.6074C345.786 -90.6074 345.775 -90.6074 345.767 -90.6074C345.767 -90.6074 345.765 -90.6074 345.763 -90.6074C345.722 -90.6039 345.684 -90.5968 345.643 -90.5898C345.634 -90.5898 345.625 -90.588 345.617 -90.5863C345.597 -90.5827 345.578 -90.5757 345.558 -90.5704C345.481 -90.551 345.405 -90.5263 345.333 -90.4963L281.085 -63.2292L268.22 -88.2657C267.853 -88.9816 266.975 -89.262 266.259 -88.8952C265.543 -88.5284 265.262 -87.6485 265.629 -86.9343L278.521 -61.8432L226.102 -26.4699L175.683 -95.2892C175.406 -95.6666 174.965 -95.8887 174.496 -95.8852C174.027 -95.8817 173.59 -95.6524 173.32 -95.2698L151.594 -64.5641C151.543 -64.4918 151.497 -64.4125 151.46 -64.3314L139.05 -37.3693L126.987 -44.1001L126.989 -44.1231ZM138.99 261.163L117.779 224.245L150.062 206.804L138.99 261.165V261.163ZM152.86 210.436L166.213 247.606L138.066 311.504L141.094 265.432L152.86 210.436ZM154.628 206.74L178.614 219.454L167.918 243.738L154.629 206.74H154.628ZM154.229 203.235L178.106 160.448L178.997 216.363L154.229 203.235ZM277.849 72.3938L278.92 90.65C275.835 94.2244 260.972 111.475 259.652 113.505C258.788 114.835 250.318 124.822 243.632 132.624L241.57 95.1889L250.579 77.7033L277.847 72.3938H277.849ZM239.477 92.8966L221.118 54.9117L250.394 35.0296L248.172 76.0193L239.477 92.8966ZM240.764 133.486L217.039 117.573L238.81 97.9892L240.764 133.486ZM240.211 136.621L224.481 155.059L216.889 120.98L240.211 136.621ZM222.095 157.743L208.972 171.252L215.032 126.041L222.095 157.743ZM205.648 174.126L181.866 213.69L180.944 155.777L212.628 122.047L205.648 174.126ZM153.649 198.297L146.249 119.594L177.745 155.117L153.649 198.297ZM150.869 199.842L114.91 159.905L143.302 119.37L150.869 199.84V199.842ZM111.196 160.132L95.0025 183.25L77.2044 122.38L111.198 160.132H111.196ZM77.2291 118.056L141.545 116.804L112.91 157.685L77.2291 118.056ZM146.982 116.03L187.691 103.778L212.36 118.081L179.663 152.888L146.984 116.03H146.982ZM189.349 101.373L219.055 57.3275L237.421 95.3265L214.492 115.951L189.351 101.373H189.349ZM189.16 96.4445L188.319 68.5073C188.31 68.1899 188.197 67.8848 187.998 67.638C187.984 67.6221 187.744 67.3223 187.314 66.7915L186.926 14.8989L217.468 54.4691L189.16 96.4445ZM189.467 13.4247L248.732 32.6402L219.58 52.4377L189.469 13.4247H189.467ZM253.455 32.4269L264.941 -5.40814L310.511 14.943L278.29 69.3414L251.17 74.6227L253.457 32.4269H253.455ZM330.159 55.148H330.014L314.895 16.1791L359.568 24.3647L330.159 55.148ZM361.741 26.3079L369.256 54.8588L334.215 55.1198L361.741 26.3097V26.3079ZM315.033 13.2449L349.668 -38.7924L360.676 21.6068L315.033 13.2449ZM265.793 -8.21719L280.641 -57.1227L309.805 11.4374L265.795 -8.21719H265.793ZM282.946 -59.14L347.424 -40.6792L312.877 11.2258L282.946 -59.14ZM344.659 -87.0666L349.034 -43.2467L284.766 -61.6475L344.659 -87.0666ZM377.502 -74.8781L351.807 -44.7984L347.601 -86.9308L377.502 -74.8781ZM398.813 -2.90238L353.396 -42.1745L379.261 -72.4535L398.813 -2.90414V-2.90238ZM374.169 15.1475L363.551 21.1448L352.583 -39.0251L399.009 1.11812L374.169 15.1475ZM307.76 320.739L292.635 306.009L309.289 290.016C308.936 297.327 308.144 313.655 307.76 320.739ZM289.254 266.926L308.837 286.415L289.533 304.953C289.249 305.226 289.087 305.604 289.085 305.999V306.004C289.085 306.397 289.244 306.773 289.526 307.046L306.447 323.525L258.314 344.123C264.016 329.974 285.852 275.759 289.254 266.926ZM290.919 264.473L328.016 236.735L310.348 283.81L290.919 264.473ZM319.981 177.761L329.536 231.962L291.515 260.393C297.18 243.861 314.32 194.169 319.981 177.763V177.761ZM322.38 174.592L351.31 189.329L331.799 228.021L322.38 174.592ZM373.61 131.248L352.48 186.657L323.11 171.695L373.61 131.248ZM377.435 129.393L390.958 143.017L357.556 181.52L377.435 129.393ZM421.241 99.1583L392.74 140.675L379.067 126.902L421.241 99.1583ZM427.04 95.8555L443.774 106.741L398.505 137.422L427.038 95.8573L427.04 95.8555ZM428.025 28.491L448.88 17.9107L442.924 56.4405C442.91 56.534 442.905 56.6274 442.908 56.7227L444.836 103.958L428.096 93.0711L428.024 28.491H428.025ZM406.266 55.3455L372.27 54.8588L364.182 24.1337L401.258 3.19185L424.708 27.7574L406.265 55.3437L406.266 55.3455ZM309.714 95.256L281.801 89.9341L280.69 71.0025L312.324 17.5969L327.316 56.2377L309.714 95.256ZM312.825 95.4411L329.122 59.3148C329.162 59.3272 329.203 59.336 329.245 59.3448C329.734 59.4418 330.238 59.2831 330.582 58.9216L331.416 58.0487L369.051 57.7683L355.202 95.3741L312.826 95.4393L312.825 95.4411ZM257.192 149.543L244.353 136.262C248.096 131.904 260.845 117.02 262.1 115.09C263.046 113.636 273.694 101.169 280.967 92.7396L308.551 97.998L296.725 127.127L257.194 149.543H257.192ZM239.354 168.45L225.818 157.979L242.449 138.483L254.93 151.395L239.352 168.45H239.354ZM231.901 201.778L209.103 175.294L223.838 160.127L237.893 171L231.901 201.776V201.778ZM217.335 225.536L209.466 180.18L230.931 205.116L217.334 225.536H217.335ZM214.69 227.324L182.714 217.932L206.264 178.755L214.69 227.324ZM179.833 276.898L169.35 247.714L181.312 220.556L214.122 230.193L179.833 276.9V276.898ZM140.205 313.878L167.645 251.583L177.678 279.515L140.205 313.878ZM134.734 317.854L91.3519 308.319L137.972 268.573L134.734 317.854ZM85.003 309.906L64.9122 327.036L51.3062 302.5L85.003 309.906ZM83.9113 355.34L66.4377 329.559L88.5707 310.689L132.577 320.362L83.9113 355.34ZM34.5469 344.74L80.0226 357.893L26.519 391.565L34.5469 344.74ZM37.6631 342.61L63.9758 331.116L80.0808 354.878L37.6631 342.61ZM47.9713 302.493L62.452 328.604L33.4129 341.288L8.67154 329.487L47.973 302.493H47.9713ZM132.212 269.657L87.7824 307.536L53.5071 300.003L132.211 269.657H132.212ZM53.4648 296.9L115.529 226.164L137.544 264.482L53.4648 296.9ZM94.6886 189.888L113.996 223.494L53.0345 292.975L94.6886 189.886V189.888ZM96.1841 186.645L113.201 162.351L150.187 203.427L116.335 221.716L96.1841 186.645ZM28.5507 217.749L73.7072 120.781L92.7204 185.807L28.5507 217.749ZM71.8872 117.792L26.3515 215.573L14.5584 108.564L71.8872 117.792ZM149.481 60.6673C149.647 61.0323 149.961 61.318 150.351 61.4467L143.117 113.86L76.0299 115.166L101.175 36.6131L149.483 60.6691L149.481 60.6673ZM154.305 31.6351C159.62 37.4278 174.306 55.3155 184.413 67.8266L184.425 69.5442C184.43 70.2054 184.877 70.7591 185.481 70.9337L186.374 100.58L185.912 101.266C185.912 101.266 185.908 101.271 185.906 101.274L146.139 113.244L153.421 60.4857C153.506 59.8668 153.187 59.2619 152.628 58.9833L152.354 58.8475L154.303 31.6369L154.305 31.6351ZM184.004 12.9133L184.379 63.1572C181.321 59.3871 176.704 53.7143 172.024 48.0363C161.066 34.7439 156.897 30.0569 155.155 28.3235C156.592 27.2884 160.461 24.9008 170.867 19.5295C176.099 16.828 181.242 14.2729 184.004 12.9116V12.9133ZM226.039 -22.7862L262.266 -6.60723L251.053 30.3284L189.457 10.3564L226.039 -22.7862ZM228.753 -24.763L277.832 -57.8809L263.118 -9.41452L228.753 -24.7612V-24.763ZM109.855 -27.006L80.8639 -13.2728L76.4443 -29.0726L99.8806 -32.8304C100.87 -32.2079 103.281 -30.7073 105.766 -29.2613C107.365 -28.332 108.736 -27.5755 109.855 -27.006ZM126.624 -40.9966L136.062 -35.7312L117.548 -29.9155C119.739 -32.7334 123.218 -36.9726 126.622 -40.9966H126.624Z" fill="url(#paint1_linear_1075_3641)"/>
<path d="M179.699 354.597C179.997 354.636 180.29 354.49 180.434 354.225L195.977 325.809C196.111 325.562 196.093 325.26 195.929 325.033C195.765 324.805 195.485 324.692 195.209 324.742L164.92 330.213C164.659 330.261 164.444 330.446 164.359 330.697L157.594 350.787C157.568 350.863 157.555 350.94 157.555 351.02C157.555 351.154 157.592 351.288 157.665 351.404C157.779 351.589 157.971 351.713 158.187 351.741L179.699 354.597ZM179.395 353.088L159.255 350.413L165.601 331.57L193.968 326.447L179.397 353.09L179.395 353.088Z" fill="url(#paint2_linear_1075_3641)"/>
</g>
<path d="M25.4009 212.332C21.4081 212.332 18.1702 215.569 18.1702 219.562C18.1702 223.554 21.4063 226.791 25.4009 226.791C29.3954 226.791 32.6316 223.554 32.6316 219.562C32.6316 215.569 29.3954 212.332 25.4009 212.332Z" fill="url(#paint3_linear_1075_3641)"/>
<path d="M49.8669 294.616C45.8742 294.616 42.6362 297.854 42.6362 301.846C42.6362 305.838 45.8724 309.076 49.8669 309.076C53.8614 309.076 57.0976 305.84 57.0976 301.846C57.0976 297.852 53.8614 294.616 49.8669 294.616Z" fill="url(#paint4_linear_1075_3641)"/>
<path d="M92.9971 190.595C96.0253 190.595 98.4801 188.14 98.4801 185.112C98.4801 182.084 96.0253 179.63 92.9971 179.63C89.969 179.63 87.5142 182.084 87.5142 185.112C87.5142 188.14 89.969 190.595 92.9971 190.595Z" fill="url(#paint5_linear_1075_3641)"/>
<path d="M138.799 259.634C135.449 259.634 132.734 262.35 132.734 265.699C132.734 269.047 135.45 271.763 138.799 271.763C142.148 271.763 144.864 269.047 144.864 265.699C144.864 262.35 142.148 259.634 138.799 259.634Z" fill="url(#paint6_linear_1075_3641)"/>
<path d="M144.961 120.245C147.651 119.804 149.475 117.267 149.034 114.576C148.594 111.886 146.056 110.063 143.365 110.503C140.675 110.944 138.851 113.482 139.292 116.172C139.732 118.862 142.27 120.685 144.961 120.245Z" fill="url(#paint7_linear_1075_3641)"/>
<path d="M180.861 149.413C178.235 149.413 176.106 151.541 176.106 154.167C176.106 156.793 178.235 158.921 180.861 158.921C183.487 158.921 185.615 156.793 185.615 154.167C185.615 151.541 183.487 149.413 180.861 149.413Z" fill="url(#paint8_linear_1075_3641)"/>
<path d="M186.527 16.6088C189.147 16.4224 191.119 14.1482 190.933 11.5293C190.746 8.9103 188.472 6.93826 185.852 7.12462C183.233 7.31097 181.261 9.58514 181.447 12.2041C181.634 14.8231 183.908 16.7951 186.527 16.6088Z" fill="url(#paint9_linear_1075_3641)"/>
<path d="M180.861 212.028C177.925 212.028 175.544 214.409 175.544 217.345C175.544 220.281 177.925 222.662 180.861 222.662C183.797 222.662 186.178 220.281 186.178 217.345C186.178 214.409 183.797 212.028 180.861 212.028Z" fill="url(#paint10_linear_1075_3641)"/>
<path d="M21.0413 58.3591C19.3677 58.3591 18.0115 59.7152 18.0115 61.3886C18.0115 63.0621 19.3677 64.4181 21.0413 64.4181C22.715 64.4181 24.0711 63.0621 24.0711 61.3886C24.0711 59.7152 22.715 58.3591 21.0413 58.3591Z" fill="url(#paint11_linear_1075_3641)"/>
<path d="M73.1392 13.2219C71.4656 13.2219 70.1094 14.578 70.1094 16.2514C70.1094 17.9248 71.4656 19.2809 73.1392 19.2809C74.8129 19.2809 76.1691 17.9248 76.1691 16.2514C76.1691 14.578 74.8129 13.2219 73.1392 13.2219Z" fill="url(#paint12_linear_1075_3641)"/>
<path d="M22.3709 263.165C20.6973 263.165 19.3411 264.521 19.3411 266.194C19.3411 267.868 20.6973 269.224 22.3709 269.224C24.0445 269.224 25.4007 267.868 25.4007 266.194C25.4007 264.521 24.0445 263.165 22.3709 263.165Z" fill="url(#paint13_linear_1075_3641)"/>
<path d="M179.794 276.552C178.12 276.552 176.764 277.908 176.764 279.582C176.764 281.255 178.12 282.611 179.794 282.611C181.467 282.611 182.824 281.255 182.824 279.582C182.824 277.908 181.467 276.552 179.794 276.552Z" fill="url(#paint14_linear_1075_3641)"/>
<path d="M82.1812 353.876C80.5076 353.876 79.1514 355.232 79.1514 356.906C79.1514 358.579 80.5076 359.935 82.1812 359.935C83.8548 359.935 85.211 358.579 85.211 356.906C85.211 355.232 83.8548 353.876 82.1812 353.876Z" fill="url(#paint15_linear_1075_3641)"/>
<path d="M34.7833 340.117C33.1096 340.117 31.7534 341.473 31.7534 343.146C31.7534 344.82 33.1096 346.176 34.7833 346.176C36.4569 346.176 37.8131 344.82 37.8131 343.146C37.8131 341.473 36.4569 340.117 34.7833 340.117Z" fill="url(#paint16_linear_1075_3641)"/>
<path d="M24.0567 0.301595C25.2399 -0.881491 25.2399 -2.79966 24.0566 -3.98274C22.8734 -5.16583 20.955 -5.16583 19.7718 -3.98274C18.5886 -2.79966 18.5886 -0.881497 19.7718 0.301589C20.955 1.48467 22.8734 1.48468 24.0567 0.301595Z" fill="url(#paint17_linear_1075_3641)"/>
<path d="M141.173 -3.11597C139.5 -3.11597 138.143 -1.75993 138.143 -0.0864875C138.143 1.58696 139.5 2.94299 141.173 2.94299C142.847 2.94299 144.203 1.58696 144.203 -0.0864875C144.203 -1.75993 142.847 -3.11597 141.173 -3.11597Z" fill="url(#paint18_linear_1075_3641)"/>
<path d="M151.61 57.077C149.936 57.077 148.58 58.4331 148.58 60.1065C148.58 61.78 149.936 63.136 151.61 63.136C153.284 63.136 154.64 61.78 154.64 60.1065C154.64 58.4331 153.284 57.077 151.61 57.077Z" fill="url(#paint19_linear_1075_3641)"/>
<path d="M195.19 324.015C194.305 324.015 193.589 324.733 193.589 325.616C193.589 326.5 194.306 327.217 195.19 327.217C196.074 327.217 196.791 326.502 196.791 325.616C196.791 324.731 196.074 324.015 195.19 324.015Z" fill="url(#paint20_linear_1075_3641)"/>
<path d="M179.462 352.189C178.577 352.189 177.861 352.906 177.861 353.79C177.861 354.673 178.579 355.391 179.462 355.391C180.346 355.391 181.064 354.673 181.064 353.79C181.064 352.906 180.346 352.189 179.462 352.189Z" fill="url(#paint21_linear_1075_3641)"/>
<path d="M158.282 349.496C157.396 349.496 156.68 350.214 156.68 351.097C156.68 351.981 157.398 352.698 158.282 352.698C159.165 352.698 159.883 351.981 159.883 351.097C159.883 350.214 159.165 349.496 158.282 349.496Z" fill="url(#paint22_linear_1075_3641)"/>
<path d="M165.271 329.256C164.385 329.256 163.669 329.974 163.669 330.857C163.669 331.741 164.387 332.458 165.271 332.458C166.154 332.458 166.872 331.741 166.872 330.857C166.872 329.974 166.154 329.256 165.271 329.256Z" fill="url(#paint23_linear_1075_3641)"/>
</g>
<defs>
<linearGradient id="paint0_linear_1075_3641" x1="0.264546" y1="273.283" x2="82.9597" y2="-140.238" gradientUnits="userSpaceOnUse">
<stop offset="0.19" stop-color="#003463"/>
<stop offset="1" stop-color="#00F9FF"/>
</linearGradient>
<linearGradient id="paint1_linear_1075_3641" x1="193.34" y1="311.894" x2="276.035" y2="-101.629" gradientUnits="userSpaceOnUse">
<stop offset="0.19" stop-color="#003463"/>
<stop offset="1" stop-color="#00F9FF"/>
</linearGradient>
<linearGradient id="paint2_linear_1075_3641" x1="182.512" y1="309.728" x2="265.207" y2="-103.793" gradientUnits="userSpaceOnUse">
<stop offset="0.19" stop-color="#003463"/>
<stop offset="1" stop-color="#00F9FF"/>
</linearGradient>
<linearGradient id="paint3_linear_1075_3641" x1="20.775" y1="319.774" x2="38.2462" y2="-58.7977" gradientUnits="userSpaceOnUse">
<stop offset="0.19" stop-color="#003463"/>
<stop offset="1" stop-color="#00F9FF"/>
</linearGradient>
<linearGradient id="paint4_linear_1075_3641" x1="48.9816" y1="321.076" x2="66.4511" y2="-57.4951" gradientUnits="userSpaceOnUse">
<stop offset="0.19" stop-color="#003463"/>
<stop offset="1" stop-color="#00F9FF"/>
</linearGradient>
<linearGradient id="paint5_linear_1075_3641" x1="86.6412" y1="322.811" x2="104.112" y2="-55.753" gradientUnits="userSpaceOnUse">
<stop offset="0.19" stop-color="#003463"/>
<stop offset="1" stop-color="#00F9FF"/>
</linearGradient>
<linearGradient id="paint6_linear_1075_3641" x1="136.059" y1="325.094" x2="153.53" y2="-53.4835" gradientUnits="userSpaceOnUse">
<stop offset="0.19" stop-color="#003463"/>
<stop offset="1" stop-color="#00F9FF"/>
</linearGradient>
<linearGradient id="paint7_linear_1075_3641" x1="134.491" y1="325.013" x2="151.961" y2="-53.5576" gradientUnits="userSpaceOnUse">
<stop offset="0.19" stop-color="#003463"/>
<stop offset="1" stop-color="#00F9FF"/>
</linearGradient>
<linearGradient id="paint8_linear_1075_3641" x1="172.894" y1="326.796" x2="190.364" y2="-51.7817" gradientUnits="userSpaceOnUse">
<stop offset="0.19" stop-color="#003463"/>
<stop offset="1" stop-color="#00F9FF"/>
</linearGradient>
<linearGradient id="paint9_linear_1075_3641" x1="171.695" y1="326.688" x2="189.166" y2="-51.8867" gradientUnits="userSpaceOnUse">
<stop offset="0.19" stop-color="#003463"/>
<stop offset="1" stop-color="#00F9FF"/>
</linearGradient>
<linearGradient id="paint10_linear_1075_3641" x1="175.805" y1="326.928" x2="193.274" y2="-51.6443" gradientUnits="userSpaceOnUse">
<stop offset="0.19" stop-color="#003463"/>
<stop offset="1" stop-color="#00F9FF"/>
</linearGradient>
<linearGradient id="paint11_linear_1075_3641" x1="9.13889" y1="319.233" x2="26.6101" y2="-59.334" gradientUnits="userSpaceOnUse">
<stop offset="0.19" stop-color="#003463"/>
<stop offset="1" stop-color="#00F9FF"/>
</linearGradient>
<linearGradient id="paint12_linear_1075_3641" x1="59.0482" y1="321.543" x2="76.5176" y2="-57.0329" gradientUnits="userSpaceOnUse">
<stop offset="0.19" stop-color="#003463"/>
<stop offset="1" stop-color="#00F9FF"/>
</linearGradient>
<linearGradient id="paint13_linear_1075_3641" x1="19.9001" y1="319.737" x2="37.3715" y2="-58.8574" gradientUnits="userSpaceOnUse">
<stop offset="0.19" stop-color="#003463"/>
<stop offset="1" stop-color="#00F9FF"/>
</linearGradient>
<linearGradient id="paint14_linear_1075_3641" x1="177.605" y1="327.011" x2="195.076" y2="-51.5581" gradientUnits="userSpaceOnUse">
<stop offset="0.19" stop-color="#003463"/>
<stop offset="1" stop-color="#00F9FF"/>
</linearGradient>
<linearGradient id="paint15_linear_1075_3641" x1="83.7614" y1="322.681" x2="101.232" y2="-55.8851" gradientUnits="userSpaceOnUse">
<stop offset="0.19" stop-color="#003463"/>
<stop offset="1" stop-color="#00F9FF"/>
</linearGradient>
<linearGradient id="paint16_linear_1075_3641" x1="35.8308" y1="320.469" x2="53.3019" y2="-58.0876" gradientUnits="userSpaceOnUse">
<stop offset="0.19" stop-color="#003463"/>
<stop offset="1" stop-color="#00F9FF"/>
</linearGradient>
<linearGradient id="paint17_linear_1075_3641" x1="7.09781" y1="319.145" x2="24.5693" y2="-59.4276" gradientUnits="userSpaceOnUse">
<stop offset="0.19" stop-color="#003463"/>
<stop offset="1" stop-color="#00F9FF"/>
</linearGradient>
<linearGradient id="paint18_linear_1075_3641" x1="126.186" y1="324.634" x2="143.656" y2="-53.9331" gradientUnits="userSpaceOnUse">
<stop offset="0.19" stop-color="#003463"/>
<stop offset="1" stop-color="#00F9FF"/>
</linearGradient>
<linearGradient id="paint19_linear_1075_3641" x1="139.371" y1="325.249" x2="156.842" y2="-53.3263" gradientUnits="userSpaceOnUse">
<stop offset="0.19" stop-color="#003463"/>
<stop offset="1" stop-color="#00F9FF"/>
</linearGradient>
<linearGradient id="paint20_linear_1075_3641" x1="195.089" y1="327.819" x2="212.559" y2="-50.7236" gradientUnits="userSpaceOnUse">
<stop offset="0.19" stop-color="#003463"/>
<stop offset="1" stop-color="#00F9FF"/>
</linearGradient>
<linearGradient id="paint21_linear_1075_3641" x1="180.693" y1="327.152" x2="198.164" y2="-51.4306" gradientUnits="userSpaceOnUse">
<stop offset="0.19" stop-color="#003463"/>
<stop offset="1" stop-color="#00F9FF"/>
</linearGradient>
<linearGradient id="paint22_linear_1075_3641" x1="159.433" y1="326.172" x2="176.904" y2="-52.4108" gradientUnits="userSpaceOnUse">
<stop offset="0.19" stop-color="#003463"/>
<stop offset="1" stop-color="#00F9FF"/>
</linearGradient>
<linearGradient id="paint23_linear_1075_3641" x1="165.475" y1="326.452" x2="182.946" y2="-52.1324" gradientUnits="userSpaceOnUse">
<stop offset="0.19" stop-color="#003463"/>
<stop offset="1" stop-color="#00F9FF"/>
</linearGradient>
</defs>
</svg>
