<svg width="124" height="109" viewBox="0 0 124 109" fill="none" xmlns="http://www.w3.org/2000/svg">
<g style="mix-blend-mode:multiply">
<path d="M56.7882 58.9238L33.9114 78.5763C37.2713 73.8895 39.4562 68.2086 39.4562 63.1845C39.4562 58.9948 37.969 55.8526 35.2517 54.3436C32.516 52.8168 28.9174 53.1541 25.1168 55.2845C17.4606 59.5629 11.2365 69.9306 11.2365 78.4343C11.2365 82.624 12.7236 85.7663 15.441 87.2753C16.5609 87.8966 17.8461 88.2162 19.2232 88.2162C20.692 88.2162 22.271 87.8611 23.9234 87.151L0 107.709L0.605884 108.366L57.3941 59.5984L56.7882 58.9238ZM15.9183 86.4941C13.5131 85.1449 12.1912 82.2867 12.1912 78.4165C12.1912 70.2147 18.2134 60.1665 25.6125 56.0478C27.7056 54.8761 29.7069 54.2903 31.5062 54.2903C32.7179 54.2903 33.8563 54.5566 34.8294 55.1069C37.2346 56.4561 38.5565 59.3144 38.5565 63.1845C38.5565 71.3864 32.5343 81.4345 25.1352 85.5532C21.6284 87.506 18.3419 87.8433 15.9183 86.4941Z" fill="url(#paint0_linear_1068_10943)"/>
</g>
<path d="M54.7681 61.9947L123.986 0.782623L60.166 48.2007L54.7681 61.9947Z" fill="#0076CC"/>
<path d="M84.6038 61.9947L32.5525 29.9329L123.986 0.782623L84.6038 61.9947Z" fill="#004577"/>
<path d="M52.4919 42.2002L54.7686 61.9947L64.3527 49.5144L123.987 0.782623L52.4919 42.2002Z" fill="#33A3FF"/>
<defs>
<linearGradient id="paint0_linear_1068_10943" x1="28.697" y1="53.4008" x2="28.697" y2="108.366" gradientUnits="userSpaceOnUse">
<stop stop-color="#0076CC"/>
<stop offset="1" stop-color="#0076CC" stop-opacity="0"/>
</linearGradient>
</defs>
</svg>
