<svg width="50" height="42" viewBox="0 0 50 42" fill="none" xmlns="http://www.w3.org/2000/svg">
<path d="M39.2047 21.405C39.5742 19.8828 41.7391 19.8828 42.1087 21.405C42.3474 22.3883 43.474 22.855 44.3381 22.3285C45.6758 21.5134 47.2066 23.0442 46.3916 24.3819C45.865 25.246 46.3317 26.3726 47.315 26.6113C48.8372 26.9809 48.8372 29.1458 47.315 29.5153C46.3317 29.7541 45.865 30.8807 46.3916 31.7448C47.2066 33.0825 45.6758 34.6133 44.3381 33.7982C43.474 33.2717 42.3474 33.7383 42.1087 34.7217C41.7391 36.2439 39.5742 36.2439 39.2047 34.7217C38.966 33.7383 37.8394 33.2717 36.9753 33.7982C35.6376 34.6133 34.1068 33.0825 34.9218 31.7448C35.4483 30.8807 34.9817 29.7541 33.9984 29.5153C32.4761 29.1458 32.4761 26.9809 33.9984 26.6113C34.9817 26.3726 35.4483 25.246 34.9218 24.3819C34.1068 23.0442 35.6376 21.5134 36.9753 22.3285C37.8394 22.855 38.966 22.3883 39.2047 21.405Z" stroke="#0076CC" stroke-width="1.95" stroke-linecap="round" stroke-linejoin="round"/>
<path d="M43.2567 28.0633C43.2567 29.4993 42.0926 30.6633 40.6567 30.6633C39.2207 30.6633 38.0567 29.4993 38.0567 28.0633C38.0567 26.6274 39.2207 25.4633 40.6567 25.4633C42.0926 25.4633 43.2567 26.6274 43.2567 28.0633Z" stroke="#0076CC" stroke-width="1.95" stroke-linecap="round" stroke-linejoin="round"/>
<mask id="mask0_1632_240" style="mask-type:alpha" maskUnits="userSpaceOnUse" x="0" y="0" width="42" height="42">
<path d="M16.4167 31.4065L14.8471 37.685L12.7542 39.7778H29.497L27.4041 37.685L25.8345 31.4065M2.29004 23.0351H39.9611M6.47572 31.4065H35.7755C38.0872 31.4065 39.9611 29.5325 39.9611 27.2208V6.2924C39.9611 3.98071 38.0872 2.10672 35.7755 2.10672H6.47572C4.16403 2.10672 2.29004 3.98071 2.29004 6.2924V27.2208C2.29004 29.5325 4.16403 31.4065 6.47572 31.4065Z" stroke="#0076CC" stroke-width="3.25" stroke-linecap="round" stroke-linejoin="round"/>
</mask>
<g mask="url(#mask0_1632_240)">
<path d="M0.197266 -4.17175H51.4718V16.7566H29.497V33.4994L31.5899 35.5922V41.8707H0.197266V-4.17175Z" fill="#0076CC"/>
</g>
</svg>
