<svg width="40" height="43" viewBox="0 0 40 43" fill="none" xmlns="http://www.w3.org/2000/svg">
<path d="M19.0272 40.8351H6.05558C4.90881 40.8351 3.80901 40.3796 2.99813 39.5687C2.18724 38.7578 1.73169 37.658 1.73169 36.5112V10.5679C1.73169 9.42114 2.18724 8.32134 2.99813 7.51046C3.80901 6.69957 4.90881 6.24402 6.05558 6.24402H31.9989C33.1457 6.24402 34.2455 6.69957 35.0563 7.51046C35.8672 8.32134 36.3228 9.42114 36.3228 10.5679V21.3776" stroke="#0076CC" stroke-width="3.25" stroke-linecap="round" stroke-linejoin="round"/>
<path d="M27.675 1.92023V10.568" stroke="#0076CC" stroke-width="3.25" stroke-linecap="round" stroke-linejoin="round"/>
<path d="M10.3789 1.92023V10.568" stroke="#0076CC" stroke-width="3.25" stroke-linecap="round" stroke-linejoin="round"/>
<path d="M1.73169 19.2158H36.3228" stroke="#0076CC" stroke-width="3.25" stroke-linecap="round" stroke-linejoin="round"/>
<path d="M29.7047 27.3104C30.0742 25.7881 32.2391 25.7881 32.6087 27.3104C32.8474 28.2937 33.974 28.7604 34.8381 28.2338C36.1758 27.4188 37.7066 28.9496 36.8916 30.2873C36.365 31.1514 36.8317 32.278 37.815 32.5167C39.3372 32.8863 39.3372 35.0511 37.815 35.4207C36.8317 35.6594 36.365 36.786 36.8916 37.6501C37.7066 38.9878 36.1758 40.5186 34.8381 39.7036C33.974 39.177 32.8474 39.6437 32.6087 40.627C32.2391 42.1493 30.0742 42.1493 29.7047 40.627C29.466 39.6437 28.3394 39.177 27.4753 39.7036C26.1376 40.5186 24.6068 38.9878 25.4218 37.6501C25.9483 36.786 25.4817 35.6594 24.4984 35.4207C22.9761 35.0511 22.9761 32.8863 24.4984 32.5167C25.4817 32.278 25.9483 31.1514 25.4218 30.2873C24.6068 28.9496 26.1376 27.4188 27.4753 28.2338C28.3394 28.7604 29.466 28.2937 29.7047 27.3104Z" stroke="#0076CC" stroke-width="1.9968" stroke-linecap="round" stroke-linejoin="round"/>
<path d="M33.7567 33.9687C33.7567 35.4046 32.5926 36.5687 31.1567 36.5687C29.7207 36.5687 28.5567 35.4046 28.5567 33.9687C28.5567 32.5328 29.7207 31.3687 31.1567 31.3687C32.5926 31.3687 33.7567 32.5328 33.7567 33.9687Z" stroke="#0076CC" stroke-width="1.9968" stroke-linecap="round" stroke-linejoin="round"/>
</svg>
