<svg width="76" height="79" viewBox="0 0 76 79" fill="none" xmlns="http://www.w3.org/2000/svg">
<path fill-rule="evenodd" clip-rule="evenodd" d="M58.3129 9.609C57.9 10.3474 56.9587 10.5991 56.2321 10.1796C55.5054 9.76004 55.2577 8.80348 55.6706 8.06508C56.0834 7.32668 57.0248 7.07495 57.7514 7.4945C58.4945 7.93082 58.7423 8.8706 58.3129 9.609C58.3294 9.609 58.3294 9.609 58.3129 9.609ZM72.2347 23.756C71.8218 24.4944 70.8805 24.7462 70.1538 24.3266C69.4272 23.9071 69.1795 22.9505 69.5923 22.2121C70.0052 21.4737 70.9465 21.222 71.6732 21.6415C72.3998 22.0611 72.6475 23.0009 72.2347 23.756C72.2347 23.7393 72.2347 23.7393 72.2347 23.756ZM19.7679 7.4945C20.4945 7.91404 20.7423 8.8706 20.3294 9.609C19.9165 10.3474 18.9752 10.5991 18.2486 10.1796C17.5219 9.76004 17.2742 8.80348 17.6871 8.06508C18.0999 7.32668 19.0413 7.07495 19.7679 7.4945ZM6.40763 23.756C5.99476 24.4944 5.05343 24.7462 4.32679 24.3266C3.60015 23.9071 3.35243 22.9505 3.7653 22.2121C4.17816 21.4737 5.11949 21.222 5.84613 21.6415C6.57277 22.0611 6.82049 23.0009 6.40763 23.756C6.40763 23.7393 6.40763 23.7393 6.40763 23.756ZM30.6675 9.40762C31.3942 9.82716 31.6419 10.7837 31.229 11.5221C30.8161 12.2605 29.8748 12.5122 29.1482 12.0927C28.4215 11.6732 28.1738 10.7166 28.5867 9.9782C28.9995 9.2398 29.9244 8.98808 30.6675 9.40762C30.6675 9.40762 30.651 9.40762 30.6675 9.40762ZM34.2347 20.6346C32.8144 20.8864 31.4107 21.2723 30.073 21.8093C29.8088 21.5241 29.495 21.2891 29.1647 21.1045L30.3537 14.3582C30.5849 14.3247 30.7996 14.2743 31.0308 14.2072L34.7466 19.4096C34.4989 19.7788 34.3337 20.1983 34.2347 20.6346ZM39.3211 4.44021C38.9083 5.17861 37.9669 5.43034 37.2403 5.01079C36.5137 4.59125 36.2659 3.63469 36.6788 2.89629C37.0917 2.15789 38.033 1.90617 38.7596 2.32571C39.4863 2.76204 39.734 3.70182 39.3211 4.44021ZM37.7357 17.7649C37.2899 17.7649 36.8274 17.8489 36.4146 18.0167L32.7814 12.915C33.541 11.8745 33.6897 10.5152 33.1942 9.32371L36.1173 6.77288C37.2899 7.51128 38.7762 7.4945 39.9322 6.73932L43.1856 9.49153C42.7892 10.4817 42.8387 11.5892 43.3177 12.5458L38.1486 17.7817L37.7357 17.7649ZM39.0569 22.1785C38.644 22.9169 37.7027 23.1687 36.9761 22.7491C36.2494 22.3296 36.0017 21.373 36.4146 20.6346C36.8274 19.8962 37.7688 19.6445 38.4954 20.064C39.2386 20.5004 39.4863 21.4401 39.0569 22.1785ZM57.256 19.527L50.8979 21.8597C50.3529 21.1549 49.5767 20.6682 48.7179 20.5004L47.9748 14.1904C49.1143 13.6702 49.907 12.5794 50.0556 11.304L53.854 10.5823C54.4815 11.7571 55.6871 12.4955 57.0082 12.4955H57.1734L58.6267 16.5231C57.7514 17.2111 57.2394 18.2684 57.2394 19.3928L57.256 19.527ZM53.1769 26.6425C52.6484 26.1055 52.0704 25.602 51.4924 25.1154C51.5915 24.7797 51.641 24.4273 51.641 24.0749V23.9239L57.9991 21.5912C58.1147 21.759 58.2468 21.91 58.3955 22.0443L55.621 27.9683C55.2577 27.9683 54.9109 28.0354 54.5641 28.1529C54.1182 27.6326 53.6558 27.1292 53.1769 26.6425ZM47.8261 11.6396C47.4133 12.378 46.4719 12.6297 45.7453 12.1934C45.0187 11.7738 44.771 10.8173 45.2003 10.0789C45.6132 9.34049 46.5545 9.08877 47.2812 9.50831C47.9913 9.94464 48.239 10.9012 47.8261 11.6396ZM45.3985 21.6247C44.0443 21.1213 42.6406 20.7521 41.2203 20.5339C41.0552 19.8627 40.7084 19.2585 40.2294 18.7886L44.8535 14.0897C45.1673 14.2408 45.4976 14.3582 45.8279 14.4254L46.5545 20.7521C46.1251 20.9535 45.7288 21.2556 45.3985 21.6247ZM49.362 24.8468C48.9491 25.5852 48.0078 25.837 47.2812 25.4174C46.5545 24.9979 46.3068 24.0413 46.7197 23.3029C47.1325 22.5645 48.0739 22.3128 48.8005 22.7323C49.5437 23.1519 49.7914 24.0917 49.362 24.8468C49.362 24.8468 49.362 24.8301 49.362 24.8468ZM62.1443 20.1647C61.7314 20.9031 60.7901 21.1549 60.0634 20.7353C59.3368 20.3158 59.0891 19.3592 59.5019 18.6208C59.9148 17.8824 60.8561 17.6307 61.5828 18.0502C62.3094 18.4866 62.5571 19.4263 62.1443 20.1647ZM65.9096 32.2476L59.1551 30.7876C58.957 29.8982 58.4285 29.1262 57.7018 28.606L60.3442 22.9841C60.5093 23.0009 60.6745 23.0176 60.8396 23.0176C61.9626 23.0176 63.036 22.4806 63.7131 21.5576L67.3629 22.8498V22.9505C67.3629 24.3098 68.106 25.5517 69.2786 26.1894L68.5519 30.4352C67.4454 30.603 66.4711 31.2575 65.9096 32.2476ZM70.352 34.832C69.9391 35.5704 68.9978 35.8221 68.2712 35.3858C67.5445 34.9663 67.2968 34.0097 67.7262 33.2713C68.1391 32.5329 69.0804 32.2812 69.807 32.7007C70.5172 33.137 70.7649 34.0768 70.352 34.832C70.352 34.8152 70.352 34.8152 70.352 34.832ZM56.9917 32.3819C56.5789 33.1203 55.6375 33.372 54.9109 32.9524C54.1842 32.5329 53.9365 31.5763 54.3494 30.8379C54.7623 30.0995 55.7036 29.8478 56.4302 30.2674C57.1569 30.7037 57.4046 31.6435 56.9917 32.3819ZM24.7883 21.9604L19.0413 19.4599L19.0578 19.1075C19.0578 17.9663 18.5293 16.8755 17.621 16.2042L18.8926 12.4955H19.0082C20.3459 12.4955 21.568 11.7403 22.1955 10.532L26.3737 11.2704C26.5389 12.4283 27.2325 13.452 28.2564 14.0058L27.0673 20.7521C26.1756 20.836 25.3663 21.2723 24.7883 21.9604ZM16.2338 17.7649C16.9604 18.2013 17.2081 19.141 16.7788 19.8794C16.3494 20.6178 15.4246 20.8696 14.6979 20.4332C13.9713 19.9969 13.7236 19.0571 14.153 18.3187C14.5823 17.5803 15.5071 17.3286 16.2338 17.7649ZM20.0817 28.4382H19.933L17.6375 21.9772C17.8357 21.8261 18.0174 21.6583 18.1825 21.4569L23.9461 23.9574L23.9296 24.3098C23.9296 24.679 23.9791 25.065 24.0947 25.4174C23.5993 25.837 23.1204 26.2901 22.6745 26.76C22.113 27.3306 21.601 27.9347 21.1056 28.5556C20.7753 28.4885 20.4285 28.4382 20.0817 28.4382ZM19.322 33.4223C18.5954 33.0028 18.3477 32.0462 18.7605 31.3078C19.1734 30.5694 20.1147 30.3177 20.8414 30.7373C21.568 31.1568 21.8157 32.1134 21.4028 32.8518C20.9735 33.5902 20.0487 33.8419 19.322 33.4223ZM7.84439 32.3147C8.57103 32.7343 8.81875 33.6908 8.40589 34.4292C7.99302 35.1676 7.05169 35.4194 6.32505 34.9998C5.59841 34.5803 5.35069 33.6237 5.76356 32.8853C6.19294 32.1469 7.11775 31.8952 7.84439 32.3147ZM26.7536 25.6859C26.0269 25.2664 25.7792 24.3098 26.1921 23.5714C26.6049 22.833 27.5463 22.5813 28.2729 23.0009C28.9995 23.4204 29.2473 24.377 28.8344 25.1154C28.405 25.8538 27.4802 26.1055 26.7536 25.6859C26.7536 25.6692 26.737 25.6692 26.7536 25.6859ZM16.5641 31.4085L10.3546 32.1637C9.84265 31.0058 8.75269 30.2002 7.5141 30.0492L6.80398 26.1894C7.95999 25.5517 8.68663 24.3266 8.68663 22.9841V22.8163L12.6666 21.3395C13.3437 22.2289 14.3842 22.7491 15.4906 22.7491H15.6393L17.9348 29.1933C17.2081 29.7303 16.7292 30.5191 16.5641 31.4085ZM72.6145 34.0433C72.6145 32.6839 71.8713 31.4421 70.6823 30.8044L71.4089 26.5754C73.3742 26.3069 74.7449 24.4609 74.4806 22.4806C74.2164 20.4836 72.3998 19.0907 70.4511 19.3592C69.4932 19.4935 68.651 19.9969 68.073 20.7857L64.4068 19.4935V19.376C64.4068 17.3622 62.8048 15.7343 60.8231 15.7343H60.658L59.1882 11.6899C60.757 10.4649 61.0378 8.16577 59.8157 6.58828C58.6102 4.99401 56.3477 4.70872 54.7953 5.95057C54.0356 6.55472 53.5567 7.42737 53.4411 8.38393L49.6427 9.10555C48.7014 7.32668 46.538 6.67219 44.7875 7.62875C44.7049 7.6791 44.6223 7.71266 44.5563 7.76301L41.3029 5.02758C42.0626 3.1648 41.1873 1.03351 39.3542 0.278335C37.5211 -0.493627 35.4237 0.395807 34.6805 2.25858C34.3172 3.1648 34.3172 4.17171 34.6971 5.07792L31.774 7.64553C30.0895 6.58828 27.8766 7.1253 26.8361 8.83704C26.7866 8.92095 26.7536 8.98808 26.704 9.07198L22.5424 8.33359C22.2781 6.35334 20.478 4.96045 18.5128 5.22896C16.5476 5.49747 15.1934 7.34346 15.4576 9.32371C15.5897 10.2971 16.0852 11.1697 16.8613 11.7403L15.5897 15.4491H15.4741C13.4924 15.4491 11.8905 17.0769 11.8905 19.0907V19.2585L7.92697 20.7353C6.7214 19.141 4.45891 18.8558 2.90654 20.0976C1.33766 21.3227 1.05691 23.6218 2.27899 25.1993C2.87351 25.9712 3.73227 26.4579 4.6736 26.5754L5.40024 30.4352C3.66621 31.3917 3.02214 33.6069 3.96347 35.369C4.59102 36.527 5.78007 37.2654 7.08472 37.2654C8.78572 37.2318 10.239 36.0067 10.6023 34.3118L16.8118 33.5566C17.3072 34.6474 18.4798 35.604 19.6688 35.6711C21.8322 35.7886 23.6488 34.3286 23.6488 32.0462C23.6488 31.2239 23.3846 30.4352 22.8892 29.7975C23.302 29.2772 23.7479 28.7738 24.2103 28.3039C24.5736 27.9347 24.9535 27.5655 25.3498 27.2299C26.9352 28.4382 29.1812 28.1193 30.3703 26.5082C30.8327 25.8705 31.0969 25.1154 31.0969 24.3266C31.0969 24.142 31.0804 23.9574 31.0639 23.7728C32.1703 23.3533 33.3098 23.0176 34.4659 22.7995C35.242 24.6455 37.3394 25.5181 39.156 24.7294C40.0478 24.3434 40.7414 23.6218 41.0882 22.7156C42.2607 22.9002 43.4002 23.2022 44.5067 23.605L44.4902 24.0413C44.4902 26.0551 46.0921 27.683 48.0739 27.683C48.8666 27.683 49.6427 27.4145 50.2703 26.911C50.7492 27.3138 51.2281 27.7333 51.674 28.1864C52.0704 28.5892 52.4502 28.9919 52.8135 29.4283C51.641 31.0393 51.9713 33.3216 53.5567 34.5131C54.1677 34.983 54.9274 35.2348 55.6871 35.2348C57.1238 35.218 58.4285 34.3286 58.99 32.986L65.4802 34.3957C65.6619 35.755 66.5206 36.9129 67.7757 37.45C70.1538 38.2555 72.6145 36.6277 72.6145 34.0433Z" fill="#008CD1"/>
<path fill-rule="evenodd" clip-rule="evenodd" d="M76 44.0452V39.8665H57.4707C57.2725 50.7915 48.3877 59.4844 37.6367 59.283C27.1664 59.0816 18.711 50.5062 18.5293 39.8665H0V44.0452C3.73229 44.7164 5.92873 44.1627 7.00217 48.2574C8.10865 52.4528 6.04433 52.9899 3.03868 55.5407L5.103 59.1656L7.1508 62.7904C10.9492 61.3808 12.3859 59.904 15.309 62.8743C18.3146 65.9286 16.7623 67.5229 15.4411 71.1981L19.0083 73.2958L22.5754 75.3935C25.0196 72.4232 25.6306 70.2415 29.6767 71.3491C33.7888 72.4735 33.2273 74.5544 33.9044 78.4814H42.1452C42.8057 74.6048 42.2442 72.4735 46.3399 71.3491C50.4355 70.2247 50.9804 72.3728 53.4576 75.3935L57.0248 73.2958L60.5919 71.1981C59.2708 67.5061 57.7184 65.9286 60.724 62.8743C63.6801 59.8704 65.3316 61.4647 68.8822 62.7904L70.9465 59.1656L73.0109 55.5407C70.0052 52.9731 67.9409 52.4361 69.0474 48.2574C70.0713 44.1627 72.2677 44.7164 76 44.0452Z" fill="black"/>
<path d="M37.6368 49.4153C42.8265 49.4153 47.0336 45.1402 47.0336 39.8665C47.0336 34.5928 42.8265 30.3177 37.6368 30.3177C32.4471 30.3177 28.24 34.5928 28.24 39.8665C28.24 45.1402 32.4471 49.4153 37.6368 49.4153Z" fill="#B1B3B5"/>
</svg>
