<svg width="50" height="38" viewBox="0 0 50 48" fill="none" xmlns="http://www.w3.org/2000/svg">
<path d="M17.4329 6.18414C17.7171 6.34575 17.953 6.58016 18.1165 6.86324C18.28 7.14633 18.3651 7.46787 18.3631 7.79477V13.8173C18.3631 14.4862 17.9968 15.103 17.4056 15.4279L11.8247 18.9584C11.548 19.1103 11.2374 19.1899 10.9218 19.1899C10.6061 19.1899 10.2956 19.1103 10.0189 18.9584L4.43792 15.4279C4.14867 15.2698 3.90721 15.0369 3.73877 14.7536C3.57034 14.4703 3.48113 14.1469 3.48047 13.8173V7.79394C3.48047 7.12505 3.84675 6.50907 4.43792 6.18414L10.0189 2.89343C10.3038 2.73636 10.6238 2.65399 10.9491 2.65399C11.2744 2.65399 11.5944 2.73636 11.8792 2.89343L17.4602 6.18414H17.4329Z" stroke="#0076CC" stroke-width="1.98435" stroke-linecap="round" stroke-linejoin="round"/>
<path d="M8.44141 10.9217C8.44141 11.5796 8.70274 12.2105 9.16791 12.6757C9.63308 13.1408 10.264 13.4022 10.9218 13.4022C11.5797 13.4022 12.2106 13.1408 12.6758 12.6757C13.1409 12.2105 13.4023 11.5796 13.4023 10.9217C13.4023 10.2639 13.1409 9.63296 12.6758 9.16779C12.2106 8.70261 11.5797 8.44128 10.9218 8.44128C10.264 8.44128 9.63308 8.70261 9.16791 9.16779C8.70274 9.63296 8.44141 10.2639 8.44141 10.9217Z" stroke="#0076CC" stroke-width="1.98435" stroke-linecap="round" stroke-linejoin="round"/>
<path d="M23.9998 27.2466H29.2312V22.0152L23.1279 15.9119C25.0803 14.9795 27.2738 14.6753 29.4063 15.0411C31.5388 15.407 33.5054 16.425 35.0353 17.9549C36.5652 19.4849 37.5832 21.4515 37.9491 23.584C38.315 25.7165 38.0108 27.9099 37.0783 29.8623L47.5411 40.3251C48.2348 41.0189 48.6246 41.9598 48.6246 42.9408C48.6246 43.9219 48.2348 44.8628 47.5411 45.5565C46.8474 46.2503 45.9065 46.64 44.9254 46.64C43.9443 46.64 43.0034 46.2503 42.3097 45.5565L31.8469 35.0937C29.8945 36.0262 27.701 36.3304 25.5685 35.9646C23.436 35.5987 21.4694 34.5807 19.9395 33.0508C18.4096 31.5208 17.3916 29.5542 17.0257 27.4217C16.6598 25.2892 16.964 23.0958 17.8965 21.1433L23.9998 27.2466Z" stroke="#0076CC" stroke-width="2.6" stroke-linecap="round" stroke-linejoin="round"/>
</svg>
