<svg width="32" height="32" viewBox="0 0 32 32" fill="none" xmlns="http://www.w3.org/2000/svg">
<rect width="32" height="32" rx="2" fill="white"/>
<path d="M21.5118 10.4882L21.8654 10.1346V10.1346L21.5118 10.4882ZM12.3333 22.0237V22.5237C12.4659 22.5237 12.5931 22.471 12.6869 22.3772L12.3333 22.0237ZM10 22.0237H9.5C9.5 22.2998 9.72386 22.5237 10 22.5237V22.0237ZM10 19.6429L9.64645 19.2894C9.55268 19.3832 9.5 19.5103 9.5 19.6429H10ZM19.5083 10.8417C19.9639 10.3861 20.7026 10.3861 21.1583 10.8417L21.8654 10.1346C21.0192 9.28847 19.6474 9.28847 18.8012 10.1346L19.5083 10.8417ZM21.1583 10.8417C21.6139 11.2973 21.6139 12.036 21.1583 12.4916L21.8654 13.1987C22.7115 12.3526 22.7115 10.9807 21.8654 10.1346L21.1583 10.8417ZM21.1583 12.4916L11.9798 21.6701L12.6869 22.3772L21.8654 13.1987L21.1583 12.4916ZM12.3333 21.5237H10V22.5237H12.3333V21.5237ZM18.8012 10.1346L9.64645 19.2894L10.3536 19.9965L19.5083 10.8417L18.8012 10.1346ZM9.5 19.6429V22.0237H10.5V19.6429H9.5ZM17.8012 11.8417L20.1583 14.1987L20.8654 13.4916L18.5083 11.1346L17.8012 11.8417Z" fill="#0076CC"/>
</svg>
