<svg width="16" height="16" viewBox="0 0 16 16" fill="none" xmlns="http://www.w3.org/2000/svg">
<g clip-path="url(#clip0_3083_76139)">
<path d="M3.99984 2.66667H10.6665L13.3332 5.33334V12C13.3332 12.3536 13.1927 12.6928 12.9426 12.9428C12.6926 13.1929 12.3535 13.3333 11.9998 13.3333H3.99984C3.64622 13.3333 3.30708 13.1929 3.05703 12.9428C2.80698 12.6928 2.6665 12.3536 2.6665 12V4.00001C2.6665 3.64638 2.80698 3.30724 3.05703 3.0572C3.30708 2.80715 3.64622 2.66667 3.99984 2.66667Z" stroke="#0076CC" stroke-linecap="round" stroke-linejoin="round"/>
<path d="M7.99984 10.6667C8.73622 10.6667 9.33317 10.0697 9.33317 9.33333C9.33317 8.59695 8.73622 8 7.99984 8C7.26346 8 6.6665 8.59695 6.6665 9.33333C6.6665 10.0697 7.26346 10.6667 7.99984 10.6667Z" stroke="#0076CC" stroke-linecap="round" stroke-linejoin="round"/>
<path d="M9.3335 2.66667V5.33334H5.3335V2.66667" stroke="#0076CC" stroke-linecap="round" stroke-linejoin="round"/>
</g>
<defs>
<clipPath id="clip0_3083_76139">
<rect width="16" height="16" fill="white"/>
</clipPath>
</defs>
</svg>
