<svg width="16" height="16" viewBox="0 0 16 16" fill="none" xmlns="http://www.w3.org/2000/svg">
<g clip-path="url(#clip0_22_29501)">
<path d="M2.32401 5.30996C2.43601 5.3233 2.55067 5.33196 2.66667 5.3333C3.19334 5.3393 3.69267 5.21463 4 4.99996C4.30734 4.78663 4.80667 4.66196 5.33334 4.66663C5.86 4.66196 6.35934 4.78663 6.66667 4.99996C6.974 5.21463 7.47334 5.3393 8 5.3333C8.52667 5.3393 9.026 5.21463 9.33334 4.99996C9.64067 4.78663 10.14 4.66196 10.6667 4.66663C11.1933 4.66196 11.6927 4.78663 12 4.99996C12.3073 5.21463 12.8067 5.3393 13.3333 5.3333C13.4467 5.3333 13.5593 5.32396 13.6687 5.31063" stroke="#005FAA" stroke-width="1.16667" stroke-linecap="round" stroke-linejoin="round"/>
<path d="M2 3.33337L3.14733 10.2194C3.19925 10.5307 3.35993 10.8135 3.60078 11.0175C3.84164 11.2215 4.14704 11.3334 4.46267 11.3334H11.5373C11.853 11.3334 12.1584 11.2215 12.3992 11.0175C12.6401 10.8135 12.8007 10.5307 12.8527 10.2194L14 3.33337" stroke="#005FAA" stroke-width="1.16667" stroke-linecap="round" stroke-linejoin="round"/>
<path d="M3.33334 13.3334H12.6667" stroke="#005FAA" stroke-width="1.16667" stroke-linecap="round" stroke-linejoin="round"/>
</g>
<defs>
<clipPath id="clip0_22_29501">
<rect width="16" height="16" fill="white"/>
</clipPath>
</defs>
</svg>
