<svg width="17" height="16" viewBox="0 0 17 16" fill="none" xmlns="http://www.w3.org/2000/svg">
<g clip-path="url(#clip0_22_29244)">
<path d="M5.28105 8L8.61439 11.3333L7.61439 12.3333C7.39683 12.5581 7.13673 12.7373 6.84922 12.8605C6.56172 12.9837 6.25257 13.0484 5.93979 13.051C5.62701 13.0535 5.31686 12.9938 5.02739 12.8753C4.73793 12.7567 4.47495 12.5818 4.25377 12.3606C4.03259 12.1394 3.85765 11.8765 3.73912 11.587C3.6206 11.2975 3.56086 10.9874 3.5634 10.6746C3.56594 10.3618 3.6307 10.0527 3.75391 9.76516C3.87712 9.47766 4.05632 9.21756 4.28105 9L5.28105 8Z" stroke="#008200" stroke-linecap="round" stroke-linejoin="round"/>
<path d="M11.9477 8.00001L8.61438 4.66667L9.61438 3.66667C9.83194 3.44194 10.092 3.26274 10.3795 3.13953C10.667 3.01632 10.9762 2.95156 11.289 2.94902C11.6018 2.94648 11.9119 3.00622 12.2014 3.12474C12.4908 3.24327 12.7538 3.41821 12.975 3.63939C13.1962 3.86057 13.3711 4.12355 13.4896 4.41301C13.6082 4.70248 13.6679 5.01263 13.6654 5.32541C13.6628 5.63819 13.5981 5.94734 13.4749 6.23484C13.3516 6.52235 13.1725 6.78245 12.9477 7.00001L11.9477 8.00001Z" stroke="#008200" stroke-linecap="round" stroke-linejoin="round"/>
<path d="M2.61438 14L4.28105 12.3333" stroke="#008200" stroke-linecap="round" stroke-linejoin="round"/>
<path d="M12.9477 3.66667L14.6144 2" stroke="#008200" stroke-linecap="round" stroke-linejoin="round"/>
<path d="M7.28106 7.33334L5.94772 8.66668" stroke="#008200" stroke-linecap="round" stroke-linejoin="round"/>
<path d="M9.28106 9.33334L7.94772 10.6667" stroke="#008200" stroke-linecap="round" stroke-linejoin="round"/>
</g>
<defs>
<clipPath id="clip0_22_29244">
<rect width="16" height="16" fill="white" transform="translate(0.61438)"/>
</clipPath>
</defs>
</svg>
