<svg width="16" height="16" viewBox="0 0 16 16" fill="none" xmlns="http://www.w3.org/2000/svg">
<g clip-path="url(#clip0_34_28539)">
<path d="M6.82666 2.63801L1.21199 12.0113C1.09631 12.2118 1.03511 12.4391 1.03449 12.6705C1.03387 12.902 1.09383 13.1296 1.20843 13.3306C1.32303 13.5317 1.48827 13.6993 1.68772 13.8168C1.88717 13.9342 2.11389 13.9974 2.34533 14H13.5753C13.8068 13.9974 14.0335 13.9342 14.2329 13.8168C14.4324 13.6993 14.5976 13.5317 14.7122 13.3306C14.8268 13.1296 14.8868 12.902 14.8862 12.6705C14.8855 12.4391 14.8243 12.2118 14.7087 12.0113L9.09333 2.63801C8.97509 2.44334 8.8087 2.28241 8.61019 2.17072C8.41169 2.05904 8.18776 2.00037 7.95999 2.00037C7.73223 2.00037 7.5083 2.05904 7.30979 2.17072C7.11129 2.28241 6.9449 2.44334 6.82666 2.63801Z" stroke="#BA4E00" stroke-width="1.16667" stroke-linecap="round" stroke-linejoin="round"/>
<path d="M8 6V8.66667" stroke="#BA4E00" stroke-width="1.16667" stroke-linecap="round" stroke-linejoin="round"/>
<path d="M8 11.3333H8.00667" stroke="#BA4E00" stroke-width="1.16667" stroke-linecap="round" stroke-linejoin="round"/>
</g>
<defs>
<clipPath id="clip0_34_28539">
<rect width="16" height="16" fill="white"/>
</clipPath>
</defs>
</svg>
