<svg width="16" height="16" viewBox="0 0 16 16" fill="none" xmlns="http://www.w3.org/2000/svg">
<g clip-path="url(#clip0_22_29685)">
<path d="M2.66666 6.66663C2.66666 7.72749 3.08808 8.74491 3.83823 9.49505C4.58838 10.2452 5.60579 10.6666 6.66666 10.6666C7.72752 10.6666 8.74494 10.2452 9.49508 9.49505C10.2452 8.74491 10.6667 7.72749 10.6667 6.66663C10.6667 5.60576 10.2452 4.58834 9.49508 3.8382C8.74494 3.08805 7.72752 2.66663 6.66666 2.66663C5.60579 2.66663 4.58838 3.08805 3.83823 3.8382C3.08808 4.58834 2.66666 5.60576 2.66666 6.66663Z" stroke="#BA4E00" stroke-width="1.16667" stroke-linecap="round" stroke-linejoin="round"/>
<path d="M8.99999 10H9.33332C9.68695 10 10.0261 10.1405 10.2761 10.3905C10.5262 10.6406 10.6667 10.9797 10.6667 11.3333V12C10.6667 12.3536 10.5262 12.6928 10.2761 12.9428C10.0261 13.1929 9.68695 13.3333 9.33332 13.3333H3.99999C3.64637 13.3333 3.30723 13.1929 3.05718 12.9428C2.80713 12.6928 2.66666 12.3536 2.66666 12V11.3333C2.66666 10.9797 2.80713 10.6406 3.05718 10.3905C3.30723 10.1405 3.64637 10 3.99999 10H4.33332" stroke="#BA4E00" stroke-width="1.16667" stroke-linecap="round" stroke-linejoin="round"/>
<path d="M10.6667 11.3334C11.25 11.2556 11.8072 11.0433 12.2945 10.7134C12.7817 10.3834 13.1857 9.94479 13.4744 9.43205C13.7632 8.9193 13.9289 8.34648 13.9584 7.75876C13.9879 7.17104 13.8805 6.58449 13.6447 6.04537L13.3333 5.33337" stroke="#BA4E00" stroke-width="1.16667" stroke-linecap="round" stroke-linejoin="round"/>
<path d="M6.66666 6.66663V6.67329" stroke="#BA4E00" stroke-width="1.16667" stroke-linecap="round" stroke-linejoin="round"/>
<path d="M12.6667 5.33329C12.6667 5.5101 12.7369 5.67967 12.8619 5.8047C12.9869 5.92972 13.1565 5.99996 13.3333 5.99996C13.5101 5.99996 13.6797 5.92972 13.8047 5.8047C13.9298 5.67967 14 5.5101 14 5.33329C14 5.15648 13.9298 4.98691 13.8047 4.86189C13.6797 4.73686 13.5101 4.66663 13.3333 4.66663C13.1565 4.66663 12.9869 4.73686 12.8619 4.86189C12.7369 4.98691 12.6667 5.15648 12.6667 5.33329Z" stroke="#BA4E00" stroke-width="1.16667" stroke-linecap="round" stroke-linejoin="round"/>
</g>
<defs>
<clipPath id="clip0_22_29685">
<rect width="16" height="16" fill="white"/>
</clipPath>
</defs>
</svg>
